#N canvas 1989 216 556 448 12;
#X obj 121 261 rpole~;
#X obj 228 242 / 100;
#X obj 121 236 rzero_rev~;
#X text 313 134 pole (%);
#X obj 211 48 inlet;
#X obj 105 55 inlet~;
#X obj 123 399 outlet~;
#X text 314 157 between 0 - 100;
#X floatatom 274 153 5 0 0 0 - - -;
#X text 235 17 bang to randomize;
#X obj 323 55 loadbang;
#X obj 230 118 + 1;
#X obj 229 95 random 99;
#X connect 0 0 6 0;
#X connect 1 0 2 1;
#X connect 1 0 0 1;
#X connect 2 0 0 0;
#X connect 4 0 1 0;
#X connect 5 0 2 0;
#X connect 10 0 12 0;
#X connect 11 0 1 0;
#X connect 11 0 8 0;
#X connect 12 0 11 0;
