#N canvas 0 25 450 300 12;
#X obj 190 93 <;
#X obj 190 117 sel 1;
#X obj 190 141 bng 15 50 20 0 empty empty empty 17 7 0 10 -262144 -1
-1;
#X obj 187 67 t f f;
#X obj 88 67 >=;
#X obj 88 124 sel 1;
#X obj 88 148 bng 15 50 20 0 empty empty empty 17 7 0 10 -262144 -1
-1;
#X obj 87 93 change;
#X obj 106 41 r userAngle;
#X obj 222 146 r useZeroCrossing;
#X obj 184 173 spigot;
#X obj 122 174 sel 0 1;
#X msg 122 205 1;
#X msg 143 226 0;
#X obj 92 256 spigot;
#X obj 127 5 inlet;
#X obj 92 280 outlet;
#X connect 0 0 1 0;
#X connect 1 0 2 0;
#X connect 2 0 10 0;
#X connect 3 0 0 1;
#X connect 3 1 0 0;
#X connect 4 0 7 0;
#X connect 5 0 6 0;
#X connect 6 0 14 0;
#X connect 7 0 5 0;
#X connect 8 0 4 1;
#X connect 9 0 10 1;
#X connect 9 0 11 0;
#X connect 10 0 16 0;
#X connect 11 0 12 0;
#X connect 11 1 13 0;
#X connect 12 0 14 1;
#X connect 13 0 14 1;
#X connect 14 0 16 0;
#X connect 15 0 3 0;
#X connect 15 0 4 0;
