#N canvas 0 25 450 300 12;
#X floatatom 169 134 5 0 0 0 - - -;
#X floatatom 123 135 5 0 0 0 - - -;
#X obj 226 359 atan2;
#X floatatom 226 383 5 0 0 0 - - -;
#X obj 330 244 t b f;
#X floatatom 327 135 5 0 0 0 - - -;
#X floatatom 280 135 5 0 0 0 - - -;
#X obj 101 231 *;
#X obj 119 184 t b f;
#X obj 179 235 *;
#X obj 186 188 t b f;
#X obj 145 306 -;
#X obj 169 260 t b f;
#X floatatom 123 338 5 0 0 0 - - -;
#X obj 278 226 *;
#X obj 277 175 t b f;
#X obj 330 218 *;
#X obj 351 171 t b f;
#X obj 305 280 +;
#X floatatom 305 304 5 0 0 0 - - -;
#X obj 247 317 t b f;
#X text 291 112 x1;
#X text 331 111 y1;
#X text 173 111 y2;
#X text 126 111 x2;
#X obj 144 284 f;
#X obj 179 214 f;
#X obj 102 208 f;
#X obj 273 204 f;
#X obj 329 194 f;
#X obj 291 254 f;
#X obj 201 337 f;
#X obj 119 78 inlet;
#X obj 167 79 inlet;
#X obj 276 55 inlet;
#X obj 324 56 inlet;
#X obj 226 406 outlet;
#X text 68 505 https://www.mathworks.com/matlabcentral/answers/180131-how-can-i-find-the-angle-between-two-vectors-including-directional-information#:~:text=Direct%20link%20to%20this%20answer
;
#X connect 0 0 10 0;
#X connect 0 0 29 0;
#X connect 1 0 27 0;
#X connect 1 0 28 0;
#X connect 2 0 3 0;
#X connect 3 0 36 0;
#X connect 4 0 30 0;
#X connect 4 1 18 1;
#X connect 5 0 8 0;
#X connect 5 0 17 0;
#X connect 6 0 15 0;
#X connect 6 0 26 0;
#X connect 7 0 25 0;
#X connect 8 0 27 0;
#X connect 8 1 7 1;
#X connect 9 0 12 0;
#X connect 10 0 26 0;
#X connect 10 1 9 1;
#X connect 11 0 13 0;
#X connect 11 0 31 0;
#X connect 12 0 25 0;
#X connect 12 1 11 1;
#X connect 14 0 30 0;
#X connect 15 0 28 0;
#X connect 15 1 14 1;
#X connect 16 0 4 0;
#X connect 17 0 29 0;
#X connect 17 1 16 1;
#X connect 18 0 19 0;
#X connect 18 0 20 0;
#X connect 20 0 31 0;
#X connect 20 1 2 1;
#X connect 25 0 11 0;
#X connect 26 0 9 0;
#X connect 27 0 7 0;
#X connect 28 0 14 0;
#X connect 29 0 16 0;
#X connect 30 0 18 0;
#X connect 31 0 2 0;
#X connect 32 0 1 0;
#X connect 33 0 0 0;
#X connect 34 0 6 0;
#X connect 35 0 5 0;
