#N canvas 600 140 768 690 12;
#X text 184 -5 There are four patches for frequency selection (each
with their own probability distribution: lower frequencies are more
likely than higher).;
#X text 186 -47 The Main Belt has a duration range of between 16000
and 28000 miliseconds;
#N canvas 0 50 450 498 LowDrone 0;
#X floatatom 133 157 5 0 0 0 - - -;
#N canvas 0 50 450 355 triangle 0;
#X obj 143 24 inlet;
#X obj 330 249 outlet~;
#X obj 143 125 phasor~;
#X obj 143 177 -~ 1;
#X obj 143 203 clip~ 0 1;
#X obj 143 151 *~ 2;
#X obj 235 125 phasor~;
#X obj 235 177 -~ 1;
#X obj 235 203 clip~ 0 1;
#X obj 235 151 *~ 2;
#X obj 177 74 * -1;
#X obj 182 276 +~;
#X msg 281 80 2;
#X connect 0 0 2 0;
#X connect 0 0 10 0;
#X connect 2 0 5 0;
#X connect 3 0 4 0;
#X connect 4 0 11 0;
#X connect 5 0 3 0;
#X connect 6 0 9 0;
#X connect 7 0 8 0;
#X connect 8 0 11 1;
#X connect 9 0 7 0;
#X connect 10 0 6 0;
#X connect 11 0 1 0;
#X connect 12 0 6 1;
#X connect 12 0 2 1;
#X restore 133 193 pd triangle;
#X floatatom 39 157 5 0 0 0 - - -;
#N canvas 0 50 450 355 triangle 0;
#X obj 143 24 inlet;
#X obj 330 249 outlet~;
#X obj 143 125 phasor~;
#X obj 143 177 -~ 1;
#X obj 143 203 clip~ 0 1;
#X obj 143 151 *~ 2;
#X obj 235 125 phasor~;
#X obj 235 177 -~ 1;
#X obj 235 203 clip~ 0 1;
#X obj 235 151 *~ 2;
#X obj 177 74 * -1;
#X obj 182 276 +~;
#X msg 281 80 2;
#X connect 0 0 2 0;
#X connect 0 0 10 0;
#X connect 2 0 5 0;
#X connect 3 0 4 0;
#X connect 4 0 11 0;
#X connect 5 0 3 0;
#X connect 6 0 9 0;
#X connect 7 0 8 0;
#X connect 8 0 11 1;
#X connect 9 0 7 0;
#X connect 10 0 6 0;
#X connect 11 0 1 0;
#X connect 12 0 6 1;
#X connect 12 0 2 1;
#X restore 39 193 pd triangle;
#X floatatom 227 157 5 0 0 0 - - -;
#N canvas 0 50 450 355 triangle 0;
#X obj 143 24 inlet;
#X obj 330 249 outlet~;
#X obj 143 125 phasor~;
#X obj 143 177 -~ 1;
#X obj 143 203 clip~ 0 1;
#X obj 143 151 *~ 2;
#X obj 235 125 phasor~;
#X obj 235 177 -~ 1;
#X obj 235 203 clip~ 0 1;
#X obj 235 151 *~ 2;
#X obj 177 74 * -1;
#X obj 182 276 +~;
#X msg 281 80 2;
#X connect 0 0 2 0;
#X connect 0 0 10 0;
#X connect 2 0 5 0;
#X connect 3 0 4 0;
#X connect 4 0 11 0;
#X connect 5 0 3 0;
#X connect 6 0 9 0;
#X connect 7 0 8 0;
#X connect 8 0 11 1;
#X connect 9 0 7 0;
#X connect 10 0 6 0;
#X connect 11 0 1 0;
#X connect 12 0 6 1;
#X connect 12 0 2 1;
#X restore 227 193 pd triangle;
#X floatatom 324 156 5 0 0 0 - - -;
#N canvas 0 50 450 355 triangle 0;
#X obj 143 24 inlet;
#X obj 330 249 outlet~;
#X obj 143 125 phasor~;
#X obj 143 177 -~ 1;
#X obj 143 203 clip~ 0 1;
#X obj 143 151 *~ 2;
#X obj 235 125 phasor~;
#X obj 235 177 -~ 1;
#X obj 235 203 clip~ 0 1;
#X obj 235 151 *~ 2;
#X obj 177 74 * -1;
#X obj 182 276 +~;
#X msg 281 80 2;
#X connect 0 0 2 0;
#X connect 0 0 10 0;
#X connect 2 0 5 0;
#X connect 3 0 4 0;
#X connect 4 0 11 0;
#X connect 5 0 3 0;
#X connect 6 0 9 0;
#X connect 7 0 8 0;
#X connect 8 0 11 1;
#X connect 9 0 7 0;
#X connect 10 0 6 0;
#X connect 11 0 1 0;
#X connect 12 0 6 1;
#X connect 12 0 2 1;
#X restore 324 192 pd triangle;
#X obj 182 356 outlet~;
#X text 20 34 Frequencies: 80 \, 80.5 \, 120 \, 121;
#X obj 274 45 loadbang;
#X msg 39 118 80;
#X msg 133 116 80.5;
#X msg 227 113 120;
#X msg 324 111 121;
#X obj 181 309 *~ 0.25;
#X connect 0 0 1 0;
#X connect 1 0 15 0;
#X connect 2 0 3 0;
#X connect 3 0 15 0;
#X connect 4 0 5 0;
#X connect 5 0 15 0;
#X connect 6 0 7 0;
#X connect 7 0 15 0;
#X connect 10 0 14 0;
#X connect 10 0 13 0;
#X connect 10 0 12 0;
#X connect 10 0 11 0;
#X connect 11 0 2 0;
#X connect 12 0 0 0;
#X connect 13 0 4 0;
#X connect 14 0 6 0;
#X connect 15 0 8 0;
#X restore 309 596 pd LowDrone;
#X text 279 717 left out;
#X text 408 716 right out;
#X obj 284 660 *~;
#X obj 406 657 *~;
#X obj 511 601 r AsteroidOnOff;
#X obj 511 625 rampOnOff;
#X obj 284 684 outlet~;
#X obj 406 681 outlet~;
#X obj 107 180 durations 2600 1400;
#X obj 176 315 durations 1200 1400;
#X obj 264 445 durations 500 700;
#X obj 307 560 durations 180 320;
#X obj 169 218 loadbang;
#X obj 168 278 *;
#X obj 248 279 *;
#X obj 280 243 t b f;
#X floatatom 200 277 10 0 0 0 - - -;
#X floatatom 279 278 5 0 0 0 - - -;
#X msg 168 241 20000;
#X obj 280 216 r orbitScaler;
#X msg 232 243 3000;
#X obj 91 83 loadbang;
#X obj 90 143 *;
#X obj 170 144 *;
#X obj 202 108 t b f;
#X floatatom 122 142 10 0 0 0 - - -;
#X floatatom 201 143 5 0 0 0 - - -;
#X obj 202 81 r orbitScaler;
#X msg 90 106 15000;
#X msg 155 108 4000;
#X obj 214 352 loadbang;
#X obj 213 412 *;
#X obj 293 413 *;
#X obj 325 377 t b f;
#X floatatom 245 411 5 0 0 0 - - -;
#X floatatom 324 412 5 0 0 0 - - -;
#X obj 325 350 r orbitScaler;
#X msg 213 375 24000;
#X msg 277 377 1000;
#X obj 293 469 loadbang;
#X obj 292 529 *;
#X obj 372 530 *;
#X obj 404 494 t b f;
#X floatatom 324 528 5 0 0 0 - - -;
#X floatatom 403 529 5 0 0 0 - - -;
#X obj 404 467 r orbitScaler;
#X msg 292 492 26000;
#X msg 356 494 1000;
#X connect 2 0 5 0;
#X connect 2 0 6 0;
#X connect 5 0 9 0;
#X connect 6 0 10 0;
#X connect 7 0 8 0;
#X connect 8 0 6 1;
#X connect 8 0 5 1;
#X connect 11 0 5 0;
#X connect 11 1 6 0;
#X connect 12 0 5 0;
#X connect 12 1 6 0;
#X connect 13 0 5 0;
#X connect 13 1 6 0;
#X connect 14 0 5 0;
#X connect 14 1 6 0;
#X connect 15 0 21 0;
#X connect 15 0 23 0;
#X connect 16 0 19 0;
#X connect 16 0 12 0;
#X connect 17 0 20 0;
#X connect 17 0 12 1;
#X connect 18 0 17 0;
#X connect 18 0 16 0;
#X connect 18 1 17 1;
#X connect 18 1 16 1;
#X connect 21 0 16 0;
#X connect 22 0 18 0;
#X connect 23 0 17 0;
#X connect 24 0 31 0;
#X connect 24 0 32 0;
#X connect 25 0 28 0;
#X connect 25 0 11 0;
#X connect 26 0 29 0;
#X connect 26 0 11 1;
#X connect 27 0 26 0;
#X connect 27 0 25 0;
#X connect 27 1 26 1;
#X connect 27 1 25 1;
#X connect 30 0 27 0;
#X connect 31 0 25 0;
#X connect 32 0 26 0;
#X connect 33 0 40 0;
#X connect 33 0 41 0;
#X connect 34 0 37 0;
#X connect 34 0 13 0;
#X connect 35 0 38 0;
#X connect 35 0 13 1;
#X connect 36 0 35 0;
#X connect 36 0 34 0;
#X connect 36 1 35 1;
#X connect 36 1 34 1;
#X connect 39 0 36 0;
#X connect 40 0 34 0;
#X connect 41 0 35 0;
#X connect 42 0 49 0;
#X connect 42 0 50 0;
#X connect 43 0 46 0;
#X connect 43 0 14 0;
#X connect 44 0 47 0;
#X connect 44 0 14 1;
#X connect 45 0 44 0;
#X connect 45 0 43 0;
#X connect 45 1 44 1;
#X connect 45 1 43 1;
#X connect 48 0 45 0;
#X connect 49 0 43 0;
#X connect 50 0 44 0;
