#N canvas 530 25 910 847 12;
#X obj 681 23 loadbang;
#X obj 681 49 s rndmz;
#X obj 636 23 bng 15 250 50 0 empty empty empty 17 7 0 10 -262144 -1
-1;
#X obj 618 68 tgl 15 0 empty empty empty 17 7 0 10 -262144 -1 -1 1
1;
#X obj 618 94 s tgl;
#X text 227 147 There are four patches for frequency selection (each
with their own probability distribution: lower frequencies are more
likely than higher).;
#X msg 73 60 \; pd dsp \$1;
#X obj 73 32 tgl 15 0 empty empty empty 17 7 0 10 -262144 -1 -1 0 1
;
#N canvas 0 50 450 498 LowDrone 0;
#X floatatom 133 157 5 0 0 0 - - -;
#N canvas 0 50 450 355 triangle 0;
#X obj 143 24 inlet;
#X obj 330 249 outlet~;
#X obj 143 125 phasor~;
#X obj 143 177 -~ 1;
#X obj 143 203 clip~ 0 1;
#X obj 143 151 *~ 2;
#X obj 235 125 phasor~;
#X obj 235 177 -~ 1;
#X obj 235 203 clip~ 0 1;
#X obj 235 151 *~ 2;
#X obj 177 74 * -1;
#X obj 182 276 +~;
#X msg 281 80 2;
#X connect 0 0 2 0;
#X connect 0 0 10 0;
#X connect 2 0 5 0;
#X connect 3 0 4 0;
#X connect 4 0 11 0;
#X connect 5 0 3 0;
#X connect 6 0 9 0;
#X connect 7 0 8 0;
#X connect 8 0 11 1;
#X connect 9 0 7 0;
#X connect 10 0 6 0;
#X connect 11 0 1 0;
#X connect 12 0 6 1;
#X connect 12 0 2 1;
#X restore 133 193 pd triangle;
#X floatatom 39 157 5 0 0 0 - - -;
#N canvas 0 50 450 355 triangle 0;
#X obj 143 24 inlet;
#X obj 330 249 outlet~;
#X obj 143 125 phasor~;
#X obj 143 177 -~ 1;
#X obj 143 203 clip~ 0 1;
#X obj 143 151 *~ 2;
#X obj 235 125 phasor~;
#X obj 235 177 -~ 1;
#X obj 235 203 clip~ 0 1;
#X obj 235 151 *~ 2;
#X obj 177 74 * -1;
#X obj 182 276 +~;
#X msg 281 80 2;
#X connect 0 0 2 0;
#X connect 0 0 10 0;
#X connect 2 0 5 0;
#X connect 3 0 4 0;
#X connect 4 0 11 0;
#X connect 5 0 3 0;
#X connect 6 0 9 0;
#X connect 7 0 8 0;
#X connect 8 0 11 1;
#X connect 9 0 7 0;
#X connect 10 0 6 0;
#X connect 11 0 1 0;
#X connect 12 0 6 1;
#X connect 12 0 2 1;
#X restore 39 193 pd triangle;
#X floatatom 227 157 5 0 0 0 - - -;
#N canvas 0 50 450 355 triangle 0;
#X obj 143 24 inlet;
#X obj 330 249 outlet~;
#X obj 143 125 phasor~;
#X obj 143 177 -~ 1;
#X obj 143 203 clip~ 0 1;
#X obj 143 151 *~ 2;
#X obj 235 125 phasor~;
#X obj 235 177 -~ 1;
#X obj 235 203 clip~ 0 1;
#X obj 235 151 *~ 2;
#X obj 177 74 * -1;
#X obj 182 276 +~;
#X msg 281 80 2;
#X connect 0 0 2 0;
#X connect 0 0 10 0;
#X connect 2 0 5 0;
#X connect 3 0 4 0;
#X connect 4 0 11 0;
#X connect 5 0 3 0;
#X connect 6 0 9 0;
#X connect 7 0 8 0;
#X connect 8 0 11 1;
#X connect 9 0 7 0;
#X connect 10 0 6 0;
#X connect 11 0 1 0;
#X connect 12 0 6 1;
#X connect 12 0 2 1;
#X restore 227 193 pd triangle;
#X floatatom 324 156 5 0 0 0 - - -;
#N canvas 0 50 450 355 triangle 0;
#X obj 143 24 inlet;
#X obj 330 249 outlet~;
#X obj 143 125 phasor~;
#X obj 143 177 -~ 1;
#X obj 143 203 clip~ 0 1;
#X obj 143 151 *~ 2;
#X obj 235 125 phasor~;
#X obj 235 177 -~ 1;
#X obj 235 203 clip~ 0 1;
#X obj 235 151 *~ 2;
#X obj 177 74 * -1;
#X obj 182 276 +~;
#X msg 281 80 2;
#X connect 0 0 2 0;
#X connect 0 0 10 0;
#X connect 2 0 5 0;
#X connect 3 0 4 0;
#X connect 4 0 11 0;
#X connect 5 0 3 0;
#X connect 6 0 9 0;
#X connect 7 0 8 0;
#X connect 8 0 11 1;
#X connect 9 0 7 0;
#X connect 10 0 6 0;
#X connect 11 0 1 0;
#X connect 12 0 6 1;
#X connect 12 0 2 1;
#X restore 324 192 pd triangle;
#X obj 182 356 outlet~;
#X text 20 34 Frequencies: 80 \, 80.5 \, 120 \, 121;
#X obj 274 45 loadbang;
#X msg 39 118 80;
#X msg 133 116 80.5;
#X msg 227 113 120;
#X msg 324 111 121;
#X obj 181 309 *~ 0.2;
#X connect 0 0 1 0;
#X connect 1 0 15 0;
#X connect 2 0 3 0;
#X connect 3 0 15 0;
#X connect 4 0 5 0;
#X connect 5 0 15 0;
#X connect 6 0 7 0;
#X connect 7 0 15 0;
#X connect 10 0 14 0;
#X connect 10 0 13 0;
#X connect 10 0 12 0;
#X connect 10 0 11 0;
#X connect 11 0 2 0;
#X connect 12 0 0 0;
#X connect 13 0 4 0;
#X connect 14 0 6 0;
#X connect 15 0 8 0;
#X restore 204 294 pd LowDrone;
#N canvas -9 -9 1920 976 durations1 0;
#X obj 431 124 metro 10000;
#X obj 431 158 bng 15 250 50 0 empty empty empty 17 7 0 10 -262144
-1 -1;
#X floatatom 168 346 5 0 0 0 - - -;
#X obj 168 444 lop~ 6000;
#X obj 169 520 *~;
#X obj 316 463 line 0 3;
#X floatatom 316 489 5 0 0 0 - - -;
#X floatatom 526 83 5 0 0 0 - - -;
#X obj 431 92 r tgl;
#X obj 526 14 r rndmz;
#X obj 168 418 osc~;
#X obj 168 308 r note1;
#X msg 316 413 0.1 700;
#X msg 463 411 0 700;
#X floatatom 539 356 5 0 0 0 - - -;
#X floatatom 540 232 5 0 0 0 - - -;
#N canvas 34 159 450 452 div 0;
#X obj 189 236 outlet;
#X obj 189 17 inlet length;
#X obj 189 181 / 2;
#X connect 1 0 2 0;
#X connect 2 0 0 0;
#X restore 526 203 pd div;
#X obj 463 374 delay;
#X obj 316 376 delay;
#X text 577 82 Duration of the loop;
#X obj 526 328 + 200;
#X obj 170 554 outlet~;
#X floatatom 16 97 5 0 0 0 - - -;
#X obj 16 154 bng 15 250 50 0 empty empty empty 17 7 0 10 -262144 -1
-1;
#X obj 120 154 bng 15 250 50 0 empty empty empty 17 7 0 10 -262144
-1 -1;
#X obj 224 154 bng 15 250 50 0 empty empty empty 17 7 0 10 -262144
-1 -1;
#N canvas -22 -11 742 976 rchfr82 0;
#X floatatom 137 144 5 0 0 0 - - -;
#X obj 137 225 bng 15 250 50 0 empty empty empty 17 7 0 10 -262144
-1 -1;
#X obj 321 225 bng 15 250 50 0 empty empty empty 17 7 0 10 -262144
-1 -1;
#X obj 137 26 inlet;
#X obj 215 412 outlet;
#X obj 137 84 random 2;
#X obj 137 112 % 2;
#X obj 137 170 select 0 1, f 53;
#N canvas -34 6 1106 976 rchfr8 0;
#X floatatom 137 144 5 0 0 0 - - -;
#X obj 137 225 bng 15 250 50 0 empty empty empty 17 7 0 10 -262144
-1 -1;
#X obj 250 225 bng 15 250 50 0 empty empty empty 17 7 0 10 -262144
-1 -1;
#X obj 137 112 % 8;
#X obj 137 170 select 0 1 2 3 4 5 6 7, f 130;
#X obj 363 225 bng 15 250 50 0 empty empty empty 17 7 0 10 -262144
-1 -1;
#X obj 477 225 bng 15 250 50 0 empty empty empty 17 7 0 10 -262144
-1 -1;
#X obj 590 225 bng 15 250 50 0 empty empty empty 17 7 0 10 -262144
-1 -1;
#X obj 703 225 bng 15 250 50 0 empty empty empty 17 7 0 10 -262144
-1 -1;
#X obj 817 225 bng 15 250 50 0 empty empty empty 17 7 0 10 -262144
-1 -1;
#X obj 930 225 bng 15 250 50 0 empty empty empty 17 7 0 10 -262144
-1 -1;
#X obj 137 84 random 8;
#X obj 137 26 inlet;
#X obj 525 445 outlet;
#X text 246 564 90 \, 175 \, 282 \, 296 \, 307 \, 405 \, 496 \, 510
;
#X msg 137 283 90;
#X msg 250 283 175;
#X msg 363 285 282;
#X msg 477 284 296;
#X msg 590 284 307;
#X msg 703 284 405;
#X msg 817 283 496;
#X msg 930 281 510;
#X connect 0 0 4 0;
#X connect 1 0 15 0;
#X connect 2 0 16 0;
#X connect 3 0 0 0;
#X connect 4 0 1 0;
#X connect 4 1 2 0;
#X connect 4 2 5 0;
#X connect 4 3 6 0;
#X connect 4 4 7 0;
#X connect 4 5 8 0;
#X connect 4 6 9 0;
#X connect 4 7 10 0;
#X connect 5 0 17 0;
#X connect 6 0 18 0;
#X connect 7 0 19 0;
#X connect 8 0 20 0;
#X connect 9 0 21 0;
#X connect 10 0 22 0;
#X connect 11 0 3 0;
#X connect 12 0 11 0;
#X connect 15 0 13 0;
#X connect 16 0 13 0;
#X connect 17 0 13 0;
#X connect 18 0 13 0;
#X connect 19 0 13 0;
#X connect 20 0 13 0;
#X connect 21 0 13 0;
#X connect 22 0 13 0;
#X restore 137 284 pd rchfr8;
#N canvas -29 -9 1109 976 rchfr8 0;
#X floatatom 137 144 5 0 0 0 - - -;
#X obj 137 225 bng 15 250 50 0 empty empty empty 17 7 0 10 -262144
-1 -1;
#X obj 250 225 bng 15 250 50 0 empty empty empty 17 7 0 10 -262144
-1 -1;
#X obj 137 112 % 8;
#X obj 137 170 select 0 1 2 3 4 5 6 7, f 130;
#X obj 363 225 bng 15 250 50 0 empty empty empty 17 7 0 10 -262144
-1 -1;
#X obj 477 225 bng 15 250 50 0 empty empty empty 17 7 0 10 -262144
-1 -1;
#X obj 590 225 bng 15 250 50 0 empty empty empty 17 7 0 10 -262144
-1 -1;
#X obj 703 225 bng 15 250 50 0 empty empty empty 17 7 0 10 -262144
-1 -1;
#X obj 817 225 bng 15 250 50 0 empty empty empty 17 7 0 10 -262144
-1 -1;
#X obj 930 225 bng 15 250 50 0 empty empty empty 17 7 0 10 -262144
-1 -1;
#X obj 137 84 random 8;
#X obj 137 26 inlet;
#X obj 525 445 outlet;
#X text 210 562 556 \, 574 \, 653 \, 700 \, 810 \, 830 \, 867 \, 926
\,;
#X msg 137 283 556;
#X msg 250 283 574;
#X msg 363 285 653;
#X msg 477 284 700;
#X msg 590 284 810;
#X msg 703 284 830;
#X msg 817 283 867;
#X msg 930 281 926;
#X connect 0 0 4 0;
#X connect 1 0 15 0;
#X connect 2 0 16 0;
#X connect 3 0 0 0;
#X connect 4 0 1 0;
#X connect 4 1 2 0;
#X connect 4 2 5 0;
#X connect 4 3 6 0;
#X connect 4 4 7 0;
#X connect 4 5 8 0;
#X connect 4 6 9 0;
#X connect 4 7 10 0;
#X connect 5 0 17 0;
#X connect 6 0 18 0;
#X connect 7 0 19 0;
#X connect 8 0 20 0;
#X connect 9 0 21 0;
#X connect 10 0 22 0;
#X connect 11 0 3 0;
#X connect 12 0 11 0;
#X connect 15 0 13 0;
#X connect 16 0 13 0;
#X connect 17 0 13 0;
#X connect 18 0 13 0;
#X connect 19 0 13 0;
#X connect 20 0 13 0;
#X connect 21 0 13 0;
#X connect 22 0 13 0;
#X restore 321 284 pd rchfr8;
#X connect 0 0 7 0;
#X connect 1 0 8 0;
#X connect 2 0 9 0;
#X connect 3 0 5 0;
#X connect 5 0 6 0;
#X connect 6 0 0 0;
#X connect 7 0 1 0;
#X connect 7 1 2 0;
#X connect 8 0 4 0;
#X connect 9 0 4 0;
#X restore 16 176 pd rchfr82;
#N canvas -22 -11 742 976 rchfr82 0;
#X floatatom 137 144 5 0 0 0 - - -;
#X obj 137 225 bng 15 250 50 0 empty empty empty 17 7 0 10 -262144
-1 -1;
#X obj 321 225 bng 15 250 50 0 empty empty empty 17 7 0 10 -262144
-1 -1;
#X obj 137 26 inlet;
#X obj 215 412 outlet;
#X obj 137 84 random 2;
#X obj 137 112 % 2;
#X obj 137 170 select 0 1, f 53;
#N canvas -34 6 1106 976 rchfr8 0;
#X floatatom 137 144 5 0 0 0 - - -;
#X obj 137 225 bng 15 250 50 0 empty empty empty 17 7 0 10 -262144
-1 -1;
#X obj 250 225 bng 15 250 50 0 empty empty empty 17 7 0 10 -262144
-1 -1;
#X obj 137 112 % 8;
#X obj 137 170 select 0 1 2 3 4 5 6 7, f 130;
#X obj 363 225 bng 15 250 50 0 empty empty empty 17 7 0 10 -262144
-1 -1;
#X obj 477 225 bng 15 250 50 0 empty empty empty 17 7 0 10 -262144
-1 -1;
#X obj 590 225 bng 15 250 50 0 empty empty empty 17 7 0 10 -262144
-1 -1;
#X obj 703 225 bng 15 250 50 0 empty empty empty 17 7 0 10 -262144
-1 -1;
#X obj 817 225 bng 15 250 50 0 empty empty empty 17 7 0 10 -262144
-1 -1;
#X obj 930 225 bng 15 250 50 0 empty empty empty 17 7 0 10 -262144
-1 -1;
#X obj 137 84 random 8;
#X obj 137 26 inlet;
#X obj 525 445 outlet;
#X msg 137 283 90;
#X msg 250 283 175;
#X msg 363 285 282;
#X msg 477 284 296;
#X msg 590 284 307;
#X msg 703 284 405;
#X msg 817 283 496;
#X msg 930 281 510;
#X text 316 535 90 \, 175 \, 282 \, 296 \, 307 \, 405 \, 496 \, 510
\, 556 \, 574 \, 653 \, 700 \, 810 \, 830 \, 867 \, 926 \, 1026 \,
1084 \, 1105 \, 1175 \, 1348 \, 1388 \, 1428 \, 1470 \, 1699 \, 1745
\, 1767 \, 1803 \, 1864 \, 1901 \, 2100 \, 2156 \, 2163 \, 2241 \,
2278 \, 2372 \, 2474 \, 2537 \, 2545 \, 2590 \, 2610 \, 2749 \, 3128
\, 3166 \, 3188 \, 3204 \, 3208 \, 3265 \, 3299 \, 3680 \, 3778 \,
3784 \, 3870 \, 3918 \, 4011 \, 4015 \, 4090 \, 4585 \, 4670 \, 4834
\, 5003 \, 5511 \, 5700;
#X connect 0 0 4 0;
#X connect 1 0 14 0;
#X connect 2 0 15 0;
#X connect 3 0 0 0;
#X connect 4 0 1 0;
#X connect 4 1 2 0;
#X connect 4 2 5 0;
#X connect 4 3 6 0;
#X connect 4 4 7 0;
#X connect 4 5 8 0;
#X connect 4 6 9 0;
#X connect 4 7 10 0;
#X connect 5 0 16 0;
#X connect 6 0 17 0;
#X connect 7 0 18 0;
#X connect 8 0 19 0;
#X connect 9 0 20 0;
#X connect 10 0 21 0;
#X connect 11 0 3 0;
#X connect 12 0 11 0;
#X connect 14 0 13 0;
#X connect 15 0 13 0;
#X connect 16 0 13 0;
#X connect 17 0 13 0;
#X connect 18 0 13 0;
#X connect 19 0 13 0;
#X connect 20 0 13 0;
#X connect 21 0 13 0;
#X restore 137 284 pd rchfr8;
#N canvas -29 -9 1109 976 rchfr8 0;
#X floatatom 137 144 5 0 0 0 - - -;
#X obj 137 225 bng 15 250 50 0 empty empty empty 17 7 0 10 -262144
-1 -1;
#X obj 250 225 bng 15 250 50 0 empty empty empty 17 7 0 10 -262144
-1 -1;
#X obj 137 112 % 8;
#X obj 137 170 select 0 1 2 3 4 5 6 7, f 130;
#X obj 363 225 bng 15 250 50 0 empty empty empty 17 7 0 10 -262144
-1 -1;
#X obj 477 225 bng 15 250 50 0 empty empty empty 17 7 0 10 -262144
-1 -1;
#X obj 590 225 bng 15 250 50 0 empty empty empty 17 7 0 10 -262144
-1 -1;
#X obj 703 225 bng 15 250 50 0 empty empty empty 17 7 0 10 -262144
-1 -1;
#X obj 817 225 bng 15 250 50 0 empty empty empty 17 7 0 10 -262144
-1 -1;
#X obj 930 225 bng 15 250 50 0 empty empty empty 17 7 0 10 -262144
-1 -1;
#X obj 137 84 random 8;
#X obj 137 26 inlet;
#X obj 525 445 outlet;
#X msg 137 283 556;
#X msg 250 283 574;
#X msg 363 285 653;
#X msg 477 284 700;
#X msg 590 284 810;
#X msg 703 284 830;
#X msg 817 283 867;
#X msg 930 281 926;
#X text 206 505 90 \, 175 \, 282 \, 296 \, 307 \, 405 \, 496 \, 510
\, 556 \, 574 \, 653 \, 700 \, 810 \, 830 \, 867 \, 926 \, 1026 \,
1084 \, 1105 \, 1175 \, 1348 \, 1388 \, 1428 \, 1470 \, 1699 \, 1745
\, 1767 \, 1803 \, 1864 \, 1901 \, 2100 \, 2156 \, 2163 \, 2241 \,
2278 \, 2372 \, 2474 \, 2537 \, 2545 \, 2590 \, 2610 \, 2749 \, 3128
\, 3166 \, 3188 \, 3204 \, 3208 \, 3265 \, 3299 \, 3680 \, 3778 \,
3784 \, 3870 \, 3918 \, 4011 \, 4015 \, 4090 \, 4585 \, 4670 \, 4834
\, 5003 \, 5511 \, 5700;
#X connect 0 0 4 0;
#X connect 1 0 14 0;
#X connect 2 0 15 0;
#X connect 3 0 0 0;
#X connect 4 0 1 0;
#X connect 4 1 2 0;
#X connect 4 2 5 0;
#X connect 4 3 6 0;
#X connect 4 4 7 0;
#X connect 4 5 8 0;
#X connect 4 6 9 0;
#X connect 4 7 10 0;
#X connect 5 0 16 0;
#X connect 6 0 17 0;
#X connect 7 0 18 0;
#X connect 8 0 19 0;
#X connect 9 0 20 0;
#X connect 10 0 21 0;
#X connect 11 0 3 0;
#X connect 12 0 11 0;
#X connect 14 0 13 0;
#X connect 15 0 13 0;
#X connect 16 0 13 0;
#X connect 17 0 13 0;
#X connect 18 0 13 0;
#X connect 19 0 13 0;
#X connect 20 0 13 0;
#X connect 21 0 13 0;
#X restore 321 284 pd rchfr8;
#X connect 0 0 7 0;
#X connect 1 0 8 0;
#X connect 2 0 9 0;
#X connect 3 0 5 0;
#X connect 5 0 6 0;
#X connect 6 0 0 0;
#X connect 7 0 1 0;
#X connect 7 1 2 0;
#X connect 8 0 4 0;
#X connect 9 0 4 0;
#X restore 120 176 pd rchfr82;
#N canvas 72 208 742 976 rchfr82 0;
#X floatatom 137 144 5 0 0 0 - - -;
#X obj 137 225 bng 15 250 50 0 empty empty empty 17 7 0 10 -262144
-1 -1;
#X obj 321 225 bng 15 250 50 0 empty empty empty 17 7 0 10 -262144
-1 -1;
#X obj 137 26 inlet;
#X obj 215 412 outlet;
#X obj 137 84 random 2;
#X obj 137 112 % 2;
#X obj 137 170 select 0 1, f 53;
#N canvas -34 6 1106 976 rchfr8 0;
#X floatatom 137 144 5 0 0 0 - - -;
#X obj 137 225 bng 15 250 50 0 empty empty empty 17 7 0 10 -262144
-1 -1;
#X obj 250 225 bng 15 250 50 0 empty empty empty 17 7 0 10 -262144
-1 -1;
#X obj 137 112 % 8;
#X obj 137 170 select 0 1 2 3 4 5 6 7, f 130;
#X obj 363 225 bng 15 250 50 0 empty empty empty 17 7 0 10 -262144
-1 -1;
#X obj 477 225 bng 15 250 50 0 empty empty empty 17 7 0 10 -262144
-1 -1;
#X obj 590 225 bng 15 250 50 0 empty empty empty 17 7 0 10 -262144
-1 -1;
#X obj 703 225 bng 15 250 50 0 empty empty empty 17 7 0 10 -262144
-1 -1;
#X obj 817 225 bng 15 250 50 0 empty empty empty 17 7 0 10 -262144
-1 -1;
#X obj 930 225 bng 15 250 50 0 empty empty empty 17 7 0 10 -262144
-1 -1;
#X obj 137 84 random 8;
#X obj 137 26 inlet;
#X obj 525 445 outlet;
#X msg 137 283 90;
#X msg 250 283 175;
#X msg 363 285 282;
#X msg 477 284 296;
#X msg 590 284 307;
#X msg 703 284 405;
#X msg 817 283 496;
#X msg 930 281 510;
#X text 120 534 90 \, 175 \, 282 \, 296 \, 307 \, 405 \, 496 \, 510
\, 556 \, 574 \, 653 \, 700 \, 810 \, 830 \, 867 \, 926 \, 1026 \,
1084 \, 1105 \, 1175 \, 1348 \, 1388 \, 1428 \, 1470 \, 1699 \, 1745
\, 1767 \, 1803 \, 1864 \, 1901 \, 2100 \, 2156 \, 2163 \, 2241 \,
2278 \, 2372 \, 2474 \, 2537 \, 2545 \, 2590 \, 2610 \, 2749 \, 3128
\, 3166 \, 3188 \, 3204 \, 3208 \, 3265 \, 3299 \, 3680 \, 3778 \,
3784 \, 3870 \, 3918 \, 4011 \, 4015 \, 4090 \, 4585 \, 4670 \, 4834
\, 5003 \, 5511 \, 5700;
#X connect 0 0 4 0;
#X connect 1 0 14 0;
#X connect 2 0 15 0;
#X connect 3 0 0 0;
#X connect 4 0 1 0;
#X connect 4 1 2 0;
#X connect 4 2 5 0;
#X connect 4 3 6 0;
#X connect 4 4 7 0;
#X connect 4 5 8 0;
#X connect 4 6 9 0;
#X connect 4 7 10 0;
#X connect 5 0 16 0;
#X connect 6 0 17 0;
#X connect 7 0 18 0;
#X connect 8 0 19 0;
#X connect 9 0 20 0;
#X connect 10 0 21 0;
#X connect 11 0 3 0;
#X connect 12 0 11 0;
#X connect 14 0 13 0;
#X connect 15 0 13 0;
#X connect 16 0 13 0;
#X connect 17 0 13 0;
#X connect 18 0 13 0;
#X connect 19 0 13 0;
#X connect 20 0 13 0;
#X connect 21 0 13 0;
#X restore 137 284 pd rchfr8;
#N canvas -29 -9 1109 976 rchfr8 0;
#X floatatom 137 144 5 0 0 0 - - -;
#X obj 137 225 bng 15 250 50 0 empty empty empty 17 7 0 10 -262144
-1 -1;
#X obj 250 225 bng 15 250 50 0 empty empty empty 17 7 0 10 -262144
-1 -1;
#X obj 137 112 % 8;
#X obj 137 170 select 0 1 2 3 4 5 6 7, f 130;
#X obj 363 225 bng 15 250 50 0 empty empty empty 17 7 0 10 -262144
-1 -1;
#X obj 477 225 bng 15 250 50 0 empty empty empty 17 7 0 10 -262144
-1 -1;
#X obj 590 225 bng 15 250 50 0 empty empty empty 17 7 0 10 -262144
-1 -1;
#X obj 703 225 bng 15 250 50 0 empty empty empty 17 7 0 10 -262144
-1 -1;
#X obj 817 225 bng 15 250 50 0 empty empty empty 17 7 0 10 -262144
-1 -1;
#X obj 930 225 bng 15 250 50 0 empty empty empty 17 7 0 10 -262144
-1 -1;
#X obj 137 84 random 8;
#X obj 137 26 inlet;
#X obj 525 445 outlet;
#X msg 137 283 556;
#X msg 250 283 574;
#X msg 363 285 653;
#X msg 477 284 700;
#X msg 590 284 810;
#X msg 703 284 830;
#X msg 817 283 867;
#X msg 930 281 926;
#X text 143 533 90 \, 175 \, 282 \, 296 \, 307 \, 405 \, 496 \, 510
\, 556 \, 574 \, 653 \, 700 \, 810 \, 830 \, 867 \, 926 \, 1026 \,
1084 \, 1105 \, 1175 \, 1348 \, 1388 \, 1428 \, 1470 \, 1699 \, 1745
\, 1767 \, 1803 \, 1864 \, 1901 \, 2100 \, 2156 \, 2163 \, 2241 \,
2278 \, 2372 \, 2474 \, 2537 \, 2545 \, 2590 \, 2610 \, 2749 \, 3128
\, 3166 \, 3188 \, 3204 \, 3208 \, 3265 \, 3299 \, 3680 \, 3778 \,
3784 \, 3870 \, 3918 \, 4011 \, 4015 \, 4090 \, 4585 \, 4670 \, 4834
\, 5003 \, 5511 \, 5700;
#X connect 0 0 4 0;
#X connect 1 0 14 0;
#X connect 2 0 15 0;
#X connect 3 0 0 0;
#X connect 4 0 1 0;
#X connect 4 1 2 0;
#X connect 4 2 5 0;
#X connect 4 3 6 0;
#X connect 4 4 7 0;
#X connect 4 5 8 0;
#X connect 4 6 9 0;
#X connect 4 7 10 0;
#X connect 5 0 16 0;
#X connect 6 0 17 0;
#X connect 7 0 18 0;
#X connect 8 0 19 0;
#X connect 9 0 20 0;
#X connect 10 0 21 0;
#X connect 11 0 3 0;
#X connect 12 0 11 0;
#X connect 14 0 13 0;
#X connect 15 0 13 0;
#X connect 16 0 13 0;
#X connect 17 0 13 0;
#X connect 18 0 13 0;
#X connect 19 0 13 0;
#X connect 20 0 13 0;
#X connect 21 0 13 0;
#X restore 321 284 pd rchfr8;
#X connect 0 0 7 0;
#X connect 1 0 8 0;
#X connect 2 0 9 0;
#X connect 3 0 5 0;
#X connect 5 0 6 0;
#X connect 6 0 0 0;
#X connect 7 0 1 0;
#X connect 7 1 2 0;
#X connect 8 0 4 0;
#X connect 9 0 4 0;
#X restore 224 178 pd rchfr82;
#X obj 16 202 s note1;
#X obj 224 203 s note1;
#X obj 120 202 s note1;
#X obj 16 37 random 3;
#X obj 16 65 % 3;
#X obj 16 123 select 0 1 2, f 45;
#X obj 431 182 s bng1;
#X obj 16 8 r bng1;
#X obj 316 339 r bng1;
#X obj 463 337 r bng1;
#X text 593 331 This determines the duration of the sound (although
in this version all sounds are 200 ms long);
#X obj 526 36 random 15000;
#X obj 526 58 + 5000;
#X connect 0 0 1 0;
#X connect 1 0 35 0;
#X connect 2 0 10 0;
#X connect 3 0 4 0;
#X connect 4 0 21 0;
#X connect 5 0 6 0;
#X connect 6 0 4 1;
#X connect 7 0 0 1;
#X connect 7 0 16 0;
#X connect 8 0 0 0;
#X connect 9 0 40 0;
#X connect 10 0 3 0;
#X connect 11 0 2 0;
#X connect 12 0 5 0;
#X connect 13 0 5 0;
#X connect 16 0 15 0;
#X connect 16 0 18 1;
#X connect 16 0 20 0;
#X connect 17 0 13 0;
#X connect 18 0 12 0;
#X connect 20 0 17 1;
#X connect 20 0 14 0;
#X connect 22 0 34 0;
#X connect 23 0 26 0;
#X connect 24 0 27 0;
#X connect 25 0 28 0;
#X connect 26 0 29 0;
#X connect 27 0 31 0;
#X connect 28 0 30 0;
#X connect 32 0 33 0;
#X connect 33 0 22 0;
#X connect 34 0 23 0;
#X connect 34 1 24 0;
#X connect 34 2 25 0;
#X connect 36 0 32 0;
#X connect 37 0 18 0;
#X connect 38 0 17 0;
#X connect 40 0 41 0;
#X connect 41 0 7 0;
#X restore 314 239 pd durations1;
#N canvas 721 103 604 707 durations2 0;
#X obj 287 164 metro 10000;
#X obj 287 198 bng 15 250 50 0 empty empty empty 17 7 0 10 -262144
-1 -1;
#X floatatom 24 486 5 0 0 0 - - -;
#X obj 24 544 lop~ 6000;
#X obj 25 588 *~;
#X obj 172 531 line 0 3;
#X floatatom 172 557 5 0 0 0 - - -;
#X floatatom 382 123 5 0 0 0 - - -;
#X obj 287 132 r tgl;
#X obj 382 54 r rndmz;
#X obj 24 518 osc~;
#X msg 172 481 0.1 700;
#X msg 319 479 0 700;
#X floatatom 395 424 5 0 0 0 - - -;
#X floatatom 396 272 5 0 0 0 - - -;
#N canvas 34 159 450 452 div 0;
#X obj 189 236 outlet;
#X obj 189 17 inlet length;
#X obj 189 181 / 2;
#X connect 1 0 2 0;
#X connect 2 0 0 0;
#X restore 382 243 pd div;
#X obj 319 442 delay;
#X obj 172 444 delay;
#X text 433 122 Duration of the loop;
#X obj 382 396 + 200;
#X obj 26 622 outlet~;
#X obj 20 216 bng 15 250 50 0 empty empty empty 17 7 0 10 -262144 -1
-1;
#X obj 106 216 bng 15 250 50 0 empty empty empty 17 7 0 10 -262144
-1 -1;
#N canvas -22 -11 742 976 rchfr82 0;
#X floatatom 137 144 5 0 0 0 - - -;
#X obj 137 225 bng 15 250 50 0 empty empty empty 17 7 0 10 -262144
-1 -1;
#X obj 321 225 bng 15 250 50 0 empty empty empty 17 7 0 10 -262144
-1 -1;
#X obj 137 26 inlet;
#X obj 215 412 outlet;
#X obj 137 84 random 2;
#X obj 137 112 % 2;
#X obj 137 170 select 0 1, f 53;
#N canvas -34 6 1106 976 rchfr8 0;
#X floatatom 137 144 5 0 0 0 - - -;
#X obj 137 225 bng 15 250 50 0 empty empty empty 17 7 0 10 -262144
-1 -1;
#X obj 250 225 bng 15 250 50 0 empty empty empty 17 7 0 10 -262144
-1 -1;
#X obj 137 112 % 8;
#X obj 137 170 select 0 1 2 3 4 5 6 7, f 130;
#X obj 363 225 bng 15 250 50 0 empty empty empty 17 7 0 10 -262144
-1 -1;
#X obj 477 225 bng 15 250 50 0 empty empty empty 17 7 0 10 -262144
-1 -1;
#X obj 590 225 bng 15 250 50 0 empty empty empty 17 7 0 10 -262144
-1 -1;
#X obj 703 225 bng 15 250 50 0 empty empty empty 17 7 0 10 -262144
-1 -1;
#X obj 817 225 bng 15 250 50 0 empty empty empty 17 7 0 10 -262144
-1 -1;
#X obj 930 225 bng 15 250 50 0 empty empty empty 17 7 0 10 -262144
-1 -1;
#X obj 137 84 random 8;
#X obj 137 26 inlet;
#X obj 525 445 outlet;
#X msg 137 283 1026;
#X msg 250 283 1084;
#X msg 363 285 1105;
#X msg 477 284 1175;
#X msg 590 284 1348;
#X msg 703 284 1388;
#X msg 817 283 1428;
#X msg 930 281 1470;
#X connect 0 0 4 0;
#X connect 1 0 14 0;
#X connect 2 0 15 0;
#X connect 3 0 0 0;
#X connect 4 0 1 0;
#X connect 4 1 2 0;
#X connect 4 2 5 0;
#X connect 4 3 6 0;
#X connect 4 4 7 0;
#X connect 4 5 8 0;
#X connect 4 6 9 0;
#X connect 4 7 10 0;
#X connect 5 0 16 0;
#X connect 6 0 17 0;
#X connect 7 0 18 0;
#X connect 8 0 19 0;
#X connect 9 0 20 0;
#X connect 10 0 21 0;
#X connect 11 0 3 0;
#X connect 12 0 11 0;
#X connect 14 0 13 0;
#X connect 15 0 13 0;
#X connect 16 0 13 0;
#X connect 17 0 13 0;
#X connect 18 0 13 0;
#X connect 19 0 13 0;
#X connect 20 0 13 0;
#X connect 21 0 13 0;
#X restore 137 284 pd rchfr8;
#N canvas -29 -9 1109 976 rchfr8 0;
#X floatatom 137 144 5 0 0 0 - - -;
#X obj 137 225 bng 15 250 50 0 empty empty empty 17 7 0 10 -262144
-1 -1;
#X obj 250 225 bng 15 250 50 0 empty empty empty 17 7 0 10 -262144
-1 -1;
#X obj 137 112 % 8;
#X obj 137 170 select 0 1 2 3 4 5 6 7, f 130;
#X obj 363 225 bng 15 250 50 0 empty empty empty 17 7 0 10 -262144
-1 -1;
#X obj 477 225 bng 15 250 50 0 empty empty empty 17 7 0 10 -262144
-1 -1;
#X obj 590 225 bng 15 250 50 0 empty empty empty 17 7 0 10 -262144
-1 -1;
#X obj 703 225 bng 15 250 50 0 empty empty empty 17 7 0 10 -262144
-1 -1;
#X obj 817 225 bng 15 250 50 0 empty empty empty 17 7 0 10 -262144
-1 -1;
#X obj 930 225 bng 15 250 50 0 empty empty empty 17 7 0 10 -262144
-1 -1;
#X obj 137 84 random 8;
#X obj 137 26 inlet;
#X obj 525 445 outlet;
#X msg 137 283 1699;
#X msg 250 283 1745;
#X msg 363 285 1767;
#X msg 477 284 1803;
#X msg 590 284 1864;
#X msg 703 284 1901;
#X msg 817 283 2100;
#X msg 930 281 2156;
#X connect 0 0 4 0;
#X connect 1 0 14 0;
#X connect 2 0 15 0;
#X connect 3 0 0 0;
#X connect 4 0 1 0;
#X connect 4 1 2 0;
#X connect 4 2 5 0;
#X connect 4 3 6 0;
#X connect 4 4 7 0;
#X connect 4 5 8 0;
#X connect 4 6 9 0;
#X connect 4 7 10 0;
#X connect 5 0 16 0;
#X connect 6 0 17 0;
#X connect 7 0 18 0;
#X connect 8 0 19 0;
#X connect 9 0 20 0;
#X connect 10 0 21 0;
#X connect 11 0 3 0;
#X connect 12 0 11 0;
#X connect 14 0 13 0;
#X connect 15 0 13 0;
#X connect 16 0 13 0;
#X connect 17 0 13 0;
#X connect 18 0 13 0;
#X connect 19 0 13 0;
#X connect 20 0 13 0;
#X connect 21 0 13 0;
#X restore 321 284 pd rchfr8;
#X connect 0 0 7 0;
#X connect 1 0 8 0;
#X connect 2 0 9 0;
#X connect 3 0 5 0;
#X connect 5 0 6 0;
#X connect 6 0 0 0;
#X connect 7 0 1 0;
#X connect 7 1 2 0;
#X connect 8 0 4 0;
#X connect 9 0 4 0;
#X restore 20 241 pd rchfr82;
#N canvas -22 -11 742 976 rchfr82 0;
#X floatatom 137 144 5 0 0 0 - - -;
#X obj 137 225 bng 15 250 50 0 empty empty empty 17 7 0 10 -262144
-1 -1;
#X obj 321 225 bng 15 250 50 0 empty empty empty 17 7 0 10 -262144
-1 -1;
#X obj 137 26 inlet;
#X obj 215 412 outlet;
#X obj 137 84 random 2;
#X obj 137 112 % 2;
#X obj 137 170 select 0 1, f 53;
#N canvas -34 6 1106 976 rchfr8 0;
#X floatatom 137 144 5 0 0 0 - - -;
#X obj 137 225 bng 15 250 50 0 empty empty empty 17 7 0 10 -262144
-1 -1;
#X obj 250 225 bng 15 250 50 0 empty empty empty 17 7 0 10 -262144
-1 -1;
#X obj 137 112 % 8;
#X obj 137 170 select 0 1 2 3 4 5 6 7, f 130;
#X obj 363 225 bng 15 250 50 0 empty empty empty 17 7 0 10 -262144
-1 -1;
#X obj 477 225 bng 15 250 50 0 empty empty empty 17 7 0 10 -262144
-1 -1;
#X obj 590 225 bng 15 250 50 0 empty empty empty 17 7 0 10 -262144
-1 -1;
#X obj 703 225 bng 15 250 50 0 empty empty empty 17 7 0 10 -262144
-1 -1;
#X obj 817 225 bng 15 250 50 0 empty empty empty 17 7 0 10 -262144
-1 -1;
#X obj 930 225 bng 15 250 50 0 empty empty empty 17 7 0 10 -262144
-1 -1;
#X obj 137 84 random 8;
#X obj 137 26 inlet;
#X obj 525 445 outlet;
#X msg 137 283 1026;
#X msg 250 283 1084;
#X msg 363 285 1105;
#X msg 477 284 1175;
#X msg 590 284 1348;
#X msg 703 284 1388;
#X msg 817 283 1428;
#X msg 930 281 1470;
#X connect 0 0 4 0;
#X connect 1 0 14 0;
#X connect 2 0 15 0;
#X connect 3 0 0 0;
#X connect 4 0 1 0;
#X connect 4 1 2 0;
#X connect 4 2 5 0;
#X connect 4 3 6 0;
#X connect 4 4 7 0;
#X connect 4 5 8 0;
#X connect 4 6 9 0;
#X connect 4 7 10 0;
#X connect 5 0 16 0;
#X connect 6 0 17 0;
#X connect 7 0 18 0;
#X connect 8 0 19 0;
#X connect 9 0 20 0;
#X connect 10 0 21 0;
#X connect 11 0 3 0;
#X connect 12 0 11 0;
#X connect 14 0 13 0;
#X connect 15 0 13 0;
#X connect 16 0 13 0;
#X connect 17 0 13 0;
#X connect 18 0 13 0;
#X connect 19 0 13 0;
#X connect 20 0 13 0;
#X connect 21 0 13 0;
#X restore 137 284 pd rchfr8;
#N canvas -29 -9 1109 976 rchfr8 0;
#X floatatom 137 144 5 0 0 0 - - -;
#X obj 137 225 bng 15 250 50 0 empty empty empty 17 7 0 10 -262144
-1 -1;
#X obj 250 225 bng 15 250 50 0 empty empty empty 17 7 0 10 -262144
-1 -1;
#X obj 137 112 % 8;
#X obj 137 170 select 0 1 2 3 4 5 6 7, f 130;
#X obj 363 225 bng 15 250 50 0 empty empty empty 17 7 0 10 -262144
-1 -1;
#X obj 477 225 bng 15 250 50 0 empty empty empty 17 7 0 10 -262144
-1 -1;
#X obj 590 225 bng 15 250 50 0 empty empty empty 17 7 0 10 -262144
-1 -1;
#X obj 703 225 bng 15 250 50 0 empty empty empty 17 7 0 10 -262144
-1 -1;
#X obj 817 225 bng 15 250 50 0 empty empty empty 17 7 0 10 -262144
-1 -1;
#X obj 930 225 bng 15 250 50 0 empty empty empty 17 7 0 10 -262144
-1 -1;
#X obj 137 84 random 8;
#X obj 137 26 inlet;
#X obj 525 445 outlet;
#X msg 137 283 1699;
#X msg 250 283 1745;
#X msg 363 285 1767;
#X msg 477 284 1803;
#X msg 590 284 1864;
#X msg 703 284 1901;
#X msg 817 283 2100;
#X msg 930 281 2156;
#X connect 0 0 4 0;
#X connect 1 0 14 0;
#X connect 2 0 15 0;
#X connect 3 0 0 0;
#X connect 4 0 1 0;
#X connect 4 1 2 0;
#X connect 4 2 5 0;
#X connect 4 3 6 0;
#X connect 4 4 7 0;
#X connect 4 5 8 0;
#X connect 4 6 9 0;
#X connect 4 7 10 0;
#X connect 5 0 16 0;
#X connect 6 0 17 0;
#X connect 7 0 18 0;
#X connect 8 0 19 0;
#X connect 9 0 20 0;
#X connect 10 0 21 0;
#X connect 11 0 3 0;
#X connect 12 0 11 0;
#X connect 14 0 13 0;
#X connect 15 0 13 0;
#X connect 16 0 13 0;
#X connect 17 0 13 0;
#X connect 18 0 13 0;
#X connect 19 0 13 0;
#X connect 20 0 13 0;
#X connect 21 0 13 0;
#X restore 321 284 pd rchfr8;
#X connect 0 0 7 0;
#X connect 1 0 8 0;
#X connect 2 0 9 0;
#X connect 3 0 5 0;
#X connect 5 0 6 0;
#X connect 6 0 0 0;
#X connect 7 0 1 0;
#X connect 7 1 2 0;
#X connect 8 0 4 0;
#X connect 9 0 4 0;
#X restore 106 241 pd rchfr82;
#X obj 20 266 s note2;
#X obj 106 266 s note2;
#X floatatom 20 101 5 0 0 0 - - -;
#X obj 20 41 random 2;
#X obj 20 69 % 2;
#X obj 20 135 select 0 1, f 25;
#X obj 24 448 r note2;
#X obj 287 222 s bng2;
#X obj 20 12 r bng2;
#X obj 172 407 r bng2;
#X obj 319 405 r bng2;
#X text 470 340 This determines the duration of the sound (although
in this version all sounds are 200 ms long);
#X obj 382 76 random 15000;
#X obj 382 98 + 10000;
#X connect 0 0 1 0;
#X connect 1 0 32 0;
#X connect 2 0 10 0;
#X connect 3 0 4 0;
#X connect 4 0 20 0;
#X connect 5 0 6 0;
#X connect 6 0 4 1;
#X connect 7 0 0 1;
#X connect 7 0 15 0;
#X connect 8 0 0 0;
#X connect 9 0 37 0;
#X connect 10 0 3 0;
#X connect 11 0 5 0;
#X connect 12 0 5 0;
#X connect 15 0 14 0;
#X connect 15 0 17 1;
#X connect 15 0 19 0;
#X connect 16 0 12 0;
#X connect 17 0 11 0;
#X connect 19 0 16 1;
#X connect 19 0 13 0;
#X connect 21 0 23 0;
#X connect 22 0 24 0;
#X connect 23 0 25 0;
#X connect 24 0 26 0;
#X connect 27 0 30 0;
#X connect 28 0 29 0;
#X connect 29 0 27 0;
#X connect 30 0 21 0;
#X connect 30 1 22 0;
#X connect 31 0 2 0;
#X connect 33 0 28 0;
#X connect 34 0 17 0;
#X connect 35 0 16 0;
#X connect 37 0 38 0;
#X connect 38 0 7 0;
#X restore 341 267 pd durations2;
#N canvas 8 143 702 729 durations3 0;
#X obj 287 164 metro 10000;
#X obj 287 198 bng 15 250 50 0 empty empty empty 17 7 0 10 -262144
-1 -1;
#X floatatom 24 484 5 0 0 0 - - -;
#X obj 24 548 lop~ 6000;
#X obj 25 588 *~;
#X obj 172 531 line 0 3;
#X floatatom 172 557 5 0 0 0 - - -;
#X floatatom 382 123 5 0 0 0 - - -;
#X obj 287 132 r tgl;
#X obj 382 54 r rndmz;
#X obj 24 522 osc~;
#X msg 172 481 0.1 700;
#X msg 319 479 0 700;
#X floatatom 395 424 5 0 0 0 - - -;
#X floatatom 396 272 5 0 0 0 - - -;
#N canvas 34 159 450 452 div 0;
#X obj 189 236 outlet;
#X obj 189 17 inlet length;
#X obj 189 181 / 2;
#X connect 1 0 2 0;
#X connect 2 0 0 0;
#X restore 382 243 pd div;
#X obj 319 442 delay;
#X obj 172 444 delay;
#X text 433 122 Duration of the loop;
#X obj 382 396 + 200;
#X obj 26 622 outlet~;
#X obj 20 164 bng 15 250 50 0 empty empty empty 17 7 0 10 -262144 -1
-1;
#X obj 106 165 bng 15 250 50 0 empty empty empty 17 7 0 10 -262144
-1 -1;
#N canvas -22 -11 742 976 rchfr82 0;
#X floatatom 137 144 5 0 0 0 - - -;
#X obj 137 225 bng 15 250 50 0 empty empty empty 17 7 0 10 -262144
-1 -1;
#X obj 321 225 bng 15 250 50 0 empty empty empty 17 7 0 10 -262144
-1 -1;
#X obj 137 26 inlet;
#X obj 215 412 outlet;
#X obj 137 84 random 2;
#X obj 137 112 % 2;
#X obj 137 170 select 0 1, f 53;
#N canvas -34 6 1106 976 rchfr8 0;
#X floatatom 137 144 5 0 0 0 - - -;
#X obj 137 225 bng 15 250 50 0 empty empty empty 17 7 0 10 -262144
-1 -1;
#X obj 250 225 bng 15 250 50 0 empty empty empty 17 7 0 10 -262144
-1 -1;
#X obj 137 112 % 8;
#X obj 137 170 select 0 1 2 3 4 5 6 7, f 130;
#X obj 363 225 bng 15 250 50 0 empty empty empty 17 7 0 10 -262144
-1 -1;
#X obj 477 225 bng 15 250 50 0 empty empty empty 17 7 0 10 -262144
-1 -1;
#X obj 590 225 bng 15 250 50 0 empty empty empty 17 7 0 10 -262144
-1 -1;
#X obj 703 225 bng 15 250 50 0 empty empty empty 17 7 0 10 -262144
-1 -1;
#X obj 817 225 bng 15 250 50 0 empty empty empty 17 7 0 10 -262144
-1 -1;
#X obj 930 225 bng 15 250 50 0 empty empty empty 17 7 0 10 -262144
-1 -1;
#X obj 137 84 random 8;
#X obj 137 26 inlet;
#X obj 525 445 outlet;
#X msg 137 283 2163;
#X msg 250 283 2241;
#X text 333 587 90 \, 175 \, 282 \, 296 \, 307 \, 405 \, 496 \, 510
\, 556 \, 574 \, 653 \, 700 \, 810 \, 830 \, 867 \, 926;
#X text 331 632 1026 \, 1084 \, 1105 \, 1175 \, 1348 \, 1388 \, 1428
\, 1470 \, 1699 \, 1745 \, 1767 \, 1803 \, 1864 \, 1901 \, 2100 \,
2156;
#X text 329 683 2163 \, 2241 \, 2255 \, 2278 \, 2372 \, 2474 \, 2537
\, 2545 \, 2590 \, 2610 \, 2749 \, 3128 \, 3166 \, 3188 \, 3204 \,
3208 \,;
#X text 326 734 3265 \, 3299 \, 3680 \, 3778 \, 3784 \, 3870 \, 3918
\, 4011 \, 4015 \, 4090 \, 4585 \, 4670 \, 4834 \, 5003 \, 5511 \,
5700;
#X msg 363 285 2255;
#X msg 477 284 2278;
#X msg 590 284 2372;
#X msg 703 284 2474;
#X msg 817 283 2537;
#X msg 930 281 2545;
#X connect 0 0 4 0;
#X connect 1 0 14 0;
#X connect 2 0 15 0;
#X connect 3 0 0 0;
#X connect 4 0 1 0;
#X connect 4 1 2 0;
#X connect 4 2 5 0;
#X connect 4 3 6 0;
#X connect 4 4 7 0;
#X connect 4 5 8 0;
#X connect 4 6 9 0;
#X connect 4 7 10 0;
#X connect 5 0 20 0;
#X connect 6 0 21 0;
#X connect 7 0 22 0;
#X connect 8 0 23 0;
#X connect 9 0 24 0;
#X connect 10 0 25 0;
#X connect 11 0 3 0;
#X connect 12 0 11 0;
#X connect 14 0 13 0;
#X connect 15 0 13 0;
#X connect 20 0 13 0;
#X connect 21 0 13 0;
#X connect 22 0 13 0;
#X connect 23 0 13 0;
#X connect 24 0 13 0;
#X connect 25 0 13 0;
#X restore 137 284 pd rchfr8;
#N canvas -29 -9 1109 976 rchfr8 0;
#X floatatom 137 144 5 0 0 0 - - -;
#X obj 137 225 bng 15 250 50 0 empty empty empty 17 7 0 10 -262144
-1 -1;
#X obj 250 225 bng 15 250 50 0 empty empty empty 17 7 0 10 -262144
-1 -1;
#X obj 137 112 % 8;
#X obj 137 170 select 0 1 2 3 4 5 6 7, f 130;
#X obj 363 225 bng 15 250 50 0 empty empty empty 17 7 0 10 -262144
-1 -1;
#X obj 477 225 bng 15 250 50 0 empty empty empty 17 7 0 10 -262144
-1 -1;
#X obj 590 225 bng 15 250 50 0 empty empty empty 17 7 0 10 -262144
-1 -1;
#X obj 703 225 bng 15 250 50 0 empty empty empty 17 7 0 10 -262144
-1 -1;
#X obj 817 225 bng 15 250 50 0 empty empty empty 17 7 0 10 -262144
-1 -1;
#X obj 930 225 bng 15 250 50 0 empty empty empty 17 7 0 10 -262144
-1 -1;
#X obj 137 84 random 8;
#X obj 137 26 inlet;
#X obj 525 445 outlet;
#X text 306 636 90 \, 175 \, 282 \, 296 \, 307 \, 405 \, 496 \, 510
\, 556 \, 574 \, 653 \, 700 \, 810 \, 830 \, 867 \, 926;
#X text 304 681 1026 \, 1084 \, 1105 \, 1175 \, 1348 \, 1388 \, 1428
\, 1470 \, 1699 \, 1745 \, 1767 \, 1803 \, 1864 \, 1901 \, 2100 \,
2156;
#X text 302 732 2163 \, 2241 \, 2255 \, 2278 \, 2372 \, 2474 \, 2537
\, 2545 \, 2590 \, 2610 \, 2749 \, 3128 \, 3166 \, 3188 \, 3204 \,
3208 \,;
#X text 299 783 3265 \, 3299 \, 3680 \, 3778 \, 3784 \, 3870 \, 3918
\, 4011 \, 4015 \, 4090 \, 4585 \, 4670 \, 4834 \, 5003 \, 5511 \,
5700;
#X msg 137 283 2590;
#X msg 250 283 2610;
#X msg 363 285 2749;
#X msg 477 284 3128;
#X msg 590 284 3166;
#X msg 703 284 3188;
#X msg 817 283 3204;
#X msg 930 281 3208;
#X connect 0 0 4 0;
#X connect 1 0 18 0;
#X connect 2 0 19 0;
#X connect 3 0 0 0;
#X connect 4 0 1 0;
#X connect 4 1 2 0;
#X connect 4 2 5 0;
#X connect 4 3 6 0;
#X connect 4 4 7 0;
#X connect 4 5 8 0;
#X connect 4 6 9 0;
#X connect 4 7 10 0;
#X connect 5 0 20 0;
#X connect 6 0 21 0;
#X connect 7 0 22 0;
#X connect 8 0 23 0;
#X connect 9 0 24 0;
#X connect 10 0 25 0;
#X connect 11 0 3 0;
#X connect 12 0 11 0;
#X connect 18 0 13 0;
#X connect 19 0 13 0;
#X connect 20 0 13 0;
#X connect 21 0 13 0;
#X connect 22 0 13 0;
#X connect 23 0 13 0;
#X connect 24 0 13 0;
#X connect 25 0 13 0;
#X restore 321 284 pd rchfr8;
#X connect 0 0 7 0;
#X connect 1 0 8 0;
#X connect 2 0 9 0;
#X connect 3 0 5 0;
#X connect 5 0 6 0;
#X connect 6 0 0 0;
#X connect 7 0 1 0;
#X connect 7 1 2 0;
#X connect 8 0 4 0;
#X connect 9 0 4 0;
#X restore 20 191 pd rchfr82;
#N canvas -22 -11 742 976 rchfr82 0;
#X floatatom 137 144 5 0 0 0 - - -;
#X obj 137 225 bng 15 250 50 0 empty empty empty 17 7 0 10 -262144
-1 -1;
#X obj 321 225 bng 15 250 50 0 empty empty empty 17 7 0 10 -262144
-1 -1;
#X obj 137 26 inlet;
#X obj 215 412 outlet;
#X obj 137 84 random 2;
#X obj 137 112 % 2;
#X obj 137 170 select 0 1, f 53;
#N canvas -34 6 1106 976 rchfr8 0;
#X floatatom 137 144 5 0 0 0 - - -;
#X obj 137 225 bng 15 250 50 0 empty empty empty 17 7 0 10 -262144
-1 -1;
#X obj 250 225 bng 15 250 50 0 empty empty empty 17 7 0 10 -262144
-1 -1;
#X obj 137 112 % 8;
#X obj 137 170 select 0 1 2 3 4 5 6 7, f 130;
#X obj 363 225 bng 15 250 50 0 empty empty empty 17 7 0 10 -262144
-1 -1;
#X obj 477 225 bng 15 250 50 0 empty empty empty 17 7 0 10 -262144
-1 -1;
#X obj 590 225 bng 15 250 50 0 empty empty empty 17 7 0 10 -262144
-1 -1;
#X obj 703 225 bng 15 250 50 0 empty empty empty 17 7 0 10 -262144
-1 -1;
#X obj 817 225 bng 15 250 50 0 empty empty empty 17 7 0 10 -262144
-1 -1;
#X obj 930 225 bng 15 250 50 0 empty empty empty 17 7 0 10 -262144
-1 -1;
#X obj 137 84 random 8;
#X obj 137 26 inlet;
#X obj 525 445 outlet;
#X msg 137 283 2163;
#X msg 250 283 2241;
#X text 333 587 90 \, 175 \, 282 \, 296 \, 307 \, 405 \, 496 \, 510
\, 556 \, 574 \, 653 \, 700 \, 810 \, 830 \, 867 \, 926;
#X text 331 632 1026 \, 1084 \, 1105 \, 1175 \, 1348 \, 1388 \, 1428
\, 1470 \, 1699 \, 1745 \, 1767 \, 1803 \, 1864 \, 1901 \, 2100 \,
2156;
#X text 329 683 2163 \, 2241 \, 2255 \, 2278 \, 2372 \, 2474 \, 2537
\, 2545 \, 2590 \, 2610 \, 2749 \, 3128 \, 3166 \, 3188 \, 3204 \,
3208 \,;
#X text 326 734 3265 \, 3299 \, 3680 \, 3778 \, 3784 \, 3870 \, 3918
\, 4011 \, 4015 \, 4090 \, 4585 \, 4670 \, 4834 \, 5003 \, 5511 \,
5700;
#X msg 363 285 2255;
#X msg 477 284 2278;
#X msg 590 284 2372;
#X msg 703 284 2474;
#X msg 817 283 2537;
#X msg 930 281 2545;
#X connect 0 0 4 0;
#X connect 1 0 14 0;
#X connect 2 0 15 0;
#X connect 3 0 0 0;
#X connect 4 0 1 0;
#X connect 4 1 2 0;
#X connect 4 2 5 0;
#X connect 4 3 6 0;
#X connect 4 4 7 0;
#X connect 4 5 8 0;
#X connect 4 6 9 0;
#X connect 4 7 10 0;
#X connect 5 0 20 0;
#X connect 6 0 21 0;
#X connect 7 0 22 0;
#X connect 8 0 23 0;
#X connect 9 0 24 0;
#X connect 10 0 25 0;
#X connect 11 0 3 0;
#X connect 12 0 11 0;
#X connect 14 0 13 0;
#X connect 15 0 13 0;
#X connect 20 0 13 0;
#X connect 21 0 13 0;
#X connect 22 0 13 0;
#X connect 23 0 13 0;
#X connect 24 0 13 0;
#X connect 25 0 13 0;
#X restore 137 284 pd rchfr8;
#N canvas -29 -9 1109 976 rchfr8 0;
#X floatatom 137 144 5 0 0 0 - - -;
#X obj 137 225 bng 15 250 50 0 empty empty empty 17 7 0 10 -262144
-1 -1;
#X obj 250 225 bng 15 250 50 0 empty empty empty 17 7 0 10 -262144
-1 -1;
#X obj 137 112 % 8;
#X obj 137 170 select 0 1 2 3 4 5 6 7, f 130;
#X obj 363 225 bng 15 250 50 0 empty empty empty 17 7 0 10 -262144
-1 -1;
#X obj 477 225 bng 15 250 50 0 empty empty empty 17 7 0 10 -262144
-1 -1;
#X obj 590 225 bng 15 250 50 0 empty empty empty 17 7 0 10 -262144
-1 -1;
#X obj 703 225 bng 15 250 50 0 empty empty empty 17 7 0 10 -262144
-1 -1;
#X obj 817 225 bng 15 250 50 0 empty empty empty 17 7 0 10 -262144
-1 -1;
#X obj 930 225 bng 15 250 50 0 empty empty empty 17 7 0 10 -262144
-1 -1;
#X obj 137 84 random 8;
#X obj 137 26 inlet;
#X obj 525 445 outlet;
#X text 306 636 90 \, 175 \, 282 \, 296 \, 307 \, 405 \, 496 \, 510
\, 556 \, 574 \, 653 \, 700 \, 810 \, 830 \, 867 \, 926;
#X text 304 681 1026 \, 1084 \, 1105 \, 1175 \, 1348 \, 1388 \, 1428
\, 1470 \, 1699 \, 1745 \, 1767 \, 1803 \, 1864 \, 1901 \, 2100 \,
2156;
#X text 302 732 2163 \, 2241 \, 2255 \, 2278 \, 2372 \, 2474 \, 2537
\, 2545 \, 2590 \, 2610 \, 2749 \, 3128 \, 3166 \, 3188 \, 3204 \,
3208 \,;
#X text 299 783 3265 \, 3299 \, 3680 \, 3778 \, 3784 \, 3870 \, 3918
\, 4011 \, 4015 \, 4090 \, 4585 \, 4670 \, 4834 \, 5003 \, 5511 \,
5700;
#X msg 137 283 2590;
#X msg 250 283 2610;
#X msg 363 285 2749;
#X msg 477 284 3128;
#X msg 590 284 3166;
#X msg 703 284 3188;
#X msg 817 283 3204;
#X msg 930 281 3208;
#X connect 0 0 4 0;
#X connect 1 0 18 0;
#X connect 2 0 19 0;
#X connect 3 0 0 0;
#X connect 4 0 1 0;
#X connect 4 1 2 0;
#X connect 4 2 5 0;
#X connect 4 3 6 0;
#X connect 4 4 7 0;
#X connect 4 5 8 0;
#X connect 4 6 9 0;
#X connect 4 7 10 0;
#X connect 5 0 20 0;
#X connect 6 0 21 0;
#X connect 7 0 22 0;
#X connect 8 0 23 0;
#X connect 9 0 24 0;
#X connect 10 0 25 0;
#X connect 11 0 3 0;
#X connect 12 0 11 0;
#X connect 18 0 13 0;
#X connect 19 0 13 0;
#X connect 20 0 13 0;
#X connect 21 0 13 0;
#X connect 22 0 13 0;
#X connect 23 0 13 0;
#X connect 24 0 13 0;
#X connect 25 0 13 0;
#X restore 321 284 pd rchfr8;
#X connect 0 0 7 0;
#X connect 1 0 8 0;
#X connect 2 0 9 0;
#X connect 3 0 5 0;
#X connect 5 0 6 0;
#X connect 6 0 0 0;
#X connect 7 0 1 0;
#X connect 7 1 2 0;
#X connect 8 0 4 0;
#X connect 9 0 4 0;
#X restore 106 190 pd rchfr82;
#X obj 20 217 s note3;
#X obj 106 216 s note3;
#X floatatom 20 101 5 0 0 0 - - -;
#X obj 20 41 random 2;
#X obj 20 69 % 2;
#X obj 20 135 select 0 1, f 25;
#X obj 24 445 r note3;
#X obj 287 222 s bng3;
#X obj 20 12 r bng3;
#X obj 172 407 r bng3;
#X obj 319 405 r bng3;
#X text 453 419 This determines the duration of the sound (although
in this version all sounds are 200 ms long);
#X obj 382 76 random 15000;
#X obj 382 98 + 15000;
#X connect 0 0 1 0;
#X connect 1 0 32 0;
#X connect 2 0 10 0;
#X connect 3 0 4 0;
#X connect 4 0 20 0;
#X connect 5 0 6 0;
#X connect 6 0 4 1;
#X connect 7 0 0 1;
#X connect 7 0 15 0;
#X connect 8 0 0 0;
#X connect 9 0 37 0;
#X connect 10 0 3 0;
#X connect 11 0 5 0;
#X connect 12 0 5 0;
#X connect 15 0 14 0;
#X connect 15 0 17 1;
#X connect 15 0 19 0;
#X connect 16 0 12 0;
#X connect 17 0 11 0;
#X connect 19 0 16 1;
#X connect 19 0 13 0;
#X connect 21 0 23 0;
#X connect 22 0 24 0;
#X connect 23 0 25 0;
#X connect 24 0 26 0;
#X connect 27 0 30 0;
#X connect 28 0 29 0;
#X connect 29 0 27 0;
#X connect 30 0 21 0;
#X connect 30 1 22 0;
#X connect 31 0 2 0;
#X connect 33 0 28 0;
#X connect 34 0 17 0;
#X connect 35 0 16 0;
#X connect 37 0 38 0;
#X connect 38 0 7 0;
#X restore 363 294 pd durations3;
#N canvas 1072 108 702 729 durations4 0;
#X obj 231 164 metro 10000;
#X obj 231 198 bng 15 250 50 0 empty empty empty 17 7 0 10 -262144
-1 -1;
#X floatatom 24 420 5 0 0 0 - - -;
#X obj 24 480 lop~ 6000;
#X obj 25 527 *~;
#X obj 116 470 line 0 3;
#X floatatom 116 496 5 0 0 0 - - -;
#X floatatom 326 123 5 0 0 0 - - -;
#X obj 231 132 r tgl;
#X obj 326 54 r rndmz;
#X obj 24 454 osc~;
#X msg 116 420 0.1 700;
#X msg 263 418 0 700;
#X floatatom 339 363 5 0 0 0 - - -;
#X floatatom 340 272 5 0 0 0 - - -;
#N canvas 34 159 450 452 div 0;
#X obj 189 236 outlet;
#X obj 189 17 inlet length;
#X obj 189 181 / 2;
#X connect 1 0 2 0;
#X connect 2 0 0 0;
#X restore 326 243 pd div;
#X obj 263 381 delay;
#X obj 116 383 delay;
#X text 377 122 Duration of the loop;
#X obj 326 335 + 200;
#X obj 26 561 outlet~;
#N canvas -22 -11 742 976 rchfr82 0;
#X floatatom 137 144 5 0 0 0 - - -;
#X obj 137 225 bng 15 250 50 0 empty empty empty 17 7 0 10 -262144
-1 -1;
#X obj 321 225 bng 15 250 50 0 empty empty empty 17 7 0 10 -262144
-1 -1;
#X obj 137 26 inlet;
#X obj 215 412 outlet;
#X obj 137 84 random 2;
#X obj 137 112 % 2;
#X obj 137 170 select 0 1, f 53;
#N canvas -34 6 1106 976 rchfr8 0;
#X floatatom 137 144 5 0 0 0 - - -;
#X obj 137 225 bng 15 250 50 0 empty empty empty 17 7 0 10 -262144
-1 -1;
#X obj 250 225 bng 15 250 50 0 empty empty empty 17 7 0 10 -262144
-1 -1;
#X obj 137 112 % 8;
#X obj 137 170 select 0 1 2 3 4 5 6 7, f 130;
#X obj 363 225 bng 15 250 50 0 empty empty empty 17 7 0 10 -262144
-1 -1;
#X obj 477 225 bng 15 250 50 0 empty empty empty 17 7 0 10 -262144
-1 -1;
#X obj 590 225 bng 15 250 50 0 empty empty empty 17 7 0 10 -262144
-1 -1;
#X obj 703 225 bng 15 250 50 0 empty empty empty 17 7 0 10 -262144
-1 -1;
#X obj 817 225 bng 15 250 50 0 empty empty empty 17 7 0 10 -262144
-1 -1;
#X obj 930 225 bng 15 250 50 0 empty empty empty 17 7 0 10 -262144
-1 -1;
#X obj 137 84 random 8;
#X obj 137 26 inlet;
#X obj 525 445 outlet;
#X text 495 650 90 \, 175 \, 282 \, 296 \, 307 \, 405 \, 496 \, 510
\, 556 \, 574 \, 653 \, 700 \, 810 \, 830 \, 867 \, 926;
#X text 493 695 1026 \, 1084 \, 1105 \, 1175 \, 1348 \, 1388 \, 1428
\, 1470 \, 1699 \, 1745 \, 1767 \, 1803 \, 1864 \, 1901 \, 2100 \,
2156;
#X text 491 746 2163 \, 2241 \, 2255 \, 2278 \, 2372 \, 2474 \, 2537
\, 2545 \, 2590 \, 2610 \, 2749 \, 3128 \, 3166 \, 3188 \, 3204 \,
3208 \,;
#X text 488 797 3265 \, 3299 \, 3680 \, 3778 \, 3784 \, 3870 \, 3918
\, 4011 \, 4015 \, 4090 \, 4585 \, 4670 \, 4834 \, 5003 \, 5511 \,
5700;
#X msg 137 283 3265;
#X msg 250 283 3299;
#X msg 363 285 3680;
#X msg 477 284 3778;
#X msg 590 284 3784;
#X msg 703 284 3870;
#X msg 817 283 3918;
#X msg 930 281 4011;
#X connect 0 0 4 0;
#X connect 1 0 18 0;
#X connect 2 0 19 0;
#X connect 3 0 0 0;
#X connect 4 0 1 0;
#X connect 4 1 2 0;
#X connect 4 2 5 0;
#X connect 4 3 6 0;
#X connect 4 4 7 0;
#X connect 4 5 8 0;
#X connect 4 6 9 0;
#X connect 4 7 10 0;
#X connect 5 0 20 0;
#X connect 6 0 21 0;
#X connect 7 0 22 0;
#X connect 8 0 23 0;
#X connect 9 0 24 0;
#X connect 10 0 25 0;
#X connect 11 0 3 0;
#X connect 12 0 11 0;
#X connect 18 0 13 0;
#X connect 19 0 13 0;
#X connect 20 0 13 0;
#X connect 21 0 13 0;
#X connect 22 0 13 0;
#X connect 23 0 13 0;
#X connect 24 0 13 0;
#X connect 25 0 13 0;
#X restore 137 284 pd rchfr8;
#N canvas -29 -9 1109 976 rchfr8 0;
#X floatatom 137 144 5 0 0 0 - - -;
#X obj 137 225 bng 15 250 50 0 empty empty empty 17 7 0 10 -262144
-1 -1;
#X obj 250 225 bng 15 250 50 0 empty empty empty 17 7 0 10 -262144
-1 -1;
#X obj 137 112 % 8;
#X obj 137 170 select 0 1 2 3 4 5 6 7, f 130;
#X obj 363 225 bng 15 250 50 0 empty empty empty 17 7 0 10 -262144
-1 -1;
#X obj 477 225 bng 15 250 50 0 empty empty empty 17 7 0 10 -262144
-1 -1;
#X obj 590 225 bng 15 250 50 0 empty empty empty 17 7 0 10 -262144
-1 -1;
#X obj 703 225 bng 15 250 50 0 empty empty empty 17 7 0 10 -262144
-1 -1;
#X obj 817 225 bng 15 250 50 0 empty empty empty 17 7 0 10 -262144
-1 -1;
#X obj 930 225 bng 15 250 50 0 empty empty empty 17 7 0 10 -262144
-1 -1;
#X obj 137 84 random 8;
#X obj 137 26 inlet;
#X obj 525 445 outlet;
#X text 120 534 90 \, 175 \, 282 \, 296 \, 307 \, 405 \, 496 \, 510
\, 556 \, 574 \, 653 \, 700 \, 810 \, 830 \, 867 \, 926 \, 1026 \,
1084 \, 1105 \, 1175 \, 1348 \, 1388 \, 1428 \, 1470 \, 1699 \, 1745
\, 1767 \, 1803 \, 1864 \, 1901 \, 2100 \, 2156 \, 2163 \, 2241 \,
2278 \, 2372 \, 2474 \, 2537 \, 2545 \, 2590 \, 2610 \, 2749 \, 3128
\, 3166 \, 3188 \, 3204 \, 3208 \, 3265 \, 3299 \, 3680 \, 3778 \,
3784 \, 3870 \, 3918 \, 4011 \, 4015 \, 4090 \, 4585 \, 4670 \, 4834
\, 5003 \, 5511 \, 5700;
#X msg 137 283 4015;
#X msg 250 283 4090;
#X msg 363 285 4585;
#X msg 477 284 4670;
#X msg 590 284 4834;
#X msg 703 284 5003;
#X msg 817 283 5511;
#X msg 930 281 5700;
#X connect 0 0 4 0;
#X connect 1 0 15 0;
#X connect 2 0 16 0;
#X connect 3 0 0 0;
#X connect 4 0 1 0;
#X connect 4 1 2 0;
#X connect 4 2 5 0;
#X connect 4 3 6 0;
#X connect 4 4 7 0;
#X connect 4 5 8 0;
#X connect 4 6 9 0;
#X connect 4 7 10 0;
#X connect 5 0 17 0;
#X connect 6 0 18 0;
#X connect 7 0 19 0;
#X connect 8 0 20 0;
#X connect 9 0 21 0;
#X connect 10 0 22 0;
#X connect 11 0 3 0;
#X connect 12 0 11 0;
#X connect 15 0 13 0;
#X connect 16 0 13 0;
#X connect 17 0 13 0;
#X connect 18 0 13 0;
#X connect 19 0 13 0;
#X connect 20 0 13 0;
#X connect 21 0 13 0;
#X connect 22 0 13 0;
#X restore 321 284 pd rchfr8;
#X connect 0 0 7 0;
#X connect 1 0 8 0;
#X connect 2 0 9 0;
#X connect 3 0 5 0;
#X connect 5 0 6 0;
#X connect 6 0 0 0;
#X connect 7 0 1 0;
#X connect 7 1 2 0;
#X connect 8 0 4 0;
#X connect 9 0 4 0;
#X restore 22 258 pd rchfr82;
#X obj 22 284 s note4;
#X obj 24 382 r note4;
#X obj 22 230 r bng4;
#X obj 231 222 s bng4;
#X obj 116 346 r bng4;
#X obj 263 344 r bng4;
#X text 410 347 This determines the duration of the sound (although
in this version all sounds are 200 ms long);
#X obj 326 76 random 15000;
#X obj 326 98 + 20000;
#X connect 0 0 1 0;
#X connect 1 0 25 0;
#X connect 2 0 10 0;
#X connect 3 0 4 0;
#X connect 4 0 20 0;
#X connect 5 0 6 0;
#X connect 6 0 4 1;
#X connect 7 0 0 1;
#X connect 7 0 15 0;
#X connect 8 0 0 0;
#X connect 9 0 29 0;
#X connect 10 0 3 0;
#X connect 11 0 5 0;
#X connect 12 0 5 0;
#X connect 15 0 14 0;
#X connect 15 0 17 1;
#X connect 15 0 19 0;
#X connect 16 0 12 0;
#X connect 17 0 11 0;
#X connect 19 0 16 1;
#X connect 19 0 13 0;
#X connect 21 0 22 0;
#X connect 23 0 2 0;
#X connect 24 0 21 0;
#X connect 26 0 17 0;
#X connect 27 0 16 0;
#X connect 29 0 30 0;
#X connect 30 0 7 0;
#X restore 390 323 pd durations4;
#X obj 318 414 outlet~;
#X obj 420 374 r AsteroidOnOff;
#X obj 420 398 rampOnOff;
#X obj 318 388 *~;
#X connect 0 0 1 0;
#X connect 0 0 3 0;
#X connect 2 0 1 0;
#X connect 3 0 4 0;
#X connect 7 0 6 0;
#X connect 8 0 16 0;
#X connect 9 0 16 0;
#X connect 10 0 16 0;
#X connect 11 0 16 0;
#X connect 12 0 16 0;
#X connect 14 0 15 0;
#X connect 15 0 16 1;
#X connect 16 0 13 0;
