#N canvas 1805 220 857 526 12;
#X obj 369 172 r userX;
#X obj 396 194 r userY;
#X obj 292 219 calcPanning;
#X obj 277 146 polarToCart;
#X obj 207 219 calcVolume;
#X obj 263 94 inlet;
#X obj 350 94 inlet;
#X text 358 63 planet orbit radius;
#X text 207 62 planet angle 0:1;
#X obj 547 105 inlet;
#X text 592 104 range you can hear;
#X obj 292 277 line~;
#X msg 292 247 \$1 5;
#X obj 292 332 outlet~;
#X obj 207 332 outlet~;
#X obj 207 285 line~;
#X msg 207 255 \$1 5;
#X connect 0 0 2 2;
#X connect 1 0 2 3;
#X connect 2 0 12 0;
#X connect 3 0 2 0;
#X connect 3 0 4 0;
#X connect 3 1 2 1;
#X connect 3 1 4 1;
#X connect 4 0 16 0;
#X connect 5 0 3 0;
#X connect 6 0 3 1;
#X connect 9 0 4 2;
#X connect 11 0 13 0;
#X connect 12 0 11 0;
#X connect 15 0 14 0;
#X connect 16 0 15 0;
