#N canvas 165 86 949 608 12;
#N canvas 0 25 1320 754 userAngleUnitVector 0;
#X obj 438 207 r userX;
#X obj 524 204 r userY;
#X obj 428 256 -;
#X obj 516 256 -;
#X floatatom 543 280 5 0 0 0 - - -;
#X floatatom 442 281 5 0 0 0 - - -;
#X obj 438 231 t b f;
#X obj 524 228 t b f;
#X obj 409 143 inlet;
#X obj 512 155 inlet;
#X obj 430 364 outlet;
#X obj 511 362 outlet;
#X obj 428 313 calcUnitVector;
#X connect 0 0 6 0;
#X connect 1 0 7 0;
#X connect 2 0 5 0;
#X connect 2 0 12 0;
#X connect 3 0 4 0;
#X connect 3 0 12 1;
#X connect 6 0 2 0;
#X connect 6 1 2 1;
#X connect 7 0 3 0;
#X connect 7 1 3 1;
#X connect 8 0 2 0;
#X connect 9 0 3 0;
#X connect 12 0 10 0;
#X connect 12 1 11 0;
#X restore 205 167 pd userAngleUnitVector;
#X obj 313 219 angleBetweenVectors;
#X obj 313 244 panningQuadrants;
#X obj 196 59 inlet;
#X obj 338 52 inlet;
#X text 191 24 angle;
#X text 332 18 radius;
#X obj 440 42 inlet;
#X obj 521 49 inlet;
#X obj 314 304 outlet;
#X text 365 305 panning value between -1 \, 1;
#X text 439 23 user X;
#X text 520 23 user Y;
#X connect 0 0 1 0;
#X connect 0 1 1 1;
#X connect 1 0 2 0;
#X connect 2 0 9 0;
#X connect 3 0 0 0;
#X connect 4 0 0 1;
#X connect 7 0 1 2;
#X connect 8 0 1 3;
