#N canvas 358 160 1082 631 12;
#N canvas 1519 151 1320 754 userAngleUnitVector 0;
#X obj 428 256 -;
#X obj 516 256 -;
#X floatatom 543 280 5 0 0 0 - - -;
#X floatatom 442 281 5 0 0 0 - - -;
#X obj 438 231 t b f;
#X obj 524 228 t b f;
#X obj 409 143 inlet;
#X obj 512 155 inlet;
#X obj 430 364 outlet;
#X obj 511 362 outlet;
#X obj 469 108 r userY;
#X obj 555 105 r userX;
#X obj 555 161 line;
#X msg 556 137 \$1 2000;
#X obj 465 156 line;
#X msg 466 132 \$1 2000;
#X connect 0 0 3 0;
#X connect 0 0 8 0;
#X connect 1 0 2 0;
#X connect 1 0 9 0;
#X connect 4 0 0 0;
#X connect 4 1 0 1;
#X connect 5 0 1 0;
#X connect 5 1 1 1;
#X connect 6 0 0 0;
#X connect 7 0 1 0;
#X connect 10 0 15 0;
#X connect 11 0 13 0;
#X connect 12 0 5 0;
#X connect 13 0 12 0;
#X connect 14 0 4 0;
#X connect 15 0 14 0;
#X restore 175 287 pd userAngleUnitVector;
#X obj 283 339 angleBetweenVectors;
#X obj 283 364 panningQuadrants;
#X obj 166 179 inlet;
#X obj 308 172 inlet;
#X obj 284 424 outlet;
#X text 335 425 panning value between -1 \, 1;
#X text 497 14 user X;
#X text 674 16 user Y;
#X text 161 144 planet x;
#X text 303 138 planet y;
#X obj 448 248 line;
#X obj 543 245 line;
#X obj 448 181 calcUnitVector;
#X obj 451 35 r userHeadingY;
#X obj 642 42 r userHeadingX;
#X msg 544 221 \$1 100;
#X msg 448 224 \$1 100;
#X obj 499 58 r userX;
#X obj 677 61 r userY;
#N canvas 0 25 1082 450 selector 0;
#X obj 171 212 spigot;
#X obj 220 210 spigot;
#X obj 283 161 == 0;
#X floatatom 171 270 5 0 0 0 - - -;
#X obj 168 173 f;
#X obj 229 171 f;
#X obj 272 120 t b f f;
#X obj 161 121 inlet;
#X obj 221 121 inlet;
#X obj 170 292 outlet;
#X obj 283 50 inlet;
#X text 142 73 in 1;
#X text 210 71 in 2;
#X text 288 21 select;
#X connect 0 0 3 0;
#X connect 1 0 3 0;
#X connect 2 0 1 1;
#X connect 3 0 9 0;
#X connect 4 0 0 0;
#X connect 5 0 1 0;
#X connect 6 0 5 0;
#X connect 6 0 4 0;
#X connect 6 1 2 0;
#X connect 6 2 0 1;
#X connect 7 0 4 0;
#X connect 8 0 5 0;
#X connect 10 0 6 0;
#X restore 457 101 pd selector;
#X obj 766 69 tgl 15 0 empty empty empty 17 7 0 10 -262144 -1 -1 0
1;
#N canvas 0 25 1082 450 selector 0;
#X obj 171 212 spigot;
#X obj 220 210 spigot;
#X obj 283 161 == 0;
#X floatatom 171 270 5 0 0 0 - - -;
#X obj 168 173 f;
#X obj 229 171 f;
#X obj 272 120 t b f f;
#X obj 161 121 inlet;
#X obj 221 121 inlet;
#X obj 170 292 outlet;
#X obj 283 50 inlet;
#X text 142 73 in 1;
#X text 210 71 in 2;
#X text 288 21 select;
#X connect 0 0 3 0;
#X connect 1 0 3 0;
#X connect 2 0 1 1;
#X connect 3 0 9 0;
#X connect 4 0 0 0;
#X connect 5 0 1 0;
#X connect 6 0 5 0;
#X connect 6 0 4 0;
#X connect 6 1 2 0;
#X connect 6 2 0 1;
#X connect 7 0 4 0;
#X connect 8 0 5 0;
#X connect 10 0 6 0;
#X restore 640 99 pd selector;
#X text 786 67 1 = use heading 0=back to the sun;
#X obj 766 38 r useHeading;
#X connect 0 0 1 0;
#X connect 0 1 1 1;
#X connect 1 0 2 0;
#X connect 2 0 5 0;
#X connect 3 0 0 0;
#X connect 4 0 0 1;
#X connect 11 0 1 2;
#X connect 12 0 1 3;
#X connect 13 0 17 0;
#X connect 13 1 16 0;
#X connect 14 0 20 0;
#X connect 15 0 22 0;
#X connect 16 0 12 0;
#X connect 17 0 11 0;
#X connect 18 0 20 1;
#X connect 19 0 22 1;
#X connect 20 0 13 0;
#X connect 21 0 22 2;
#X connect 21 0 20 2;
#X connect 22 0 13 1;
#X connect 24 0 21 0;
