#N canvas 356 171 957 569 12;
#X obj 209 195 expr sqrt(pow($f1 \, 2) + pow($f2 \, 2));
#X obj 209 145 -;
#X obj 277 103 t b f;
#X obj 209 102 f;
#X obj 366 125 -;
#X obj 438 101 t b f;
#X obj 366 101 f;
#X obj 366 149 abs;
#X obj 209 169 abs;
#X obj 217 312 abs;
#X obj 256 311 >= 0;
#X obj 217 337 spigot;
#X obj 271 338 sel 0;
#X msg 271 362 0;
#X obj 222 268 -, f 5;
#X obj 209 219 t b f;
#X obj 209 243 f;
#X obj 217 372 /;
#X obj 277 79 inlet;
#X obj 438 76 inlet;
#X obj 232 406 outlet;
#X obj 549 137 inlet;
#X text 270 43 planet X;
#X text 439 46 planet Y;
#X text 545 58 distance you can hear;
#X msg 366 43 \$1 2000;
#X obj 366 67 line;
#X msg 197 49 \$1 2000;
#X obj 197 73 line;
#X obj 211 22 r userX;
#X obj 367 15 r userY;
#X connect 0 0 15 0;
#X connect 1 0 8 0;
#X connect 2 0 3 0;
#X connect 2 1 1 1;
#X connect 3 0 1 0;
#X connect 4 0 7 0;
#X connect 5 0 6 0;
#X connect 5 1 4 1;
#X connect 6 0 4 0;
#X connect 7 0 0 1;
#X connect 8 0 0 0;
#X connect 9 0 11 0;
#X connect 10 0 11 1;
#X connect 10 0 12 0;
#X connect 11 0 17 0;
#X connect 12 0 13 0;
#X connect 13 0 20 0;
#X connect 14 0 9 0;
#X connect 14 0 10 0;
#X connect 15 0 16 0;
#X connect 15 1 14 1;
#X connect 16 0 14 0;
#X connect 17 0 20 0;
#X connect 18 0 2 0;
#X connect 19 0 5 0;
#X connect 21 0 17 1;
#X connect 21 0 16 1;
#X connect 25 0 26 0;
#X connect 26 0 6 0;
#X connect 27 0 28 0;
#X connect 28 0 3 0;
#X connect 29 0 27 0;
#X connect 30 0 25 0;
