#N canvas 288 89 957 569 12;
#X obj 209 195 expr sqrt(pow($f1 \, 2) + pow($f2 \, 2));
#X obj 209 78 r userX;
#X obj 209 145 -;
#X obj 277 103 t b f;
#X obj 209 102 f;
#X obj 366 125 -;
#X obj 438 101 t b f;
#X obj 366 101 f;
#X obj 366 77 r userY;
#X obj 366 149 abs;
#X obj 209 169 abs;
#X obj 217 312 abs;
#X obj 256 311 >= 0;
#X obj 217 337 spigot;
#X obj 271 338 sel 0;
#X msg 271 362 0;
#X obj 222 268 -, f 5;
#X obj 209 219 t b f;
#X obj 209 243 f;
#X obj 217 372 /;
#X msg 557 189 1000;
#X obj 554 162 loadbang;
#X obj 277 79 inlet;
#X obj 438 76 inlet;
#X obj 232 406 outlet;
#X obj 536 102 inlet;
#X text 270 43 planet X;
#X text 439 46 planet Y;
#X text 545 58 distance you can hear;
#X floatatom 557 213 5 0 0 0 - - -;
#X connect 0 0 17 0;
#X connect 1 0 4 0;
#X connect 2 0 10 0;
#X connect 3 0 4 0;
#X connect 3 1 2 1;
#X connect 4 0 2 0;
#X connect 5 0 9 0;
#X connect 6 0 7 0;
#X connect 6 1 5 1;
#X connect 7 0 5 0;
#X connect 8 0 7 0;
#X connect 9 0 0 1;
#X connect 10 0 0 0;
#X connect 11 0 13 0;
#X connect 12 0 13 1;
#X connect 12 0 14 0;
#X connect 13 0 19 0;
#X connect 14 0 15 0;
#X connect 15 0 24 0;
#X connect 16 0 11 0;
#X connect 16 0 12 0;
#X connect 17 0 18 0;
#X connect 17 1 16 1;
#X connect 18 0 16 0;
#X connect 19 0 24 0;
#X connect 20 0 29 0;
#X connect 21 0 20 0;
#X connect 22 0 3 0;
#X connect 23 0 6 0;
#X connect 25 0 29 0;
#X connect 29 0 19 1;
#X connect 29 0 18 1;
