#N canvas 174 368 857 526 12;
#X obj 292 219 calcPanning;
#X obj 278 102 polarToCart;
#X obj 207 219 calcVolume;
#X obj 264 50 inlet;
#X obj 351 50 inlet;
#X text 359 19 planet orbit radius;
#X text 208 18 planet angle 0:1;
#X obj 547 105 inlet;
#X text 592 104 range you can hear;
#X obj 292 277 line~;
#X msg 292 247 \$1 5;
#X obj 292 332 outlet~;
#X obj 207 332 outlet~;
#X obj 207 285 line~;
#X msg 207 255 \$1 5;
#X obj 149 251 indB;
#X obj 278 126 * -1;
#X obj 351 125 * -1;
#X connect 0 0 10 0;
#X connect 1 0 16 0;
#X connect 1 1 17 0;
#X connect 2 0 14 0;
#X connect 2 0 15 0;
#X connect 3 0 1 0;
#X connect 4 0 1 1;
#X connect 7 0 2 2;
#X connect 9 0 11 0;
#X connect 10 0 9 0;
#X connect 14 0 13 0;
#X connect 15 0 12 0;
#X connect 16 0 2 1;
#X connect 16 0 0 0;
#X connect 17 0 0 1;
#X connect 17 0 2 0;
