#N canvas 2041 444 949 608 12;
#N canvas 0 25 1320 754 userAngleUnitVector 0;
#X obj 428 256 -;
#X obj 516 256 -;
#X floatatom 543 280 5 0 0 0 - - -;
#X floatatom 442 281 5 0 0 0 - - -;
#X obj 438 231 t b f;
#X obj 524 228 t b f;
#X obj 409 143 inlet;
#X obj 512 155 inlet;
#X obj 430 364 outlet;
#X obj 511 362 outlet;
#X obj 428 313 calcUnitVector;
#X obj 438 207 r userY;
#X obj 524 204 r userX;
#X connect 0 0 3 0;
#X connect 0 0 10 0;
#X connect 1 0 2 0;
#X connect 1 0 10 1;
#X connect 4 0 0 0;
#X connect 4 1 0 1;
#X connect 5 0 1 0;
#X connect 5 1 1 1;
#X connect 6 0 0 0;
#X connect 7 0 1 0;
#X connect 10 0 8 0;
#X connect 10 1 9 0;
#X connect 11 0 4 0;
#X connect 12 0 5 0;
#X restore 205 167 pd userAngleUnitVector;
#X obj 313 219 angleBetweenVectors;
#X obj 313 244 panningQuadrants;
#X obj 196 59 inlet;
#X obj 338 52 inlet;
#X obj 314 304 outlet;
#X text 365 305 panning value between -1 \, 1;
#X text 439 16 user X;
#X text 517 26 user Y;
#X text 191 24 planet x;
#X text 333 18 planet y;
#X msg 423 75 \$1 2000;
#X obj 423 99 line;
#X msg 499 81 \$1 2000;
#X obj 499 105 line;
#X floatatom 516 135 5 0 0 0 - - -;
#X obj 522 49 r userX;
#X obj 440 42 r userY;
#X connect 0 0 1 0;
#X connect 0 1 1 1;
#X connect 1 0 2 0;
#X connect 2 0 5 0;
#X connect 3 0 0 0;
#X connect 4 0 0 1;
#X connect 11 0 12 0;
#X connect 12 0 1 2;
#X connect 13 0 14 0;
#X connect 14 0 1 3;
#X connect 14 0 15 0;
#X connect 16 0 13 0;
#X connect 17 0 11 0;
