#N canvas 0 25 450 300 12;
#X obj 228 221 expr sqrt(pow($f1 \, 2) + pow($f2 \, 2));
#X obj 231 263 /;
#X obj 332 260 /;
#X obj 442 164 t f b f;
#X obj 236 159 f;
#X obj 224 186 t b f f;
#X obj 235 79 inlet;
#X obj 441 113 inlet;
#X obj 332 284 outlet;
#X obj 231 287 outlet;
#X connect 0 0 1 1;
#X connect 0 0 2 1;
#X connect 1 0 9 0;
#X connect 2 0 8 0;
#X connect 3 0 2 0;
#X connect 3 1 4 0;
#X connect 3 2 0 1;
#X connect 4 0 5 0;
#X connect 5 0 2 0;
#X connect 5 1 1 0;
#X connect 5 2 0 0;
#X connect 6 0 4 0;
#X connect 7 0 3 0;
