#N canvas 1440 91 1920 832 12;
#X msg 370 126 88;
#X msg 452 126 225;
#X msg 533 126 365;
#X msg 622 126 687;
#X msg 1133 126 4333;
#X msg 1226 126 10759;
#X msg 1330 126 20687;
#X msg 1436 126 60190;
#X msg 1538 126 90560;
#X text 572 36 https://www.universetoday.com/14344/how-long-is-a-year-on-pluto/
;
#X text 573 16 https://spaceplace.nasa.gov/years-on-other-planets/en/
;
#X obj 533 157 / 365;
#X obj 370 157 / 365;
#X obj 452 157 / 365;
#X obj 1226 157 / 365;
#X obj 622 157 / 365;
#X obj 1133 157 / 365;
#X obj 1538 157 / 365;
#X obj 1330 157 / 365;
#X obj 1436 157 / 365;
#X floatatom 370 188 5 0 0 0 - - -;
#X floatatom 452 188 5 0 0 0 - - -;
#X floatatom 533 188 5 0 0 0 - - -;
#X floatatom 622 188 5 0 0 0 - - -;
#X floatatom 1133 188 5 0 0 0 - - -;
#X floatatom 1226 188 5 0 0 0 - - -;
#X floatatom 1330 188 5 0 0 0 - - -;
#X floatatom 1436 188 5 0 0 0 - - -;
#X floatatom 1538 188 5 0 0 0 - - -;
#X obj 531 384 phasor~;
#X obj 450 384 phasor~;
#X obj 368 382 phasor~;
#X obj 619 386 phasor~;
#X obj 368 424 snapshot~;
#X obj 300 375 tgl 15 0 empty empty empty 17 7 0 10 -262144 -1 -1 1
1;
#X obj 450 425 snapshot~;
#X floatatom 367 612 5 0 0 0 - - -;
#X floatatom 450 611 5 0 0 0 - - -;
#X obj 537 426 snapshot~;
#X floatatom 537 612 5 0 0 0 - - -;
#X obj 619 427 snapshot~;
#X floatatom 619 612 5 0 0 0 - - -;
#X msg 370 235 1;
#X obj 375 261 /;
#X obj 370 211 t b f;
#X floatatom 375 287 5 0 0 0 - - -;
#X msg 451 237 1;
#X obj 456 263 /;
#X obj 451 213 t b f;
#X floatatom 456 289 5 0 0 0 - - -;
#X msg 532 237 1;
#X obj 537 263 /;
#X obj 532 213 t b f;
#X floatatom 537 289 5 0 0 0 - - -;
#X msg 621 237 1;
#X obj 626 263 /;
#X obj 621 213 t b f;
#X floatatom 626 289 5 0 0 0 - - -;
#X msg 1135 244 1;
#X obj 1140 270 /;
#X obj 1135 220 t b f;
#X floatatom 1140 296 5 0 0 0 - - -;
#X msg 1226 244 1;
#X obj 1231 270 /;
#X obj 1226 220 t b f;
#X floatatom 1231 296 5 0 0 0 - - -;
#X msg 1330 244 1;
#X obj 1335 270 /;
#X obj 1330 220 t b f;
#X floatatom 1335 296 5 0 0 0 - - -;
#X msg 1437 242 1;
#X obj 1442 268 /;
#X obj 1437 218 t b f;
#X floatatom 1442 294 5 0 0 0 - - -;
#X msg 1538 242 1;
#X obj 1543 268 /;
#X obj 1538 218 t b f;
#X floatatom 1543 294 5 0 0 0 - - -;
#X obj 1586 98 bng 15 250 50 0 empty empty empty 17 7 0 10 -262144
-1 -1;
#X obj 1585 68 loadbang;
#X obj 357 341 *;
#X floatatom 296 302 5 0 0 0 - - -;
#X obj 438 340 *;
#X obj 520 341 *;
#X obj 607 340 *;
#X obj 1123 346 *;
#X obj 1214 348 *;
#X obj 1317 349 *;
#X obj 1423 347 *;
#X obj 1529 346 *;
#X obj 296 163 vsl 15 128 0.01 20 1 0 empty empty empty 0 -9 0 10 -262144
-1 -1 3847 1;
#X obj 354 645 hsl 80 15 0 1 0 0 empty empty empty -2 -8 0 10 -262144
-1 -1 7900 1;
#X obj 442 645 hsl 80 15 0 1 0 0 empty empty empty -2 -8 0 10 -262144
-1 -1 7900 1;
#X obj 533 645 hsl 80 15 0 1 0 0 empty empty empty -2 -8 0 10 -262144
-1 -1 7900 1;
#X obj 623 645 hsl 80 15 0 1 0 0 empty empty empty -2 -8 0 10 -262144
-1 -1 7900 1;
#X obj 1646 251 * 365;
#X floatatom 1645 275 4 0 0 0 - - -;
#X floatatom 201 213 8 0 0 0 - - -;
#X msg 202 170 1;
#X obj 202 190 /;
#X obj 1305 384 phasor~;
#X obj 1224 384 phasor~;
#X obj 1142 382 phasor~;
#X obj 1393 386 phasor~;
#X obj 1144 424 snapshot~;
#X obj 1224 425 snapshot~;
#X floatatom 1141 612 5 0 0 0 - - -;
#X floatatom 1224 611 5 0 0 0 - - -;
#X obj 1311 426 snapshot~;
#X floatatom 1311 612 5 0 0 0 - - -;
#X obj 1393 426 snapshot~;
#X floatatom 1393 612 5 0 0 0 - - -;
#X obj 1132 645 hsl 80 15 0 1 0 0 empty empty empty -2 -8 0 10 -262144
-1 -1 7900 1;
#X obj 1223 645 hsl 80 15 0 1 0 0 empty empty empty -2 -8 0 10 -262144
-1 -1 7900 1;
#X obj 1312 645 hsl 80 15 0 1 0 0 empty empty empty -2 -8 0 10 -262144
-1 -1 7900 1;
#X obj 1404 645 hsl 80 15 0 1 0 0 empty empty empty -2 -8 0 10 -262144
-1 -1 7900 1;
#X obj 1484 386 phasor~;
#X obj 1485 426 snapshot~;
#X floatatom 1484 612 5 0 0 0 - - -;
#X obj 1494 645 hsl 80 15 0 1 0 0 empty empty empty -2 -8 0 10 -262144
-1 -1 7900 1;
#X floatatom 1584 422 8 0 0 0 - - -;
#X msg 1585 379 1;
#X obj 1585 399 /;
#X floatatom 205 402 8 0 0 0 - - -;
#X msg 206 359 1;
#X obj 206 379 /;
#X text 112 241 Earth orbit period (s);
#X floatatom 295 127 5 0 0 0 - - -;
#X text 98 302 # Earth years per second;
#X floatatom 635 858 5 0 0 0 - - -;
#X floatatom 779 854 5 0 0 0 - - -;
#X obj 779 877 t f f;
#N canvas 159 59 621 412 phaseAbsVal 0;
#X obj 180 135 < 0;
#X msg 144 125 1;
#X obj 144 147 -;
#X obj 144 104 t b f;
#X obj 144 183 spigot;
#X obj 194 159 tgl 15 0 empty empty empty 17 7 0 10 -262144 -1 -1 0
1;
#X obj 51 175 spigot;
#X obj 89 154 tgl 15 0 empty empty empty 17 7 0 10 -262144 -1 -1 1
1;
#X obj 89 133 >= 0;
#X text 224 126 if y is positive \, check positive angle if y is negative
\, check negative angle;
#X obj 49 48 inlet;
#X obj 227 45 inlet;
#X text 276 47 y positive or negative;
#X obj 99 255 outlet;
#X connect 0 0 4 1;
#X connect 0 0 5 0;
#X connect 1 0 2 0;
#X connect 2 0 4 0;
#X connect 3 0 1 0;
#X connect 3 1 2 1;
#X connect 4 0 13 0;
#X connect 6 0 13 0;
#X connect 8 0 6 1;
#X connect 8 0 7 0;
#X connect 10 0 3 0;
#X connect 10 0 6 0;
#X connect 11 0 0 0;
#X connect 11 0 8 0;
#X restore 635 1021 pd phaseAbsVal;
#X floatatom 635 991 5 0 0 0 - - -;
#X text 676 990 angle as phasor value from 0:1;
#X obj 635 962 / 360;
#X floatatom 635 932 5 0 0 0 - - -;
#X obj 633 1062 < 0.05;
#X obj 632 1098 tgl 15 0 empty empty empty 17 7 0 10 -262144 -1 -1
1 1;
#X text 699 1065 Sometimes the check may miss depending on the steps
size of the phasor at high rates. So \, if phase is less than n% just
use 0 value;
#X obj 632 1119 s useZeroCrossing;
#X obj 203 147 t b f;
#X obj 533 755 s EarthPhase;
#X obj 1646 227 r EarthPhase;
#X obj 544 994 s userAngle;
#X text 460 99 Earth days per each planet year;
#X obj 348 692 bng 25 50 20 0 empty empty empty 17 7 0 10 -262144 -1
-1;
#N canvas 306 246 450 300 angleFilt 0;
#X obj 190 117 sel 1;
#X obj 190 141 bng 15 50 20 0 empty empty empty 17 7 0 10 -262144 -1
-1;
#X obj 187 67 t f f;
#X obj 88 124 sel 1;
#X obj 88 148 bng 15 50 20 0 empty empty empty 17 7 0 10 -262144 -1
-1;
#X obj 87 93 change;
#X obj 106 41 r userAngle;
#X obj 222 146 r useZeroCrossing;
#X obj 184 173 spigot;
#X obj 122 174 sel 0 1;
#X msg 122 205 1;
#X msg 143 226 0;
#X obj 92 256 spigot;
#X obj 127 5 inlet;
#X obj 92 280 outlet;
#X obj 190 93 >;
#X obj 88 67 >=;
#X connect 0 0 1 0;
#X connect 1 0 8 0;
#X connect 2 0 15 1;
#X connect 2 1 15 0;
#X connect 3 0 4 0;
#X connect 4 0 12 0;
#X connect 5 0 3 0;
#X connect 6 0 16 1;
#X connect 7 0 8 1;
#X connect 7 0 9 0;
#X connect 8 0 14 0;
#X connect 9 0 10 0;
#X connect 9 1 11 0;
#X connect 10 0 12 1;
#X connect 11 0 12 1;
#X connect 12 0 14 0;
#X connect 13 0 2 0;
#X connect 13 0 16 0;
#X connect 15 0 0 0;
#X connect 16 0 5 0;
#X restore 348 662 pd angleFilt;
#X obj 439 693 bng 25 50 20 0 empty empty empty 17 7 0 10 -262144 -1
-1;
#N canvas 306 246 450 300 angleFilt 0;
#X obj 190 117 sel 1;
#X obj 190 141 bng 15 50 20 0 empty empty empty 17 7 0 10 -262144 -1
-1;
#X obj 187 67 t f f;
#X obj 88 124 sel 1;
#X obj 88 148 bng 15 50 20 0 empty empty empty 17 7 0 10 -262144 -1
-1;
#X obj 87 93 change;
#X obj 106 41 r userAngle;
#X obj 222 146 r useZeroCrossing;
#X obj 184 173 spigot;
#X obj 122 174 sel 0 1;
#X msg 122 205 1;
#X msg 143 226 0;
#X obj 92 256 spigot;
#X obj 127 5 inlet;
#X obj 92 280 outlet;
#X obj 88 67 <=;
#X obj 190 93 >;
#X connect 0 0 1 0;
#X connect 1 0 8 0;
#X connect 2 0 16 1;
#X connect 2 1 16 0;
#X connect 3 0 4 0;
#X connect 4 0 12 0;
#X connect 5 0 3 0;
#X connect 6 0 15 1;
#X connect 7 0 8 1;
#X connect 7 0 9 0;
#X connect 8 0 14 0;
#X connect 9 0 10 0;
#X connect 9 1 11 0;
#X connect 10 0 12 1;
#X connect 11 0 12 1;
#X connect 12 0 14 0;
#X connect 13 0 2 0;
#X connect 13 0 15 0;
#X connect 15 0 5 0;
#X connect 16 0 0 0;
#X restore 439 663 pd angleFilt;
#X obj 529 693 bng 25 50 20 0 empty empty empty 17 7 0 10 -262144 -1
-1;
#N canvas 306 246 450 300 angleFilt 0;
#X obj 190 117 sel 1;
#X obj 190 141 bng 15 50 20 0 empty empty empty 17 7 0 10 -262144 -1
-1;
#X obj 187 67 t f f;
#X obj 88 124 sel 1;
#X obj 88 148 bng 15 50 20 0 empty empty empty 17 7 0 10 -262144 -1
-1;
#X obj 87 93 change;
#X obj 106 41 r userAngle;
#X obj 222 146 r useZeroCrossing;
#X obj 184 173 spigot;
#X obj 122 174 sel 0 1;
#X msg 122 205 1;
#X msg 143 226 0;
#X obj 92 256 spigot;
#X obj 127 5 inlet;
#X obj 92 280 outlet;
#X obj 190 93 >;
#X obj 88 67 <=;
#X connect 0 0 1 0;
#X connect 1 0 8 0;
#X connect 2 0 15 1;
#X connect 2 1 15 0;
#X connect 3 0 4 0;
#X connect 4 0 12 0;
#X connect 5 0 3 0;
#X connect 6 0 16 1;
#X connect 7 0 8 1;
#X connect 7 0 9 0;
#X connect 8 0 14 0;
#X connect 9 0 10 0;
#X connect 9 1 11 0;
#X connect 10 0 12 1;
#X connect 11 0 12 1;
#X connect 12 0 14 0;
#X connect 13 0 2 0;
#X connect 13 0 16 0;
#X connect 15 0 0 0;
#X connect 16 0 5 0;
#X restore 529 663 pd angleFilt;
#X obj 620 694 bng 25 50 20 0 empty empty empty 17 7 0 10 -262144 -1
-1;
#N canvas 306 246 450 300 angleFilt 0;
#X obj 190 117 sel 1;
#X obj 190 141 bng 15 50 20 0 empty empty empty 17 7 0 10 -262144 -1
-1;
#X obj 187 67 t f f;
#X obj 88 124 sel 1;
#X obj 88 148 bng 15 50 20 0 empty empty empty 17 7 0 10 -262144 -1
-1;
#X obj 87 93 change;
#X obj 106 41 r userAngle;
#X obj 222 146 r useZeroCrossing;
#X obj 184 173 spigot;
#X obj 122 174 sel 0 1;
#X msg 122 205 1;
#X msg 143 226 0;
#X obj 92 256 spigot;
#X obj 127 5 inlet;
#X obj 92 280 outlet;
#X obj 89 67 <=;
#X obj 190 93 >;
#X connect 0 0 1 0;
#X connect 1 0 8 0;
#X connect 2 0 16 1;
#X connect 2 1 16 0;
#X connect 3 0 4 0;
#X connect 4 0 12 0;
#X connect 5 0 3 0;
#X connect 6 0 15 1;
#X connect 7 0 8 1;
#X connect 7 0 9 0;
#X connect 8 0 14 0;
#X connect 9 0 10 0;
#X connect 9 1 11 0;
#X connect 10 0 12 1;
#X connect 11 0 12 1;
#X connect 12 0 14 0;
#X connect 13 0 2 0;
#X connect 13 0 15 0;
#X connect 15 0 5 0;
#X connect 16 0 0 0;
#X restore 620 664 pd angleFilt;
#X obj 1130 694 bng 25 50 20 0 empty empty empty 17 7 0 10 -262144
-1 -1;
#N canvas 306 246 450 300 angleFilt 0;
#X obj 190 117 sel 1;
#X obj 190 141 bng 15 50 20 0 empty empty empty 17 7 0 10 -262144 -1
-1;
#X obj 187 67 t f f;
#X obj 88 124 sel 1;
#X obj 88 148 bng 15 50 20 0 empty empty empty 17 7 0 10 -262144 -1
-1;
#X obj 87 93 change;
#X obj 106 41 r userAngle;
#X obj 222 146 r useZeroCrossing;
#X obj 184 173 spigot;
#X obj 122 174 sel 0 1;
#X msg 122 205 1;
#X msg 143 226 0;
#X obj 92 256 spigot;
#X obj 127 5 inlet;
#X obj 92 280 outlet;
#X obj 87 67 <=;
#X obj 190 93 >;
#X connect 0 0 1 0;
#X connect 1 0 8 0;
#X connect 2 0 16 1;
#X connect 2 1 16 0;
#X connect 3 0 4 0;
#X connect 4 0 12 0;
#X connect 5 0 3 0;
#X connect 6 0 15 1;
#X connect 7 0 8 1;
#X connect 7 0 9 0;
#X connect 8 0 14 0;
#X connect 9 0 10 0;
#X connect 9 1 11 0;
#X connect 10 0 12 1;
#X connect 11 0 12 1;
#X connect 12 0 14 0;
#X connect 13 0 2 0;
#X connect 13 0 15 0;
#X connect 15 0 5 0;
#X connect 16 0 0 0;
#X restore 1130 664 pd angleFilt;
#X obj 1221 695 bng 25 50 20 0 empty empty empty 17 7 0 10 -262144
-1 -1;
#N canvas 306 246 450 300 angleFilt 0;
#X obj 190 117 sel 1;
#X obj 190 141 bng 15 50 20 0 empty empty empty 17 7 0 10 -262144 -1
-1;
#X obj 187 67 t f f;
#X obj 88 124 sel 1;
#X obj 88 148 bng 15 50 20 0 empty empty empty 17 7 0 10 -262144 -1
-1;
#X obj 87 93 change;
#X obj 106 41 r userAngle;
#X obj 222 146 r useZeroCrossing;
#X obj 184 173 spigot;
#X obj 122 174 sel 0 1;
#X msg 122 205 1;
#X msg 143 226 0;
#X obj 92 256 spigot;
#X obj 127 5 inlet;
#X obj 92 280 outlet;
#X obj 190 92 >;
#X obj 88 67 <=;
#X connect 0 0 1 0;
#X connect 1 0 8 0;
#X connect 2 0 15 1;
#X connect 2 1 15 0;
#X connect 3 0 4 0;
#X connect 4 0 12 0;
#X connect 5 0 3 0;
#X connect 6 0 16 1;
#X connect 7 0 8 1;
#X connect 7 0 9 0;
#X connect 8 0 14 0;
#X connect 9 0 10 0;
#X connect 9 1 11 0;
#X connect 10 0 12 1;
#X connect 11 0 12 1;
#X connect 12 0 14 0;
#X connect 13 0 2 0;
#X connect 13 0 16 0;
#X connect 15 0 0 0;
#X connect 16 0 5 0;
#X restore 1221 665 pd angleFilt;
#X obj 1311 695 bng 25 50 20 0 empty empty empty 17 7 0 10 -262144
-1 -1;
#N canvas 306 246 450 300 angleFilt 0;
#X obj 190 117 sel 1;
#X obj 190 141 bng 15 50 20 0 empty empty empty 17 7 0 10 -262144 -1
-1;
#X obj 187 67 t f f;
#X obj 88 124 sel 1;
#X obj 88 148 bng 15 50 20 0 empty empty empty 17 7 0 10 -262144 -1
-1;
#X obj 87 93 change;
#X obj 106 41 r userAngle;
#X obj 222 146 r useZeroCrossing;
#X obj 184 173 spigot;
#X obj 122 174 sel 0 1;
#X msg 122 205 1;
#X msg 143 226 0;
#X obj 92 256 spigot;
#X obj 127 5 inlet;
#X obj 92 280 outlet;
#X obj 190 93 >;
#X obj 88 67 <=;
#X connect 0 0 1 0;
#X connect 1 0 8 0;
#X connect 2 0 15 1;
#X connect 2 1 15 0;
#X connect 3 0 4 0;
#X connect 4 0 12 0;
#X connect 5 0 3 0;
#X connect 6 0 16 1;
#X connect 7 0 8 1;
#X connect 7 0 9 0;
#X connect 8 0 14 0;
#X connect 9 0 10 0;
#X connect 9 1 11 0;
#X connect 10 0 12 1;
#X connect 11 0 12 1;
#X connect 12 0 14 0;
#X connect 13 0 2 0;
#X connect 13 0 16 0;
#X connect 15 0 0 0;
#X connect 16 0 5 0;
#X restore 1311 665 pd angleFilt;
#X obj 1402 696 bng 25 50 20 0 empty empty empty 17 7 0 10 -262144
-1 -1;
#N canvas 306 246 450 300 angleFilt 0;
#X obj 190 117 sel 1;
#X obj 190 141 bng 15 50 20 0 empty empty empty 17 7 0 10 -262144 -1
-1;
#X obj 187 67 t f f;
#X obj 88 124 sel 1;
#X obj 88 148 bng 15 50 20 0 empty empty empty 17 7 0 10 -262144 -1
-1;
#X obj 87 93 change;
#X obj 106 41 r userAngle;
#X obj 222 146 r useZeroCrossing;
#X obj 184 173 spigot;
#X obj 122 174 sel 0 1;
#X msg 122 205 1;
#X msg 143 226 0;
#X obj 92 256 spigot;
#X obj 127 5 inlet;
#X obj 92 280 outlet;
#X obj 190 93 >;
#X obj 88 67 <=;
#X connect 0 0 1 0;
#X connect 1 0 8 0;
#X connect 2 0 15 1;
#X connect 2 1 15 0;
#X connect 3 0 4 0;
#X connect 4 0 12 0;
#X connect 5 0 3 0;
#X connect 6 0 16 1;
#X connect 7 0 8 1;
#X connect 7 0 9 0;
#X connect 8 0 14 0;
#X connect 9 0 10 0;
#X connect 9 1 11 0;
#X connect 10 0 12 1;
#X connect 11 0 12 1;
#X connect 12 0 14 0;
#X connect 13 0 2 0;
#X connect 13 0 16 0;
#X connect 15 0 0 0;
#X connect 16 0 5 0;
#X restore 1402 666 pd angleFilt;
#X obj 1492 696 bng 25 50 20 0 empty empty empty 17 7 0 10 -262144
-1 -1;
#N canvas 306 246 450 300 angleFilt 0;
#X obj 190 117 sel 1;
#X obj 190 141 bng 15 50 20 0 empty empty empty 17 7 0 10 -262144 -1
-1;
#X obj 187 67 t f f;
#X obj 88 124 sel 1;
#X obj 88 148 bng 15 50 20 0 empty empty empty 17 7 0 10 -262144 -1
-1;
#X obj 87 93 change;
#X obj 106 41 r userAngle;
#X obj 222 146 r useZeroCrossing;
#X obj 184 173 spigot;
#X obj 122 174 sel 0 1;
#X msg 122 205 1;
#X msg 143 226 0;
#X obj 92 256 spigot;
#X obj 127 5 inlet;
#X obj 92 280 outlet;
#X obj 190 93 >;
#X obj 88 67 <=;
#X connect 0 0 1 0;
#X connect 1 0 8 0;
#X connect 2 0 15 1;
#X connect 2 1 15 0;
#X connect 3 0 4 0;
#X connect 4 0 12 0;
#X connect 5 0 3 0;
#X connect 6 0 16 1;
#X connect 7 0 8 1;
#X connect 7 0 9 0;
#X connect 8 0 14 0;
#X connect 9 0 10 0;
#X connect 9 1 11 0;
#X connect 10 0 12 1;
#X connect 11 0 12 1;
#X connect 12 0 14 0;
#X connect 13 0 2 0;
#X connect 13 0 16 0;
#X connect 15 0 0 0;
#X connect 16 0 5 0;
#X restore 1492 666 pd angleFilt;
#X obj 354 627 hsl 80 15 0 1 0 0 empty empty empty -2 -8 0 10 -262144
-1 -1 0 1;
#X obj 442 627 hsl 80 15 0 1 0 0 empty empty empty -2 -8 0 10 -262144
-1 -1 0 1;
#X obj 531 627 hsl 80 15 0 1 0 0 empty empty empty -2 -8 0 10 -262144
-1 -1 0 1;
#X obj 623 627 hsl 80 15 0 1 0 0 empty empty empty -2 -8 0 10 -262144
-1 -1 0 1;
#X obj 1132 627 hsl 80 15 0 1 0 0 empty empty empty -2 -8 0 10 -262144
-1 -1 0 1;
#X obj 1223 627 hsl 80 15 0 1 0 0 empty empty empty -2 -8 0 10 -262144
-1 -1 0 1;
#X obj 1312 627 hsl 80 15 0 1 0 0 empty empty empty -2 -8 0 10 -262144
-1 -1 0 1;
#X obj 1404 627 hsl 80 15 0 1 0 0 empty empty empty -2 -8 0 10 -262144
-1 -1 0 1;
#X obj 1494 627 hsl 80 15 0 1 0 0 empty empty empty -2 -8 0 10 -262144
-1 -1 0 1;
#X obj 1603 607 r userAngle;
#X text 677 857 x;
#X text 1449 121 y;
#N canvas 0 25 1105 776 calculateUserAngle 0;
#X obj 129 80 inlet;
#X obj 241 80 inlet;
#X text 240 163 https://www.mathsisfun.com/polar-cartesian-coordinates.html
theta = tan^-1 (y/x);
#X obj 161 274 atan2;
#X floatatom 142 199 5 0 0 0 - - -;
#X floatatom 139 163 5 0 0 0 - - -;
#X obj 161 321 * 180;
#X obj 161 345 /;
#X obj 204 246 t b f;
#X obj 190 421 sel 0 1;
#X obj 163 475 +;
#X msg 190 445 0;
#X obj 190 397 < 0;
#X msg 227 445 360;
#X obj 161 369 t f f;
#X text 185 162 x;
#X text 188 200 y;
#X text 247 418 quadrant 1/ 2 or 3/ 4?;
#X text 129 57 x;
#X text 239 56 y;
#X obj 164 581 outlet;
#X obj 244 300 r pi;
#X connect 0 0 5 0;
#X connect 1 0 4 0;
#X connect 3 0 6 0;
#X connect 4 0 3 0;
#X connect 5 0 8 0;
#X connect 6 0 7 0;
#X connect 7 0 14 0;
#X connect 8 0 4 0;
#X connect 8 1 3 1;
#X connect 9 0 11 0;
#X connect 9 1 13 0;
#X connect 10 0 20 0;
#X connect 11 0 10 1;
#X connect 12 0 9 0;
#X connect 13 0 10 1;
#X connect 14 0 10 0;
#X connect 14 1 12 0;
#X connect 21 0 7 1;
#X restore 635 907 pd calculateUserAngle;
#X text 25 401 mercury orbit period (s);
#X text 1580 441 Pluto orbit period (s);
#X text 346 727 Mercury;
#X text 435 729 Venus;
#X text 521 731 Earth;
#X text 617 731 Mars;
#X text 1122 733 Jupiter;
#X text 1215 734 Saturn;
#X text 1304 733 Uranus;
#X text 1395 736 Neptune;
#X text 1490 737 Pluto;
#X text 1681 277 Earth days;
#X text 823 878 User Coordinates;
#X obj 286 342 loadbang;
#X obj 296 79 loadbang;
#X obj 169 43 r orbitSpeed;
#X obj 300 394 metro 30;
#X obj 153 573 s orbitAngleList;
#X msg 780 826 0;
#X msg 634 828 0;
#X obj 632 803 loadbang;
#N canvas 0 25 450 300 *pi*2 0;
#X obj 176 109 *, f 4;
#X obj 202 61 r pi;
#X obj 202 85 * 2;
#X obj 160 26 inlet;
#X obj 176 133 outlet;
#X connect 0 0 4 0;
#X connect 1 0 2 0;
#X connect 2 0 0 1;
#X connect 3 0 0 0;
#X restore 390 528 pd *pi*2;
#N canvas 0 25 450 300 *pi*2 0;
#X obj 176 109 *, f 4;
#X obj 202 61 r pi;
#X obj 202 85 * 2;
#X obj 160 26 inlet;
#X obj 176 133 outlet;
#X connect 0 0 4 0;
#X connect 1 0 2 0;
#X connect 2 0 0 1;
#X connect 3 0 0 0;
#X restore 465 527 pd *pi*2;
#N canvas 0 25 450 300 *pi*2 0;
#X obj 176 109 *, f 4;
#X obj 202 61 r pi;
#X obj 202 85 * 2;
#X obj 160 26 inlet;
#X obj 176 133 outlet;
#X connect 0 0 4 0;
#X connect 1 0 2 0;
#X connect 2 0 0 1;
#X connect 3 0 0 0;
#X restore 555 530 pd *pi*2;
#N canvas 0 25 450 300 *pi*2 0;
#X obj 176 109 *, f 4;
#X obj 202 61 r pi;
#X obj 202 85 * 2;
#X obj 160 26 inlet;
#X obj 176 133 outlet;
#X connect 0 0 4 0;
#X connect 1 0 2 0;
#X connect 2 0 0 1;
#X connect 3 0 0 0;
#X restore 639 528 pd *pi*2;
#N canvas 0 25 450 300 *pi*2 0;
#X obj 176 109 *, f 4;
#X obj 202 61 r pi;
#X obj 202 85 * 2;
#X obj 160 26 inlet;
#X obj 176 133 outlet;
#X connect 0 0 4 0;
#X connect 1 0 2 0;
#X connect 2 0 0 1;
#X connect 3 0 0 0;
#X restore 1159 529 pd *pi*2;
#N canvas 0 25 450 300 *pi*2 0;
#X obj 176 109 *, f 4;
#X obj 202 61 r pi;
#X obj 202 85 * 2;
#X obj 160 26 inlet;
#X obj 176 133 outlet;
#X connect 0 0 4 0;
#X connect 1 0 2 0;
#X connect 2 0 0 1;
#X connect 3 0 0 0;
#X restore 1240 528 pd *pi*2;
#N canvas 0 25 450 300 *pi*2 0;
#X obj 176 109 *, f 4;
#X obj 202 61 r pi;
#X obj 202 85 * 2;
#X obj 160 26 inlet;
#X obj 176 133 outlet;
#X connect 0 0 4 0;
#X connect 1 0 2 0;
#X connect 2 0 0 1;
#X connect 3 0 0 0;
#X restore 1327 529 pd *pi*2;
#N canvas 0 25 450 300 *pi*2 0;
#X obj 176 109 *, f 4;
#X obj 202 61 r pi;
#X obj 202 85 * 2;
#X obj 160 26 inlet;
#X obj 176 133 outlet;
#X connect 0 0 4 0;
#X connect 1 0 2 0;
#X connect 2 0 0 1;
#X connect 3 0 0 0;
#X restore 1408 528 pd *pi*2;
#N canvas 0 25 450 300 *pi*2 0;
#X obj 176 109 *, f 4;
#X obj 202 61 r pi;
#X obj 202 85 * 2;
#X obj 160 26 inlet;
#X obj 176 133 outlet;
#X connect 0 0 4 0;
#X connect 1 0 2 0;
#X connect 2 0 0 1;
#X connect 3 0 0 0;
#X restore 1500 530 pd *pi*2;
#X msg 295 103 0.1;
#X obj 706 799 r userX;
#X obj 814 797 r userY;
#X obj 385 568 s mAngle;
#X obj 465 566 s vAngle;
#X obj 552 567 s eAngle;
#X obj 1158 569 s jAngle;
#X obj 1245 569 s sAngle;
#X obj 1327 572 s uAngle;
#X obj 1409 573 s nAngle;
#X obj 1501 571 s pAngle;
#X obj 633 567 s maAngle;
#N canvas 0 25 450 300 invert 0;
#X obj 231 72 inlet;
#X obj 231 96 t b f;
#X msg 221 123 1;
#X obj 240 164 -;
#X obj 240 188 outlet;
#X connect 0 0 1 0;
#X connect 1 0 2 0;
#X connect 1 1 3 1;
#X connect 2 0 3 0;
#X connect 3 0 4 0;
#X restore 368 447 pd invert;
#N canvas 0 25 450 300 invert 0;
#X obj 231 72 inlet;
#X obj 231 96 t b f;
#X msg 221 123 1;
#X obj 240 164 -;
#X obj 240 188 outlet;
#X connect 0 0 1 0;
#X connect 1 0 2 0;
#X connect 1 1 3 1;
#X connect 2 0 3 0;
#X connect 3 0 4 0;
#X restore 450 448 pd invert;
#N canvas 0 25 450 300 invert 0;
#X obj 231 72 inlet;
#X obj 231 96 t b f;
#X msg 221 123 1;
#X obj 240 164 -;
#X obj 240 188 outlet;
#X connect 0 0 1 0;
#X connect 1 0 2 0;
#X connect 1 1 3 1;
#X connect 2 0 3 0;
#X connect 3 0 4 0;
#X restore 536 450 pd invert;
#N canvas 0 25 450 300 invert 0;
#X obj 231 72 inlet;
#X obj 231 96 t b f;
#X msg 221 123 1;
#X obj 240 164 -;
#X obj 240 188 outlet;
#X connect 0 0 1 0;
#X connect 1 0 2 0;
#X connect 1 1 3 1;
#X connect 2 0 3 0;
#X connect 3 0 4 0;
#X restore 618 451 pd invert;
#N canvas 0 25 450 300 invert 0;
#X obj 231 72 inlet;
#X obj 231 96 t b f;
#X msg 221 123 1;
#X obj 240 164 -;
#X obj 240 188 outlet;
#X connect 0 0 1 0;
#X connect 1 0 2 0;
#X connect 1 1 3 1;
#X connect 2 0 3 0;
#X connect 3 0 4 0;
#X restore 1143 447 pd invert;
#N canvas 0 25 450 300 invert 0;
#X obj 231 72 inlet;
#X obj 231 96 t b f;
#X msg 221 123 1;
#X obj 240 164 -;
#X obj 240 188 outlet;
#X connect 0 0 1 0;
#X connect 1 0 2 0;
#X connect 1 1 3 1;
#X connect 2 0 3 0;
#X connect 3 0 4 0;
#X restore 1225 448 pd invert;
#N canvas 0 25 450 300 invert 0;
#X obj 231 72 inlet;
#X obj 231 96 t b f;
#X msg 221 123 1;
#X obj 240 164 -;
#X obj 240 188 outlet;
#X connect 0 0 1 0;
#X connect 1 0 2 0;
#X connect 1 1 3 1;
#X connect 2 0 3 0;
#X connect 3 0 4 0;
#X restore 1312 450 pd invert;
#N canvas 0 25 450 300 invert 0;
#X obj 231 72 inlet;
#X obj 231 96 t b f;
#X msg 221 123 1;
#X obj 240 164 -;
#X obj 240 188 outlet;
#X connect 0 0 1 0;
#X connect 1 0 2 0;
#X connect 1 1 3 1;
#X connect 2 0 3 0;
#X connect 3 0 4 0;
#X restore 1394 451 pd invert;
#N canvas 0 25 450 300 invert 0;
#X obj 231 72 inlet;
#X obj 231 96 t b f;
#X msg 221 123 1;
#X obj 240 164 -;
#X obj 240 188 outlet;
#X connect 0 0 1 0;
#X connect 1 0 2 0;
#X connect 1 1 3 1;
#X connect 2 0 3 0;
#X connect 3 0 4 0;
#X restore 1485 450 pd invert;
#N canvas 0 25 450 300 rPhase 0;
#X obj 258 103 loadbang;
#X obj 258 127 random 100;
#X obj 258 151 / 100;
#X obj 258 175 outlet;
#X connect 0 0 1 0;
#X connect 1 0 2 0;
#X connect 2 0 3 0;
#X restore 378 358 pd rPhase;
#N canvas 0 25 450 300 rPhase 0;
#X obj 258 103 loadbang;
#X obj 258 127 random 100;
#X obj 258 151 / 100;
#X obj 258 175 outlet;
#X connect 0 0 1 0;
#X connect 1 0 2 0;
#X connect 2 0 3 0;
#X restore 461 359 pd rPhase;
#N canvas 0 25 450 300 rPhase 0;
#X obj 258 103 loadbang;
#X obj 258 127 random 100;
#X obj 258 151 / 100;
#X obj 258 175 outlet;
#X connect 0 0 1 0;
#X connect 1 0 2 0;
#X connect 2 0 3 0;
#X restore 541 361 pd rPhase;
#N canvas 0 25 450 300 rPhase 0;
#X obj 258 103 loadbang;
#X obj 258 127 random 100;
#X obj 258 151 / 100;
#X obj 258 175 outlet;
#X connect 0 0 1 0;
#X connect 1 0 2 0;
#X connect 2 0 3 0;
#X restore 626 361 pd rPhase;
#N canvas 0 25 450 300 rPhase 0;
#X obj 258 103 loadbang;
#X obj 258 127 random 100;
#X obj 258 151 / 100;
#X obj 258 175 outlet;
#X connect 0 0 1 0;
#X connect 1 0 2 0;
#X connect 2 0 3 0;
#X restore 1145 358 pd rPhase;
#N canvas 0 25 450 300 rPhase 0;
#X obj 258 103 loadbang;
#X obj 258 127 random 100;
#X obj 258 151 / 100;
#X obj 258 175 outlet;
#X connect 0 0 1 0;
#X connect 1 0 2 0;
#X connect 2 0 3 0;
#X restore 1236 360 pd rPhase;
#N canvas 0 25 450 300 rPhase 0;
#X obj 258 103 loadbang;
#X obj 258 127 random 100;
#X obj 258 151 / 100;
#X obj 258 175 outlet;
#X connect 0 0 1 0;
#X connect 1 0 2 0;
#X connect 2 0 3 0;
#X restore 1321 360 pd rPhase;
#N canvas 0 25 450 300 rPhase 0;
#X obj 258 103 loadbang;
#X obj 258 127 random 100;
#X obj 258 151 / 100;
#X obj 258 175 outlet;
#X connect 0 0 1 0;
#X connect 1 0 2 0;
#X connect 2 0 3 0;
#X restore 1409 363 pd rPhase;
#N canvas 0 25 450 300 rPhase 0;
#X obj 258 103 loadbang;
#X obj 258 127 random 100;
#X obj 258 151 / 100;
#X obj 258 175 outlet;
#X connect 0 0 1 0;
#X connect 1 0 2 0;
#X connect 2 0 3 0;
#X restore 1504 363 pd rPhase;
#N canvas 0 25 1440 511 trojanAngles 0;
#X obj 418 113 + 0.166667;
#X obj 267 124 - 0.166667;
#X obj 378 133 > 1;
#X floatatom 451 134 5 0 0 0 - - -;
#X floatatom 297 152 5 0 0 0 - - -;
#X obj 408 178 spigot;
#X obj 408 202 - 1;
#X obj 460 178 spigot;
#X obj 378 157 == 0;
#X obj 267 154 < 0;
#X obj 228 177 spigot;
#X obj 280 179 == 0;
#X obj 281 206 spigot;
#X obj 228 201 + 1;
#X obj 262 236 outlet;
#X obj 410 229 outlet;
#X obj 381 30 inlet;
#X connect 0 0 2 0;
#X connect 0 0 3 0;
#X connect 0 0 5 0;
#X connect 0 0 7 0;
#X connect 1 0 4 0;
#X connect 1 0 9 0;
#X connect 1 0 10 0;
#X connect 1 0 12 0;
#X connect 2 0 5 1;
#X connect 2 0 8 0;
#X connect 5 0 6 0;
#X connect 6 0 15 0;
#X connect 7 0 15 0;
#X connect 8 0 7 1;
#X connect 9 0 10 1;
#X connect 9 0 11 0;
#X connect 10 0 13 0;
#X connect 11 0 12 1;
#X connect 12 0 14 0;
#X connect 13 0 14 0;
#X connect 16 0 0 0;
#X connect 16 0 1 0;
#X restore 1154 469 pd trojanAngles;
#N canvas 0 25 450 300 *pi*2 0;
#X obj 176 109 *, f 4;
#X obj 202 61 r pi;
#X obj 202 85 * 2;
#X obj 160 26 inlet;
#X obj 176 133 outlet;
#X connect 0 0 4 0;
#X connect 1 0 2 0;
#X connect 2 0 0 1;
#X connect 3 0 0 0;
#X restore 1155 491 pd *pi*2;
#N canvas 0 25 450 300 *pi*2 0;
#X obj 176 109 *, f 4;
#X obj 202 61 r pi;
#X obj 202 85 * 2;
#X obj 160 26 inlet;
#X obj 176 133 outlet;
#X connect 0 0 4 0;
#X connect 1 0 2 0;
#X connect 2 0 0 1;
#X connect 3 0 0 0;
#X restore 1258 492 pd *pi*2;
#X obj 742 163 / 365;
#X floatatom 742 194 5 0 0 0 - - -;
#X obj 739 392 phasor~;
#X obj 739 433 snapshot~;
#X floatatom 741 602 5 0 0 0 - - -;
#X msg 741 243 1;
#X obj 746 269 /;
#X obj 741 219 t b f;
#X floatatom 746 295 5 0 0 0 - - -;
#X obj 727 346 *;
#X obj 743 651 hsl 80 15 0 1 0 0 empty empty empty -2 -8 0 10 -262144
-1 -1 7900 1;
#X obj 740 700 bng 25 50 20 0 empty empty empty 17 7 0 10 -262144 -1
-1;
#N canvas 306 246 450 300 angleFilt 0;
#X obj 190 117 sel 1;
#X obj 190 141 bng 15 50 20 0 empty empty empty 17 7 0 10 -262144 -1
-1;
#X obj 187 67 t f f;
#X obj 88 124 sel 1;
#X obj 88 148 bng 15 50 20 0 empty empty empty 17 7 0 10 -262144 -1
-1;
#X obj 87 93 change;
#X obj 106 41 r userAngle;
#X obj 222 146 r useZeroCrossing;
#X obj 184 173 spigot;
#X obj 122 174 sel 0 1;
#X msg 122 205 1;
#X msg 143 226 0;
#X obj 92 256 spigot;
#X obj 127 5 inlet;
#X obj 92 280 outlet;
#X obj 89 67 <=;
#X obj 190 93 >;
#X connect 0 0 1 0;
#X connect 1 0 8 0;
#X connect 2 0 16 1;
#X connect 2 1 16 0;
#X connect 3 0 4 0;
#X connect 4 0 12 0;
#X connect 5 0 3 0;
#X connect 6 0 15 1;
#X connect 7 0 8 1;
#X connect 7 0 9 0;
#X connect 8 0 14 0;
#X connect 9 0 10 0;
#X connect 9 1 11 0;
#X connect 10 0 12 1;
#X connect 11 0 12 1;
#X connect 12 0 14 0;
#X connect 13 0 2 0;
#X connect 13 0 15 0;
#X connect 15 0 5 0;
#X connect 16 0 0 0;
#X restore 740 670 pd angleFilt;
#X obj 743 633 hsl 80 15 0 1 0 0 empty empty empty -2 -8 0 10 -262144
-1 -1 0 1;
#N canvas 0 25 450 300 *pi*2 0;
#X obj 176 109 *, f 4;
#X obj 202 61 r pi;
#X obj 202 85 * 2;
#X obj 160 26 inlet;
#X obj 176 133 outlet;
#X connect 0 0 4 0;
#X connect 1 0 2 0;
#X connect 2 0 0 1;
#X connect 3 0 0 0;
#X restore 755 521 pd *pi*2;
#X f 9;
#N canvas 0 25 450 300 invert 0;
#X obj 231 72 inlet;
#X obj 231 96 t b f;
#X msg 221 123 1;
#X obj 240 164 -;
#X obj 240 188 outlet;
#X connect 0 0 1 0;
#X connect 1 0 2 0;
#X connect 1 1 3 1;
#X connect 2 0 3 0;
#X connect 3 0 4 0;
#X restore 738 457 pd invert;
#N canvas 0 25 450 300 rPhase 0;
#X obj 258 103 loadbang;
#X obj 258 127 random 100;
#X obj 258 151 / 100;
#X obj 258 175 outlet;
#X connect 0 0 1 0;
#X connect 1 0 2 0;
#X connect 2 0 3 0;
#X restore 746 367 pd rPhase;
#X msg 742 132 1642;
#X text 784 130 365 * 4.5 years;
#X text 737 737 asteroid;
#X obj 1785 155 / 365;
#X floatatom 1785 186 5 0 0 0 - - -;
#X obj 1782 384 phasor~;
#X obj 1782 425 snapshot~;
#X floatatom 1784 594 5 0 0 0 - - -;
#X msg 1784 235 1;
#X obj 1789 261 /;
#X obj 1784 211 t b f;
#X floatatom 1789 287 5 0 0 0 - - -;
#X obj 1770 338 *;
#X obj 1786 643 hsl 80 15 0 1 0 0 empty empty empty -2 -8 0 10 -262144
-1 -1 7900 1;
#X obj 1783 692 bng 25 50 20 0 empty empty empty 17 7 0 10 -262144
-1 -1;
#N canvas 306 246 450 300 angleFilt 0;
#X obj 190 117 sel 1;
#X obj 190 141 bng 15 50 20 0 empty empty empty 17 7 0 10 -262144 -1
-1;
#X obj 187 67 t f f;
#X obj 88 124 sel 1;
#X obj 88 148 bng 15 50 20 0 empty empty empty 17 7 0 10 -262144 -1
-1;
#X obj 87 93 change;
#X obj 106 41 r userAngle;
#X obj 222 146 r useZeroCrossing;
#X obj 184 173 spigot;
#X obj 122 174 sel 0 1;
#X msg 122 205 1;
#X msg 143 226 0;
#X obj 92 256 spigot;
#X obj 127 5 inlet;
#X obj 92 280 outlet;
#X obj 89 67 <=;
#X obj 190 93 >;
#X connect 0 0 1 0;
#X connect 1 0 8 0;
#X connect 2 0 16 1;
#X connect 2 1 16 0;
#X connect 3 0 4 0;
#X connect 4 0 12 0;
#X connect 5 0 3 0;
#X connect 6 0 15 1;
#X connect 7 0 8 1;
#X connect 7 0 9 0;
#X connect 8 0 14 0;
#X connect 9 0 10 0;
#X connect 9 1 11 0;
#X connect 10 0 12 1;
#X connect 11 0 12 1;
#X connect 12 0 14 0;
#X connect 13 0 2 0;
#X connect 13 0 15 0;
#X connect 15 0 5 0;
#X connect 16 0 0 0;
#X restore 1783 662 pd angleFilt;
#X obj 1786 625 hsl 80 15 0 1 0 0 empty empty empty -2 -8 0 10 -262144
-1 -1 0 1;
#N canvas 0 25 450 300 *pi*2 0;
#X obj 176 109 *, f 4;
#X obj 202 61 r pi;
#X obj 202 85 * 2;
#X obj 160 26 inlet;
#X obj 176 133 outlet;
#X connect 0 0 4 0;
#X connect 1 0 2 0;
#X connect 2 0 0 1;
#X connect 3 0 0 0;
#X restore 1798 513 pd *pi*2;
#X f 9;
#N canvas 0 25 450 300 invert 0;
#X obj 231 72 inlet;
#X obj 231 96 t b f;
#X msg 221 123 1;
#X obj 240 164 -;
#X obj 240 188 outlet;
#X connect 0 0 1 0;
#X connect 1 0 2 0;
#X connect 1 1 3 1;
#X connect 2 0 3 0;
#X connect 3 0 4 0;
#X restore 1781 449 pd invert;
#N canvas 0 25 450 300 rPhase 0;
#X obj 258 103 loadbang;
#X obj 258 127 random 100;
#X obj 258 151 / 100;
#X obj 258 175 outlet;
#X connect 0 0 1 0;
#X connect 1 0 2 0;
#X connect 2 0 3 0;
#X restore 1789 359 pd rPhase;
#X text 1780 729 asteroid;
#X obj 153 549 pack f f f f f f f f f f f f f;
#X text 1775 92 365 * 40 years;
#X msg 1785 124 104600;
#X connect 0 0 12 0;
#X connect 1 0 13 0;
#X connect 2 0 11 0;
#X connect 3 0 15 0;
#X connect 4 0 16 0;
#X connect 5 0 14 0;
#X connect 6 0 18 0;
#X connect 7 0 19 0;
#X connect 8 0 17 0;
#X connect 11 0 22 0;
#X connect 12 0 20 0;
#X connect 13 0 21 0;
#X connect 14 0 25 0;
#X connect 15 0 23 0;
#X connect 16 0 24 0;
#X connect 17 0 28 0;
#X connect 18 0 26 0;
#X connect 19 0 27 0;
#X connect 20 0 44 0;
#X connect 21 0 48 0;
#X connect 22 0 52 0;
#X connect 23 0 56 0;
#X connect 24 0 60 0;
#X connect 25 0 64 0;
#X connect 26 0 68 0;
#X connect 27 0 72 0;
#X connect 28 0 76 0;
#X connect 29 0 38 0;
#X connect 30 0 35 0;
#X connect 31 0 33 0;
#X connect 32 0 40 0;
#X connect 33 0 219 0;
#X connect 34 0 193 0;
#X connect 35 0 220 0;
#X connect 36 0 91 0;
#X connect 36 0 147 0;
#X connect 37 0 92 0;
#X connect 38 0 221 0;
#X connect 39 0 93 0;
#X connect 39 0 142 0;
#X connect 40 0 222 0;
#X connect 41 0 94 0;
#X connect 42 0 43 0;
#X connect 43 0 45 0;
#X connect 44 0 42 0;
#X connect 44 1 43 1;
#X connect 45 0 80 1;
#X connect 46 0 47 0;
#X connect 47 0 49 0;
#X connect 48 0 46 0;
#X connect 48 1 47 1;
#X connect 49 0 82 1;
#X connect 50 0 51 0;
#X connect 51 0 53 0;
#X connect 52 0 50 0;
#X connect 52 1 51 1;
#X connect 53 0 83 1;
#X connect 54 0 55 0;
#X connect 55 0 57 0;
#X connect 56 0 54 0;
#X connect 56 1 55 1;
#X connect 57 0 84 1;
#X connect 58 0 59 0;
#X connect 59 0 61 0;
#X connect 60 0 58 0;
#X connect 60 1 59 1;
#X connect 61 0 85 1;
#X connect 62 0 63 0;
#X connect 63 0 65 0;
#X connect 64 0 62 0;
#X connect 64 1 63 1;
#X connect 65 0 86 1;
#X connect 66 0 67 0;
#X connect 67 0 69 0;
#X connect 68 0 66 0;
#X connect 68 1 67 1;
#X connect 69 0 87 1;
#X connect 70 0 71 0;
#X connect 71 0 73 0;
#X connect 72 0 70 0;
#X connect 72 1 71 1;
#X connect 73 0 88 1;
#X connect 74 0 75 0;
#X connect 75 0 77 0;
#X connect 76 0 74 0;
#X connect 76 1 75 1;
#X connect 77 0 89 1;
#X connect 78 0 8 0;
#X connect 78 0 7 0;
#X connect 78 0 6 0;
#X connect 78 0 5 0;
#X connect 78 0 4 0;
#X connect 78 0 3 0;
#X connect 78 0 2 0;
#X connect 78 0 1 0;
#X connect 78 0 0 0;
#X connect 78 0 257 0;
#X connect 78 0 280 0;
#X connect 79 0 78 0;
#X connect 80 0 31 0;
#X connect 80 0 125 1;
#X connect 80 0 124 0;
#X connect 81 0 80 0;
#X connect 81 0 82 0;
#X connect 81 0 83 0;
#X connect 81 0 84 0;
#X connect 81 0 85 0;
#X connect 81 0 86 0;
#X connect 81 0 87 0;
#X connect 81 0 88 0;
#X connect 81 0 89 0;
#X connect 81 0 249 0;
#X connect 81 0 269 0;
#X connect 82 0 30 0;
#X connect 83 0 29 0;
#X connect 84 0 32 0;
#X connect 85 0 102 0;
#X connect 86 0 101 0;
#X connect 87 0 100 0;
#X connect 88 0 103 0;
#X connect 89 0 116 0;
#X connect 89 0 122 1;
#X connect 89 0 121 0;
#X connect 90 0 81 0;
#X connect 90 0 141 0;
#X connect 92 0 149 0;
#X connect 93 0 151 0;
#X connect 94 0 153 0;
#X connect 95 0 96 0;
#X connect 98 0 99 0;
#X connect 99 0 97 0;
#X connect 100 0 108 0;
#X connect 101 0 105 0;
#X connect 102 0 104 0;
#X connect 103 0 110 0;
#X connect 104 0 223 0;
#X connect 105 0 224 0;
#X connect 106 0 112 0;
#X connect 107 0 113 0;
#X connect 108 0 225 0;
#X connect 109 0 114 0;
#X connect 110 0 226 0;
#X connect 111 0 115 0;
#X connect 112 0 155 0;
#X connect 113 0 157 0;
#X connect 114 0 159 0;
#X connect 115 0 161 0;
#X connect 116 0 117 0;
#X connect 117 0 227 0;
#X connect 118 0 119 0;
#X connect 119 0 163 0;
#X connect 121 0 122 0;
#X connect 122 0 120 0;
#X connect 124 0 125 0;
#X connect 125 0 123 0;
#X connect 127 0 90 0;
#X connect 129 0 176 0;
#X connect 130 0 131 0;
#X connect 131 0 176 1;
#X connect 131 1 132 1;
#X connect 132 0 137 0;
#X connect 133 0 132 0;
#X connect 135 0 133 0;
#X connect 135 0 144 0;
#X connect 136 0 135 0;
#X connect 137 0 138 0;
#X connect 138 0 140 0;
#X connect 141 0 98 0;
#X connect 141 1 99 1;
#X connect 143 0 95 0;
#X connect 147 0 146 0;
#X connect 149 0 148 0;
#X connect 151 0 150 0;
#X connect 153 0 152 0;
#X connect 155 0 154 0;
#X connect 157 0 156 0;
#X connect 159 0 158 0;
#X connect 161 0 160 0;
#X connect 163 0 162 0;
#X connect 173 0 172 0;
#X connect 173 0 171 0;
#X connect 173 0 170 0;
#X connect 173 0 168 0;
#X connect 173 0 167 0;
#X connect 173 0 166 0;
#X connect 173 0 165 0;
#X connect 173 0 164 0;
#X connect 173 0 169 0;
#X connect 176 0 136 0;
#X connect 190 0 34 0;
#X connect 191 0 207 0;
#X connect 192 0 90 0;
#X connect 193 0 33 0;
#X connect 193 0 35 0;
#X connect 193 0 38 0;
#X connect 193 0 40 0;
#X connect 193 0 104 0;
#X connect 193 0 105 0;
#X connect 193 0 108 0;
#X connect 193 0 110 0;
#X connect 193 0 117 0;
#X connect 193 0 243 0;
#X connect 193 0 263 0;
#X connect 195 0 130 0;
#X connect 196 0 129 0;
#X connect 197 0 196 0;
#X connect 197 0 195 0;
#X connect 198 0 278 0;
#X connect 199 0 278 1;
#X connect 200 0 278 2;
#X connect 201 0 278 3;
#X connect 202 0 278 4;
#X connect 203 0 278 5;
#X connect 204 0 278 6;
#X connect 205 0 278 7;
#X connect 206 0 278 8;
#X connect 207 0 127 0;
#X connect 208 0 129 0;
#X connect 209 0 130 0;
#X connect 219 0 198 0;
#X connect 219 0 210 0;
#X connect 219 0 36 0;
#X connect 220 0 199 0;
#X connect 220 0 211 0;
#X connect 220 0 37 0;
#X connect 221 0 200 0;
#X connect 221 0 212 0;
#X connect 221 0 39 0;
#X connect 222 0 201 0;
#X connect 222 0 218 0;
#X connect 222 0 41 0;
#X connect 223 0 202 0;
#X connect 223 0 213 0;
#X connect 223 0 106 0;
#X connect 223 0 237 0;
#X connect 224 0 203 0;
#X connect 224 0 214 0;
#X connect 224 0 107 0;
#X connect 225 0 204 0;
#X connect 225 0 215 0;
#X connect 225 0 109 0;
#X connect 226 0 205 0;
#X connect 226 0 216 0;
#X connect 226 0 111 0;
#X connect 227 0 206 0;
#X connect 227 0 217 0;
#X connect 227 0 118 0;
#X connect 228 0 31 1;
#X connect 229 0 30 1;
#X connect 230 0 29 1;
#X connect 231 0 32 1;
#X connect 232 0 102 1;
#X connect 233 0 101 1;
#X connect 234 0 100 1;
#X connect 235 0 103 1;
#X connect 236 0 116 1;
#X connect 237 0 238 0;
#X connect 237 1 239 0;
#X connect 238 0 278 9;
#X connect 239 0 278 10;
#X connect 240 0 241 0;
#X connect 241 0 247 0;
#X connect 242 0 243 0;
#X connect 243 0 255 0;
#X connect 244 0 250 0;
#X connect 245 0 246 0;
#X connect 246 0 248 0;
#X connect 247 0 245 0;
#X connect 247 1 246 1;
#X connect 248 0 249 1;
#X connect 249 0 242 0;
#X connect 250 0 252 0;
#X connect 252 0 251 0;
#X connect 254 0 278 11;
#X connect 255 0 254 0;
#X connect 255 0 244 0;
#X connect 256 0 242 1;
#X connect 257 0 240 0;
#X connect 260 0 261 0;
#X connect 261 0 267 0;
#X connect 262 0 263 0;
#X connect 263 0 275 0;
#X connect 264 0 270 0;
#X connect 265 0 266 0;
#X connect 266 0 268 0;
#X connect 267 0 265 0;
#X connect 267 1 266 1;
#X connect 268 0 269 1;
#X connect 269 0 262 0;
#X connect 270 0 272 0;
#X connect 272 0 271 0;
#X connect 274 0 278 12;
#X connect 275 0 274 0;
#X connect 275 0 264 0;
#X connect 276 0 262 1;
#X connect 278 0 194 0;
#X connect 280 0 260 0;
