#N canvas 1654 122 1344 698 12;
#X obj 329 273 metro 10000;
#X obj 323 313 bng 15 250 50 0 empty empty empty 17 7 0 10 -262144
-1 -1;
#X floatatom 173 437 5 0 0 0 - - -;
#X obj 174 614 *~;
#X floatatom 351 624 5 0 0 0 - - -;
#X floatatom 432 247 10 0 0 0 - - -;
#X obj 173 512 osc~;
#X obj 261 747 outlet~;
#X obj 173 367 random 1400;
#X obj 347 556 line~;
#X obj 351 592 snapshot~;
#X obj 443 570 loadbang;
#X obj 422 573 tgl 15 0 empty empty empty 17 7 0 10 -262144 -1 -1 1
1;
#X obj 422 593 metro 20;
#X obj 326 245 loadbang;
#X obj 432 172 loadbang, f 9;
#X obj 190 148 loadbang;
#X obj 190 172 f \$1;
#X floatatom 190 196 5 0 0 0 - - -;
#X obj 173 403 +;
#X obj 272 146 loadbang;
#X floatatom 272 194 5 0 0 0 - - -;
#X obj 272 170 f \$2;
#X floatatom 449 148 5 0 0 0 - - -;
#X floatatom 604 178 5 0 0 0 - - -;
#X text 168 120 lowest freq;
#X text 261 120 freq range;
#X text 414 25 min duration;
#X text 591 26 duration range;
#X obj 432 199 random;
#X obj 432 221 +;
#X obj 418 474 delay;
#X text 552 388 Determines duration of sound (between 100-300 ms);
#X text 31 552 lop~ does nothing to a sin/cos;
#X obj 272 702 pan;
#X obj 1005 479 random 200;
#X obj 1004 504 / 100;
#X obj 1004 414 bng 15 250 50 0 empty empty empty 17 7 0 10 -262144
-1 -1;
#X obj 1004 526 - 1;
#X obj 1089 456 random 200;
#X obj 1088 481 / 100;
#X obj 1088 503 - 1;
#X obj 952 673 line~;
#X msg 1004 553 \$1;
#X obj 1004 434 t b b;
#X msg 1088 551 \$1 \$2;
#X obj 1088 527 pack f f;
#X floatatom 977 761 5 0 0 0 - - -;
#X obj 977 729 snapshot~;
#X obj 1069 707 loadbang;
#X obj 1048 710 tgl 15 0 empty empty empty 17 7 0 10 -262144 -1 -1
1 1;
#X obj 1048 730 metro 20;
#X obj 329 742 outlet~;
#X obj 785 84 inlet;
#X obj 871 83 inlet;
#X obj 300 432 f;
#X obj 418 498 f;
#X obj 345 360 loadbang;
#X obj 472 387 random 200;
#X obj 472 410 + 100;
#X obj 370 418 bng 15 250 50 0 empty empty empty 17 7 0 10 -262144
-1 -1;
#X msg 420 524 0 \$1;
#X msg 313 401 700;
#X msg 384 476 700;
#X obj 964 81 inlet;
#X obj 604 145 max;
#X obj 643 96 loadbang;
#X msg 643 120 100;
#X obj 449 120 max;
#X obj 481 76 loadbang;
#X msg 481 100 100;
#X obj 445 53 inlet;
#X obj 605 46 inlet;
#X text 779 55 attack;
#X text 964 57 release time range;
#X text 865 54 release min;
#X msg 37 37;
#X obj 1172 378 inlet;
#X text 1173 342 mono/stereo;
#X obj 1172 405 tgl 15 0 empty empty empty 17 7 0 10 -262144 -1 -1
0 1;
#X obj 1176 545 == 0;
#X obj 1176 568 tgl 15 0 empty empty empty 17 7 0 10 -262144 -1 -1
1 1;
#X obj 1162 625 spigot;
#X obj 1143 596 spigot;
#X msg 1219 503 1;
#X obj 1215 460 sel 1;
#X obj 1189 429 t f f;
#X msg 326 466 0.5 \$1;
#X obj 1226 381 loadbang;
#X msg 1226 405 0;
#X text 515 247 Duration of the loop;
#X floatatom 487 521 5 0 0 0 - - -;
#X connect 0 0 1 0;
#X connect 1 0 8 0;
#X connect 1 0 29 0;
#X connect 1 0 55 0;
#X connect 1 0 31 0;
#X connect 1 0 58 0;
#X connect 2 0 6 0;
#X connect 3 0 34 0;
#X connect 5 0 0 1;
#X connect 6 0 3 0;
#X connect 8 0 19 0;
#X connect 9 0 3 1;
#X connect 9 0 10 0;
#X connect 10 0 4 0;
#X connect 11 0 12 0;
#X connect 12 0 13 0;
#X connect 13 0 10 0;
#X connect 14 0 0 0;
#X connect 15 0 29 0;
#X connect 16 0 17 0;
#X connect 17 0 18 0;
#X connect 18 0 19 1;
#X connect 19 0 2 0;
#X connect 20 0 22 0;
#X connect 21 0 8 1;
#X connect 22 0 21 0;
#X connect 23 0 30 1;
#X connect 24 0 29 1;
#X connect 29 0 30 0;
#X connect 30 0 5 0;
#X connect 31 0 56 0;
#X connect 34 0 7 0;
#X connect 34 1 52 0;
#X connect 35 0 36 0;
#X connect 36 0 38 0;
#X connect 37 0 44 0;
#X connect 38 0 43 0;
#X connect 39 0 40 0;
#X connect 40 0 41 0;
#X connect 41 0 46 0;
#X connect 42 0 34 1;
#X connect 42 0 48 0;
#X connect 43 0 83 0;
#X connect 44 0 39 0;
#X connect 44 1 35 0;
#X connect 45 0 83 0;
#X connect 46 0 45 0;
#X connect 48 0 47 0;
#X connect 49 0 50 0;
#X connect 50 0 51 0;
#X connect 51 0 48 0;
#X connect 53 0 55 1;
#X connect 54 0 59 1;
#X connect 55 0 87 0;
#X connect 56 0 61 0;
#X connect 56 0 91 0;
#X connect 57 0 62 0;
#X connect 57 0 63 0;
#X connect 58 0 59 0;
#X connect 59 0 31 1;
#X connect 59 0 46 1;
#X connect 59 0 37 0;
#X connect 59 0 56 1;
#X connect 60 0 55 0;
#X connect 61 0 9 0;
#X connect 62 0 55 0;
#X connect 63 0 61 0;
#X connect 63 0 56 0;
#X connect 64 0 58 1;
#X connect 65 0 24 0;
#X connect 66 0 67 0;
#X connect 66 0 65 0;
#X connect 67 0 65 1;
#X connect 68 0 23 0;
#X connect 69 0 70 0;
#X connect 69 0 68 0;
#X connect 70 0 68 1;
#X connect 71 0 68 0;
#X connect 72 0 65 0;
#X connect 77 0 79 0;
#X connect 79 0 80 0;
#X connect 79 0 86 0;
#X connect 80 0 81 0;
#X connect 81 0 83 1;
#X connect 82 0 42 0;
#X connect 83 0 42 0;
#X connect 84 0 82 0;
#X connect 85 0 84 0;
#X connect 86 0 85 0;
#X connect 86 1 82 1;
#X connect 87 0 9 0;
#X connect 88 0 89 0;
#X connect 89 0 79 0;
