#N canvas 1546 147 1344 698 12;
#X obj 329 273 metro 10000;
#X obj 323 313 bng 15 250 50 0 empty empty empty 17 7 0 10 -262144
-1 -1;
#X floatatom 173 437 5 0 0 0 - - -;
#X obj 174 614 *~;
#X floatatom 351 624 5 0 0 0 - - -;
#X floatatom 432 247 5 0 0 0 - - -;
#X obj 173 512 osc~;
#X text 477 250 Duration of the loop;
#X obj 261 747 outlet~;
#X obj 173 367 random 1400;
#X obj 347 556 line~;
#X obj 351 592 snapshot~;
#X obj 443 570 loadbang;
#X obj 422 573 tgl 15 0 empty empty empty 17 7 0 10 -262144 -1 -1 1
1;
#X obj 422 593 metro 20;
#X obj 326 245 loadbang;
#X obj 432 172 loadbang, f 9;
#X obj 190 148 loadbang;
#X obj 190 172 f \$1;
#X floatatom 190 196 5 0 0 0 - - -;
#X obj 173 403 +;
#X obj 272 146 loadbang;
#X floatatom 272 194 5 0 0 0 - - -;
#X obj 272 170 f \$2;
#X obj 465 74 loadbang;
#X floatatom 465 122 5 0 0 0 - - -;
#X obj 565 66 loadbang;
#X floatatom 565 114 5 0 0 0 - - -;
#X obj 465 98 f \$3;
#X obj 565 90 f \$4;
#X text 168 120 lowest freq;
#X text 261 120 freq range;
#X text 440 45 min duration;
#X text 551 46 duration range;
#X obj 432 199 random;
#X obj 432 221 +;
#X obj 418 474 delay;
#X floatatom 473 477 5 0 0 0 - - -;
#X text 532 440 Determines duration of sound (between 100-300 ms);
#X text 31 552 lop~ does nothing to a sin/cos;
#X obj 272 702 pan;
#X obj 548 523 random 200;
#X obj 547 548 / 100;
#X obj 573 481 bng 15 250 50 0 empty empty empty 17 7 0 10 -262144
-1 -1;
#X obj 547 570 - 1;
#X obj 632 523 random 200;
#X obj 631 548 / 100;
#X obj 631 570 - 1;
#X obj 548 633 line~;
#X msg 547 597 \$1;
#X obj 573 501 t b b;
#X msg 627 605 \$1 \$2;
#X obj 705 585 pack f f;
#X floatatom 572 712 5 0 0 0 - - -;
#X obj 572 680 snapshot~;
#X obj 664 658 loadbang;
#X obj 643 661 tgl 15 0 empty empty empty 17 7 0 10 -262144 -1 -1 1
1;
#X obj 643 681 metro 20;
#X obj 329 742 outlet~;
#X obj 730 201 inlet;
#X obj 816 200 inlet;
#X obj 300 432 f;
#X obj 418 498 f;
#X obj 303 367 loadbang;
#X obj 450 428 random 200;
#X obj 450 452 + 100;
#X msg 326 466 0.1 \$1;
#X obj 370 418 bng 15 250 50 0 empty empty empty 17 7 0 10 -262144
-1 -1;
#X msg 420 524 0 \$1;
#X msg 305 391 700;
#X msg 381 491 700;
#X obj 872 203 inlet;
#X connect 0 0 1 0;
#X connect 1 0 9 0;
#X connect 1 0 34 0;
#X connect 1 0 61 0;
#X connect 1 0 36 0;
#X connect 1 0 64 0;
#X connect 2 0 6 0;
#X connect 3 0 40 0;
#X connect 5 0 0 1;
#X connect 6 0 3 0;
#X connect 9 0 20 0;
#X connect 10 0 3 1;
#X connect 10 0 11 0;
#X connect 11 0 4 0;
#X connect 12 0 13 0;
#X connect 13 0 14 0;
#X connect 14 0 11 0;
#X connect 15 0 0 0;
#X connect 16 0 34 0;
#X connect 17 0 18 0;
#X connect 18 0 19 0;
#X connect 19 0 20 1;
#X connect 20 0 2 0;
#X connect 21 0 23 0;
#X connect 22 0 9 1;
#X connect 23 0 22 0;
#X connect 24 0 28 0;
#X connect 25 0 35 1;
#X connect 26 0 29 0;
#X connect 27 0 34 1;
#X connect 28 0 25 0;
#X connect 29 0 27 0;
#X connect 34 0 35 0;
#X connect 35 0 5 0;
#X connect 36 0 62 0;
#X connect 37 0 52 1;
#X connect 40 0 8 0;
#X connect 40 1 58 0;
#X connect 41 0 42 0;
#X connect 42 0 44 0;
#X connect 43 0 50 0;
#X connect 44 0 49 0;
#X connect 45 0 46 0;
#X connect 46 0 47 0;
#X connect 47 0 52 0;
#X connect 48 0 54 0;
#X connect 48 0 40 1;
#X connect 49 0 48 0;
#X connect 50 0 45 0;
#X connect 50 1 41 0;
#X connect 51 0 48 0;
#X connect 52 0 51 0;
#X connect 54 0 53 0;
#X connect 55 0 56 0;
#X connect 56 0 57 0;
#X connect 57 0 54 0;
#X connect 59 0 61 1;
#X connect 60 0 62 1;
#X connect 61 0 66 0;
#X connect 62 0 68 0;
#X connect 63 0 69 0;
#X connect 63 0 70 0;
#X connect 64 0 65 0;
#X connect 65 0 36 1;
#X connect 65 0 37 0;
#X connect 66 0 10 0;
#X connect 67 0 61 0;
#X connect 68 0 10 0;
#X connect 69 0 61 0;
#X connect 70 0 68 0;
#X connect 70 0 62 0;
#X connect 71 0 65 1;
