#N canvas 1440 89 1440 847 12;
#X obj 335 410 line~;
#X obj 335 356 dbtorms;
#X obj 353 319 spigot;
#X msg 353 294 0;
#X obj 323 291 ==;
#X msg 341 266 0;
#X obj 284 322 spigot;
#X obj 375 194 t f f;
#X obj 374 101 inlet;
#X text 636 145 from 0:1;
#X obj 335 434 outlet~;
#X text 615 184 scale value (goes to 30-100 dB);
#X obj 463 22 loadbang;
#X obj 452 117 -;
#X msg 448 93 100;
#X obj 463 70 t b f;
#X obj 375 138 *;
#X obj 375 161 +;
#X obj 381 230 <=;
#X msg 463 46 45;
#X msg 335 384 \$1 50;
#X connect 0 0 10 0;
#X connect 1 0 20 0;
#X connect 2 0 1 0;
#X connect 3 0 2 0;
#X connect 4 0 6 1;
#X connect 5 0 4 1;
#X connect 6 0 1 0;
#X connect 7 0 6 0;
#X connect 7 1 18 0;
#X connect 8 0 16 0;
#X connect 12 0 19 0;
#X connect 13 0 16 1;
#X connect 14 0 13 0;
#X connect 15 0 14 0;
#X connect 15 1 13 1;
#X connect 16 0 17 0;
#X connect 17 0 7 0;
#X connect 18 0 2 1;
#X connect 18 0 3 0;
#X connect 18 0 5 0;
#X connect 18 0 4 0;
#X connect 19 0 15 0;
#X connect 19 0 17 1;
#X connect 19 0 18 1;
#X connect 20 0 0 0;
