#N canvas 2177 141 907 729 12;
#X obj 362 308 r initSequenceIndex;
#X obj 361 367 ==;
#X obj 405 366 f \$1;
#X obj 403 335 loadbang;
#X floatatom 405 390 5 0 0 0 - - -;
#X obj 361 391 sel 1;
#X obj 361 420 bng 15 250 50 0 empty empty empty 17 7 0 10 -262144
-1 -1;
#X obj 389 29 r initSequenceActive;
#X obj 390 74 tgl 15 0 empty empty empty 17 7 0 10 -262144 -1 -1 0
1;
#X obj 390 94 sel 1 0;
#X msg 370 154 0 10;
#X obj 346 184 line~;
#X obj 277 216 inlet~;
#X obj 279 269 *~;
#X obj 320 572 *~;
#X obj 361 539 line~;
#X msg 355 449 0.2 100;
#X obj 526 179 line~;
#X msg 500 119 0 10;
#X msg 346 131 1 10;
#X obj 507 253 *~;
#X obj 523 619 outlet~;
#X obj 320 619 dac~;
#X msg 385 509 0 1000;
#X obj 384 479 delay 600;
#X obj 549 28 r startSystem;
#X obj 501 91 loadbang;
#X msg 574 139 1 5000;
#X obj 549 51 tgl 15 0 empty empty empty 17 7 0 10 -262144 -1 -1 1
1;
#X obj 549 70 sel 0 1;
#X connect 0 0 1 0;
#X connect 1 0 5 0;
#X connect 2 0 1 1;
#X connect 2 0 4 0;
#X connect 3 0 2 0;
#X connect 5 0 6 0;
#X connect 6 0 16 0;
#X connect 6 0 24 0;
#X connect 7 0 8 0;
#X connect 8 0 9 0;
#X connect 9 0 19 0;
#X connect 9 0 18 0;
#X connect 9 1 10 0;
#X connect 10 0 11 0;
#X connect 11 0 13 1;
#X connect 12 0 13 0;
#X connect 12 0 20 0;
#X connect 13 0 14 0;
#X connect 14 0 22 0;
#X connect 14 0 22 1;
#X connect 15 0 14 1;
#X connect 16 0 15 0;
#X connect 17 0 20 1;
#X connect 18 0 17 0;
#X connect 19 0 11 0;
#X connect 20 0 21 0;
#X connect 23 0 15 0;
#X connect 24 0 23 0;
#X connect 25 0 28 0;
#X connect 26 0 18 0;
#X connect 27 0 17 0;
#X connect 28 0 29 0;
#X connect 29 0 18 0;
#X connect 29 1 27 0;
