#N canvas 2128 134 1023 847 12;
#X text 174 -7 There are four patches for frequency selection (each
with their own probability distribution: lower frequencies are more
likely than higher).;
#X msg 73 60 \; pd dsp \$1;
#X obj 73 32 tgl 15 0 empty empty empty 17 7 0 10 -262144 -1 -1 0 1
;
#X text 175 -84 The Main Belt has a duration range of between 16000
and 28000 miliseconds;
#N canvas 531 60 450 498 LowDrone 0;
#X floatatom 133 157 5 0 0 0 - - -;
#N canvas 0 50 450 355 triangle 0;
#X obj 143 24 inlet;
#X obj 330 249 outlet~;
#X obj 143 125 phasor~;
#X obj 143 177 -~ 1;
#X obj 143 203 clip~ 0 1;
#X obj 143 151 *~ 2;
#X obj 235 125 phasor~;
#X obj 235 177 -~ 1;
#X obj 235 203 clip~ 0 1;
#X obj 235 151 *~ 2;
#X obj 177 74 * -1;
#X obj 182 276 +~;
#X msg 281 80 2;
#X connect 0 0 2 0;
#X connect 0 0 10 0;
#X connect 2 0 5 0;
#X connect 3 0 4 0;
#X connect 4 0 11 0;
#X connect 5 0 3 0;
#X connect 6 0 9 0;
#X connect 7 0 8 0;
#X connect 8 0 11 1;
#X connect 9 0 7 0;
#X connect 10 0 6 0;
#X connect 11 0 1 0;
#X connect 12 0 6 1;
#X connect 12 0 2 1;
#X restore 133 193 pd triangle;
#X floatatom 39 157 5 0 0 0 - - -;
#N canvas 0 50 450 355 triangle 0;
#X obj 143 24 inlet;
#X obj 330 249 outlet~;
#X obj 143 125 phasor~;
#X obj 143 177 -~ 1;
#X obj 143 203 clip~ 0 1;
#X obj 143 151 *~ 2;
#X obj 235 125 phasor~;
#X obj 235 177 -~ 1;
#X obj 235 203 clip~ 0 1;
#X obj 235 151 *~ 2;
#X obj 177 74 * -1;
#X obj 182 276 +~;
#X msg 281 80 2;
#X connect 0 0 2 0;
#X connect 0 0 10 0;
#X connect 2 0 5 0;
#X connect 3 0 4 0;
#X connect 4 0 11 0;
#X connect 5 0 3 0;
#X connect 6 0 9 0;
#X connect 7 0 8 0;
#X connect 8 0 11 1;
#X connect 9 0 7 0;
#X connect 10 0 6 0;
#X connect 11 0 1 0;
#X connect 12 0 6 1;
#X connect 12 0 2 1;
#X restore 39 193 pd triangle;
#X floatatom 227 157 5 0 0 0 - - -;
#N canvas 0 50 450 355 triangle 0;
#X obj 143 24 inlet;
#X obj 330 249 outlet~;
#X obj 143 125 phasor~;
#X obj 143 177 -~ 1;
#X obj 143 203 clip~ 0 1;
#X obj 143 151 *~ 2;
#X obj 235 125 phasor~;
#X obj 235 177 -~ 1;
#X obj 235 203 clip~ 0 1;
#X obj 235 151 *~ 2;
#X obj 177 74 * -1;
#X obj 182 276 +~;
#X msg 281 80 2;
#X connect 0 0 2 0;
#X connect 0 0 10 0;
#X connect 2 0 5 0;
#X connect 3 0 4 0;
#X connect 4 0 11 0;
#X connect 5 0 3 0;
#X connect 6 0 9 0;
#X connect 7 0 8 0;
#X connect 8 0 11 1;
#X connect 9 0 7 0;
#X connect 10 0 6 0;
#X connect 11 0 1 0;
#X connect 12 0 6 1;
#X connect 12 0 2 1;
#X restore 227 193 pd triangle;
#X floatatom 324 156 5 0 0 0 - - -;
#N canvas 0 50 450 355 triangle 0;
#X obj 143 24 inlet;
#X obj 330 249 outlet~;
#X obj 143 125 phasor~;
#X obj 143 177 -~ 1;
#X obj 143 203 clip~ 0 1;
#X obj 143 151 *~ 2;
#X obj 235 125 phasor~;
#X obj 235 177 -~ 1;
#X obj 235 203 clip~ 0 1;
#X obj 235 151 *~ 2;
#X obj 177 74 * -1;
#X obj 182 276 +~;
#X msg 281 80 2;
#X connect 0 0 2 0;
#X connect 0 0 10 0;
#X connect 2 0 5 0;
#X connect 3 0 4 0;
#X connect 4 0 11 0;
#X connect 5 0 3 0;
#X connect 6 0 9 0;
#X connect 7 0 8 0;
#X connect 8 0 11 1;
#X connect 9 0 7 0;
#X connect 10 0 6 0;
#X connect 11 0 1 0;
#X connect 12 0 6 1;
#X connect 12 0 2 1;
#X restore 324 192 pd triangle;
#X obj 182 356 outlet~;
#X obj 274 45 loadbang;
#X msg 39 118 70;
#X msg 133 116 70.5;
#X msg 228 113 105;
#X msg 324 111 105.5;
#X obj 181 309 *~ 0.25;
#X text 20 33 Frequencies: 70 \, 70.5 \, 105 \, 15.5;
#X connect 0 0 1 0;
#X connect 1 0 14 0;
#X connect 2 0 3 0;
#X connect 3 0 14 0;
#X connect 4 0 5 0;
#X connect 5 0 14 0;
#X connect 6 0 7 0;
#X connect 7 0 14 0;
#X connect 9 0 13 0;
#X connect 9 0 12 0;
#X connect 9 0 11 0;
#X connect 9 0 10 0;
#X connect 10 0 2 0;
#X connect 11 0 0 0;
#X connect 12 0 4 0;
#X connect 13 0 6 0;
#X connect 14 0 8 0;
#X restore 375 579 pd LowDrone;
#X text 354 714 left out;
#X text 483 713 right out;
#X obj 478 659 *~;
#X obj 478 683 outlet~;
#X obj 356 662 *~;
#X obj 356 686 outlet~;
#X obj 587 618 rampOnOff;
#X obj 587 594 r KuiperOnOff;
#X obj 354 541 durations 1400 1200;
#X obj 335 421 durations 500 700;
#X obj 283 311 durations 180 320;
#X obj 246 190 durations 90 91;
#X obj 357 454 loadbang;
#X obj 356 514 *;
#X obj 436 515 *;
#X obj 468 479 t b f;
#X floatatom 388 513 5 0 0 0 - - -;
#X floatatom 467 514 5 0 0 0 - - -;
#X obj 468 452 r orbitScaler;
#X msg 356 477 11000;
#X msg 420 479 1000;
#X obj 334 335 loadbang;
#X obj 333 395 *;
#X obj 413 396 *;
#X obj 445 360 t b f;
#X floatatom 365 394 5 0 0 0 - - -;
#X floatatom 444 395 5 0 0 0 - - -;
#X obj 445 333 r orbitScaler;
#X msg 397 359 1000;
#X msg 333 358 9000;
#X obj 284 221 loadbang;
#X obj 283 281 *;
#X obj 363 282 *;
#X obj 395 246 t b f;
#X floatatom 315 280 5 0 0 0 - - -;
#X floatatom 394 281 5 0 0 0 - - -;
#X obj 395 219 r orbitScaler;
#X msg 283 244 6000;
#X msg 347 246 2000;
#X obj 236 102 loadbang;
#X obj 235 162 *;
#X obj 314 162 *;
#X obj 347 127 t b f;
#X floatatom 267 161 5 0 0 0 - - -;
#X floatatom 346 162 5 0 0 0 - - -;
#X obj 347 100 r orbitScaler;
#X msg 235 125 3000;
#X msg 299 127 2000;
#X connect 2 0 1 0;
#X connect 4 0 7 0;
#X connect 4 0 9 0;
#X connect 7 0 8 0;
#X connect 9 0 10 0;
#X connect 11 0 7 1;
#X connect 11 0 9 1;
#X connect 12 0 11 0;
#X connect 13 0 9 0;
#X connect 13 1 7 0;
#X connect 14 0 9 0;
#X connect 14 1 7 0;
#X connect 15 0 9 0;
#X connect 15 1 7 0;
#X connect 16 0 9 0;
#X connect 16 1 7 0;
#X connect 17 0 24 0;
#X connect 17 0 25 0;
#X connect 18 0 21 0;
#X connect 18 0 13 0;
#X connect 19 0 22 0;
#X connect 19 0 13 1;
#X connect 20 0 19 0;
#X connect 20 0 18 0;
#X connect 20 1 19 1;
#X connect 20 1 18 1;
#X connect 23 0 20 0;
#X connect 24 0 18 0;
#X connect 25 0 19 0;
#X connect 26 0 34 0;
#X connect 26 0 33 0;
#X connect 27 0 30 0;
#X connect 27 0 14 0;
#X connect 28 0 31 0;
#X connect 28 0 14 1;
#X connect 29 0 28 0;
#X connect 29 0 27 0;
#X connect 29 1 28 1;
#X connect 29 1 27 1;
#X connect 32 0 29 0;
#X connect 33 0 28 0;
#X connect 34 0 27 0;
#X connect 35 0 42 0;
#X connect 35 0 43 0;
#X connect 36 0 39 0;
#X connect 36 0 15 0;
#X connect 37 0 40 0;
#X connect 37 0 15 1;
#X connect 38 0 37 0;
#X connect 38 0 36 0;
#X connect 38 1 37 1;
#X connect 38 1 36 1;
#X connect 41 0 38 0;
#X connect 42 0 36 0;
#X connect 43 0 37 0;
#X connect 44 0 51 0;
#X connect 44 0 52 0;
#X connect 45 0 48 0;
#X connect 45 0 16 0;
#X connect 46 0 49 0;
#X connect 46 0 16 1;
#X connect 47 0 46 0;
#X connect 47 0 45 0;
#X connect 47 1 46 1;
#X connect 47 1 45 1;
#X connect 50 0 47 0;
#X connect 51 0 45 0;
#X connect 52 0 46 0;
