#N canvas 0 25 1440 847 12;
#X obj 679 579 *~;
#X floatatom 226 277 5 0 0 0 - - -;
#N canvas 0 50 450 355 triangle 0;
#X obj 143 24 inlet;
#X obj 181 315 outlet~;
#X obj 143 125 phasor~;
#X obj 143 177 -~ 1;
#X obj 143 203 clip~ 0 1;
#X obj 143 151 *~ 2;
#X obj 235 125 phasor~;
#X obj 235 177 -~ 1;
#X obj 235 203 clip~ 0 1;
#X obj 235 151 *~ 2;
#X obj 177 74 * -1;
#X obj 182 276 +~;
#X msg 281 80 2;
#X connect 0 0 2 0;
#X connect 0 0 10 0;
#X connect 2 0 5 0;
#X connect 3 0 4 0;
#X connect 4 0 11 0;
#X connect 5 0 3 0;
#X connect 6 0 9 0;
#X connect 7 0 8 0;
#X connect 8 0 11 1;
#X connect 9 0 7 0;
#X connect 10 0 6 0;
#X connect 11 0 1 0;
#X connect 12 0 6 1;
#X connect 12 0 2 1;
#X restore 226 305 pd triangle;
#X floatatom 135 278 5 0 0 0 - - -;
#N canvas 0 50 450 355 triangle 0;
#X obj 143 24 inlet;
#X obj 183 318 outlet~;
#X obj 143 125 phasor~;
#X obj 143 177 -~ 1;
#X obj 143 203 clip~ 0 1;
#X obj 143 151 *~ 2;
#X obj 235 125 phasor~;
#X obj 235 177 -~ 1;
#X obj 235 203 clip~ 0 1;
#X obj 235 151 *~ 2;
#X obj 177 74 * -1;
#X obj 182 276 +~;
#X msg 281 80 2;
#X connect 0 0 2 0;
#X connect 0 0 10 0;
#X connect 2 0 5 0;
#X connect 3 0 4 0;
#X connect 4 0 11 0;
#X connect 5 0 3 0;
#X connect 6 0 9 0;
#X connect 7 0 8 0;
#X connect 8 0 11 1;
#X connect 9 0 7 0;
#X connect 10 0 6 0;
#X connect 11 0 1 0;
#X connect 12 0 6 1;
#X connect 12 0 2 1;
#X restore 135 305 pd triangle;
#X obj 1202 527 rampOnOff;
#X text 124 180 New low frequencies;
#X obj 318 304 cos~;
#X obj 414 304 cos~;
#X obj 319 336 *~ 0.1;
#X obj 415 336 *~ 0.1;
#X obj 507 305 cos~;
#X obj 613 305 cos~;
#X obj 508 337 *~ 0.1;
#X obj 614 337 *~ 0.1;
#X obj 713 305 cos~;
#X obj 816 305 cos~;
#X obj 714 337 *~ 0.1;
#X obj 817 337 *~ 0.1;
#X obj 919 305 cos~;
#X obj 1024 305 cos~;
#X obj 1025 337 *~ 0.05;
#X obj 920 337 *~ 0.08;
#X obj 226 337 *~ 0.6;
#X obj 135 337 *~ 0.6;
#N canvas 0 50 450 250 (subpatch) 0;
#X array visual_representation 100 float 3;
#A 0 -0.00166935 -0.00576271 -0.0093761 -0.010991 -0.010862 -0.00857945
-0.00483733 -0.00039877 0.00314706 0.00507015 0.00562901 0.00486695
0.00331734 0.00188185 0.001505 0.00259727 0.00425878 0.0058327 0.00669548
0.00621 0.0038582 9.15284e-005 -0.00387615 -0.00716964 -0.00897737
-0.00922431 -0.00782716 -0.00557987 -0.00344213 -0.0018415 -0.00196503
-0.0034012 -0.00537183 -0.00682805 -0.0075061 -0.00706939 -0.00544227
-0.0025507 0.0012229 0.00485404 0.00710366 0.00793353 0.00755975 0.00683142
0.00615368 0.00571699 0.00549679 0.00534374 0.00516022 0.00450216 0.00271815
-0.000105634 -0.00343355 -0.00653277 -0.00868307 -0.00948686 -0.00899629
-0.00712205 -0.0045638 -0.00237318 -0.000665239 0.000342626 0.000202813
-0.000421942 -0.00124436 -0.00170261 -0.000924312 0.000716677 0.00294604
0.00545887 0.00791938 0.0097535 0.0103818 0.00955796 0.00695312 0.00332566
2.53481e-006 -0.00275535 -0.00417693 -0.00467065 -0.00504054 -0.0055304
-0.00620004 -0.00691632 -0.0082295 -0.00916938 -0.00946818 -0.00853574
-0.00651176 -0.00325204 0.00055423 0.00398025 0.00607502 0.00686228
0.00633658 0.00472436 0.00259406 0.00115561 0.000457933 0.000794585
;
#X coords 0 1 100 -1 200 140 1 0 0;
#X restore 1286 119 graph;
#X obj 1392 602 tgl 15 0 empty empty empty 17 7 0 10 -262144 -1 -1
0 1;
#X obj 1392 622 metro 100;
#X text 1397 717 Line out to soundcard;
#X obj 1392 674 tabwrite~ visual_representation;
#X obj 80 39 tgl 15 0 empty empty empty 17 7 0 10 -262144 -1 -1 0 1
;
#X msg 80 59 \; pd dsp \$1;
#X obj 507 265 phasor~ 1348;
#X obj 1202 494 r NeptuneOnOff;
#X obj 666 711 outlet~;
#X obj 135 218 loadbang;
#X text 43 639 Lists of frequencies to be added to the Center Frequency
fields. Each list creates a specific sound spectrum \, but;
#X text 42 671 they all share the same internal proportions \, derived
from;
#X text 41 687 those of the planetary masses of the solar system.;
#X text 494 836 Jupiter 90 \, Saturn 152 \, Neptune 241 \, Uranus 250
\, Earth 388 \, Venus 399 \, Mars 504 \, Mercury 538 \, Pluto 700;
#X text 45 722 Jupiter: 90 \, 752 \, 893 \, 1323 \, 1367 \, 1935 \,
1969 \, 2334 \, 2590;
#X text 44 736 Saturn: 152 \, 917 \, 1081 \, 1578 \, 1628 \, 2285 \,
2324 \, 2756 \, 3042;
#X text 45 751 Neptune: 241 \, 1153 \, 1348 \, 1940 \, 2000 \, 2783
\, 2830 \, 3332 \, 3685;
#X text 45 766 Uranus: 250 \, 1175 \, 1373 \, 1974 \, 2035 \, 2829
\, 2877 \, 3387 \, 3745;
#X text 45 781 Earth: 388 \, 1542 \, 1789 \, 2539 \, 2614 \, 3606 \,
3665 \, 4301 \, 4748;
#X text 44 796 Venus: 399 \, 1571 \, 1821 \, 2582 \, 2659 \, 3664 \,
3725 \, 4371 \, 4824;
#X text 45 809 Mars: 504 \, 1849 \, 2136 \, 3010 \, 3098 \, 4252 \,
4322 \, 5063 \, 5583;
#X text 44 823 Mercury: 538 \, 1940 \, 2239 \, 3150 \, 3241 \, 4445
\, 4518 \, 5290 \, 5832;
#X text 44 841 Pluto: 700 \, 2368 \, 2724 \, 3804 \, 3917 \, 5349 \,
5436 \, 6354 \, 7000;
#X text 52 557 Basses: 40 \, 45 \, 46 \, 76 \, 77 \, 120.5 \, 121.5
\, 125 \, 126 \, 194 \, 195 \, 199.5 \, 200.5 \, 252 \, 253 \, 269
\, 270 \, 350 \, 351;
#X obj 1128 305 cos~;
#X obj 1129 337 *~ 0.05;
#X msg 135 248 120.5;
#X msg 226 248 121.5;
#X obj 317 265 phasor~ 241;
#X obj 414 266 phasor~ 1153;
#X obj 613 265 phasor~ 1940;
#X obj 714 262 phasor~ 2000;
#X obj 815 263 phasor~ 2783;
#X obj 919 262 phasor~ 2830;
#X obj 1024 262 phasor~ 3332;
#X obj 1128 262 phasor~ 3685;
#X connect 0 0 29 0;
#X connect 0 0 34 0;
#X connect 1 0 2 0;
#X connect 2 0 23 0;
#X connect 3 0 4 0;
#X connect 4 0 24 0;
#X connect 5 0 0 1;
#X connect 7 0 9 0;
#X connect 8 0 10 0;
#X connect 9 0 0 0;
#X connect 10 0 0 0;
#X connect 11 0 13 0;
#X connect 12 0 14 0;
#X connect 13 0 0 0;
#X connect 14 0 0 0;
#X connect 15 0 17 0;
#X connect 16 0 18 0;
#X connect 17 0 0 0;
#X connect 18 0 0 0;
#X connect 19 0 22 0;
#X connect 20 0 21 0;
#X connect 21 0 0 0;
#X connect 22 0 0 0;
#X connect 23 0 0 0;
#X connect 24 0 0 0;
#X connect 26 0 27 0;
#X connect 27 0 29 0;
#X connect 30 0 31 0;
#X connect 32 0 11 0;
#X connect 33 0 5 0;
#X connect 35 0 52 0;
#X connect 35 0 53 0;
#X connect 50 0 51 0;
#X connect 51 0 0 0;
#X connect 52 0 3 0;
#X connect 53 0 1 0;
#X connect 54 0 7 0;
#X connect 55 0 8 0;
#X connect 56 0 12 0;
#X connect 57 0 15 0;
#X connect 58 0 16 0;
#X connect 59 0 19 0;
#X connect 60 0 20 0;
#X connect 61 0 50 0;
