#N canvas 0 25 450 300 12;
#X obj 159 171 abs;
#X obj 453 201 sel 0 1;
#X msg 453 225 1;
#X msg 488 225 -1;
#X obj 127 127 /;
#X obj 175 116 r pi;
#X obj 453 179 > 0;
#X obj 120 227 spigot;
#X obj 251 224 sel 1 0;
#X msg 251 248 0;
#X msg 283 247 1;
#X obj 252 328 spigot;
#X floatatom 94 263 5 0 0 0 - - -;
#X floatatom 254 358 5 0 0 0 - - -;
#X obj 159 195 < 1;
#X obj 207 270 -;
#X msg 208 248 -2;
#X obj 208 226 t b f;
#X obj 388 194 tgl 15 0 empty empty empty 17 7 0 10 -262144 -1 -1 0
1;
#X obj 254 272 tgl 15 0 empty empty empty 17 7 0 10 -262144 -1 -1 0
1;
#X msg 452 281 2;
#X obj 452 305 -;
#X obj 446 253 t b f;
#X obj 444 340 spigot;
#X floatatom 444 363 5 0 0 0 - - -;
#X obj 515 303 &&;
#X obj 501 272 f;
#X obj 519 247 t b f;
#X floatatom 350 474 10 0 0 0 - - -;
#X obj 329 223 sel 1 0;
#X msg 329 247 0;
#X msg 359 248 1;
#X obj 332 271 tgl 15 0 empty empty empty 17 7 0 10 -262144 -1 -1 0
1;
#X obj 292 298 &&;
#X obj 127 149 t f f;
#X obj 312 449 spigot;
#X obj 350 425 <= 1, f 6;
#X obj 317 386 t f f;
#X obj 349 407 abs;
#X obj 175 140 * 0.5;
#X obj 313 473 * -1;
#X obj 128 53 inlet;
#X obj 314 502 outlet;
#X connect 0 0 14 0;
#X connect 1 0 2 0;
#X connect 1 1 3 0;
#X connect 4 0 7 0;
#X connect 4 0 22 0;
#X connect 4 0 34 0;
#X connect 5 0 39 0;
#X connect 6 0 1 0;
#X connect 6 0 18 0;
#X connect 6 0 25 1;
#X connect 6 0 27 0;
#X connect 7 0 12 0;
#X connect 7 0 37 0;
#X connect 8 0 9 0;
#X connect 8 1 10 0;
#X connect 9 0 19 0;
#X connect 10 0 19 0;
#X connect 11 0 13 0;
#X connect 11 0 37 0;
#X connect 14 0 7 1;
#X connect 14 0 8 0;
#X connect 15 0 11 0;
#X connect 16 0 15 0;
#X connect 17 0 16 0;
#X connect 17 1 15 1;
#X connect 18 0 29 0;
#X connect 19 0 26 0;
#X connect 19 0 33 0;
#X connect 20 0 21 0;
#X connect 21 0 23 0;
#X connect 22 0 20 0;
#X connect 22 1 21 1;
#X connect 23 0 24 0;
#X connect 23 0 37 0;
#X connect 25 0 23 1;
#X connect 26 0 25 0;
#X connect 27 0 26 0;
#X connect 27 1 25 1;
#X connect 29 0 30 0;
#X connect 29 1 31 0;
#X connect 30 0 32 0;
#X connect 31 0 32 0;
#X connect 32 0 33 1;
#X connect 33 0 11 1;
#X connect 34 0 17 0;
#X connect 34 1 0 0;
#X connect 35 0 40 0;
#X connect 36 0 35 1;
#X connect 37 0 35 0;
#X connect 37 1 38 0;
#X connect 38 0 36 0;
#X connect 39 0 4 1;
#X connect 40 0 28 0;
#X connect 40 0 42 0;
#X connect 41 0 4 0;
#X connect 41 0 6 0;
