#N canvas 2132 403 897 504 12;
#X obj 186 195 cos;
#X obj 202 91 r pi;
#X floatatom 202 115 5 0 0 0 - - -;
#X obj 186 223 *;
#X obj 202 140 * 2;
#X obj 186 167 *;
#X obj 297 96 r pi;
#X floatatom 297 120 5 0 0 0 - - -;
#X obj 281 227 *;
#X obj 297 145 * 2;
#X obj 281 172 *;
#X obj 281 199 sin;
#X obj 166 29 inlet;
#X obj 274 34 inlet;
#X text 276 11 radius;
#X text 91 7 angle in radians;
#X obj 276 275 outlet;
#X obj 190 277 outlet;
#X text 187 311 x;
#X text 286 308 y;
#X connect 0 0 3 0;
#X connect 1 0 2 0;
#X connect 2 0 4 0;
#X connect 3 0 17 0;
#X connect 4 0 5 1;
#X connect 5 0 0 0;
#X connect 6 0 7 0;
#X connect 7 0 9 0;
#X connect 8 0 16 0;
#X connect 9 0 10 1;
#X connect 10 0 11 0;
#X connect 11 0 8 0;
#X connect 12 0 5 0;
#X connect 12 0 10 0;
#X connect 13 0 3 1;
#X connect 13 0 8 1;
