#N canvas 151 66 1440 847 12;
#X obj 679 579 *~;
#X obj 1202 527 rampOnOff;
#N canvas 0 50 450 250 (subpatch) 0;
#X array visual_representation 100 float 3;
#A 0 -0.00166935 -0.00576271 -0.0093761 -0.010991 -0.010862 -0.00857945
-0.00483733 -0.00039877 0.00314706 0.00507015 0.00562901 0.00486695
0.00331734 0.00188185 0.001505 0.00259727 0.00425878 0.0058327 0.00669548
0.00621 0.0038582 9.15284e-005 -0.00387615 -0.00716964 -0.00897737
-0.00922431 -0.00782716 -0.00557987 -0.00344213 -0.0018415 -0.00196503
-0.0034012 -0.00537183 -0.00682805 -0.0075061 -0.00706939 -0.00544227
-0.0025507 0.0012229 0.00485404 0.00710366 0.00793353 0.00755975 0.00683142
0.00615368 0.00571699 0.00549679 0.00534374 0.00516022 0.00450216 0.00271815
-0.000105634 -0.00343355 -0.00653277 -0.00868307 -0.00948686 -0.00899629
-0.00712205 -0.0045638 -0.00237318 -0.000665239 0.000342626 0.000202813
-0.000421942 -0.00124436 -0.00170261 -0.000924312 0.000716677 0.00294604
0.00545887 0.00791938 0.0097535 0.0103818 0.00955796 0.00695312 0.00332566
2.53481e-006 -0.00275535 -0.00417693 -0.00467065 -0.00504054 -0.0055304
-0.00620004 -0.00691632 -0.0082295 -0.00916938 -0.00946818 -0.00853574
-0.00651176 -0.00325204 0.00055423 0.00398025 0.00607502 0.00686228
0.00633658 0.00472436 0.00259406 0.00115561 0.000457933 0.000794585
;
#X coords 0 1 100 -1 200 140 1 0 0;
#X restore 1286 119 graph;
#X obj 1392 602 tgl 15 0 empty empty empty 17 7 0 10 -262144 -1 -1
0 1;
#X obj 1392 622 metro 100;
#X text 1397 717 Line out to soundcard;
#X obj 1392 674 tabwrite~ visual_representation;
#X obj 80 39 tgl 15 0 empty empty empty 17 7 0 10 -262144 -1 -1 0 1
;
#X msg 80 59 \; pd dsp \$1;
#X obj 1202 494 r SaturnOnOff;
#X obj 666 711 outlet~;
#X text 43 639 Lists of frequencies to be added to the Center Frequency
fields. Each list creates a specific sound spectrum \, but;
#X text 42 671 they all share the same internal proportions \, derived
from;
#X text 41 687 those of the planetary masses of the solar system.;
#X text 494 836 Jupiter 90 \, Saturn 152 \, Neptune 241 \, Uranus 250
\, Earth 388 \, Venus 399 \, Mars 504 \, Mercury 538 \, Pluto 700;
#X text 45 722 Jupiter: 90 \, 752 \, 893 \, 1323 \, 1367 \, 1935 \,
1969 \, 2334 \, 2590;
#X text 44 736 Saturn: 152 \, 917 \, 1081 \, 1578 \, 1628 \, 2285 \,
2324 \, 2756 \, 3042;
#X text 45 751 Neptune: 241 \, 1153 \, 1348 \, 1940 \, 2000 \, 2783
\, 2830 \, 3332 \, 3685;
#X text 45 766 Uranus: 250 \, 1175 \, 1373 \, 1974 \, 2035 \, 2829
\, 2877 \, 3387 \, 3745;
#X text 45 781 Earth: 388 \, 1542 \, 1789 \, 2539 \, 2614 \, 3606 \,
3665 \, 4301 \, 4748;
#X text 44 796 Venus: 399 \, 1571 \, 1821 \, 2582 \, 2659 \, 3664 \,
3725 \, 4371 \, 4824;
#X text 45 809 Mars: 504 \, 1849 \, 2136 \, 3010 \, 3098 \, 4252 \,
4322 \, 5063 \, 5583;
#X text 44 823 Mercury: 538 \, 1940 \, 2239 \, 3150 \, 3241 \, 4445
\, 4518 \, 5290 \, 5832;
#X text 44 841 Pluto: 700 \, 2368 \, 2724 \, 3804 \, 3917 \, 5349 \,
5436 \, 6354 \, 7000;
#X text 52 557 Basses: 40 \, 45 \, 46 \, 76 \, 77 \, 120.5 \, 121.5
\, 125 \, 126 \, 194 \, 195 \, 199.5 \, 200.5 \, 252 \, 253 \, 269
\, 270 \, 350 \, 351;
#N canvas -9 -9 1920 976 sineTonesSaturn 0;
#X floatatom 230 277 5 0 0 0 - - -;
#N canvas 0 50 450 355 triangle 0;
#X obj 143 24 inlet;
#X obj 181 315 outlet~;
#X obj 143 125 phasor~;
#X obj 143 177 -~ 1;
#X obj 143 203 clip~ 0 1;
#X obj 143 151 *~ 2;
#X obj 235 125 phasor~;
#X obj 235 177 -~ 1;
#X obj 235 203 clip~ 0 1;
#X obj 235 151 *~ 2;
#X obj 177 74 * -1;
#X obj 182 276 +~;
#X msg 281 80 2;
#X connect 0 0 2 0;
#X connect 0 0 10 0;
#X connect 2 0 5 0;
#X connect 3 0 4 0;
#X connect 4 0 11 0;
#X connect 5 0 3 0;
#X connect 6 0 9 0;
#X connect 7 0 8 0;
#X connect 8 0 11 1;
#X connect 9 0 7 0;
#X connect 10 0 6 0;
#X connect 11 0 1 0;
#X connect 12 0 6 1;
#X connect 12 0 2 1;
#X restore 230 305 pd triangle;
#X floatatom 139 278 5 0 0 0 - - -;
#N canvas 0 50 450 355 triangle 0;
#X obj 143 24 inlet;
#X obj 183 318 outlet~;
#X obj 143 125 phasor~;
#X obj 143 177 -~ 1;
#X obj 143 203 clip~ 0 1;
#X obj 143 151 *~ 2;
#X obj 235 125 phasor~;
#X obj 235 177 -~ 1;
#X obj 235 203 clip~ 0 1;
#X obj 235 151 *~ 2;
#X obj 177 74 * -1;
#X obj 182 276 +~;
#X msg 281 80 2;
#X connect 0 0 2 0;
#X connect 0 0 10 0;
#X connect 2 0 5 0;
#X connect 3 0 4 0;
#X connect 4 0 11 0;
#X connect 5 0 3 0;
#X connect 6 0 9 0;
#X connect 7 0 8 0;
#X connect 8 0 11 1;
#X connect 9 0 7 0;
#X connect 10 0 6 0;
#X connect 11 0 1 0;
#X connect 12 0 6 1;
#X connect 12 0 2 1;
#X restore 139 305 pd triangle;
#X text 128 180 New low frequencies;
#X obj 322 304 cos~;
#X obj 418 304 cos~;
#X obj 323 336 *~ 0.1;
#X obj 419 336 *~ 0.1;
#X obj 511 305 cos~;
#X obj 617 305 cos~;
#X obj 512 337 *~ 0.1;
#X obj 618 337 *~ 0.1;
#X obj 717 305 cos~;
#X obj 820 305 cos~;
#X obj 718 337 *~ 0.1;
#X obj 821 337 *~ 0.1;
#X obj 923 305 cos~;
#X obj 1028 305 cos~;
#X obj 1029 337 *~ 0.05;
#X obj 924 337 *~ 0.08;
#X obj 230 337 *~ 0.6;
#X obj 139 337 *~ 0.6;
#X obj 139 218 loadbang;
#X obj 1133 305 cos~;
#X obj 1134 337 *~ 0.05;
#X msg 139 248 76;
#X msg 230 248 77;
#X obj 321 265 phasor~ 152;
#X obj 418 266 phasor~ 917;
#X obj 511 265 phasor~ 1081;
#X obj 617 265 phasor~ 1578;
#X obj 718 262 phasor~ 1628;
#X obj 819 263 phasor~ 2285;
#X obj 923 262 phasor~ 2324;
#X obj 1028 262 phasor~ 2756;
#X obj 1133 262 phasor~ 3042;
#X obj 679 579 outlet~;
#X connect 0 0 1 0;
#X connect 1 0 21 0;
#X connect 2 0 3 0;
#X connect 3 0 22 0;
#X connect 5 0 7 0;
#X connect 6 0 8 0;
#X connect 7 0 37 0;
#X connect 8 0 37 0;
#X connect 9 0 11 0;
#X connect 10 0 12 0;
#X connect 11 0 37 0;
#X connect 12 0 37 0;
#X connect 13 0 15 0;
#X connect 14 0 16 0;
#X connect 15 0 37 0;
#X connect 16 0 37 0;
#X connect 17 0 20 0;
#X connect 18 0 19 0;
#X connect 19 0 37 0;
#X connect 20 0 37 0;
#X connect 21 0 37 0;
#X connect 22 0 37 0;
#X connect 23 0 26 0;
#X connect 23 0 27 0;
#X connect 24 0 25 0;
#X connect 25 0 37 0;
#X connect 26 0 2 0;
#X connect 27 0 0 0;
#X connect 28 0 5 0;
#X connect 29 0 6 0;
#X connect 30 0 9 0;
#X connect 31 0 10 0;
#X connect 32 0 13 0;
#X connect 33 0 14 0;
#X connect 34 0 17 0;
#X connect 35 0 18 0;
#X connect 36 0 24 0;
#X restore 446 151 pd sineTonesSaturn;
#X obj 493 291 line~;
#X obj 445 365 *~;
#X msg 493 232 1 100;
#X msg 553 232 0 100;
#X obj 757 21 r waveformSelect, f 31;
#X obj 757 47 select 0 1 2 3, f 31;
#X obj 910 290 line~;
#X obj 723 375 *~;
#X msg 910 231 1 100;
#X msg 970 231 0 100;
#N canvas -9 -9 1920 976 noiseSaturn 0;
#X obj 520 56 tgl 15 0 empty empty empty 17 7 0 10 -262144 -1 -1 1
1;
#N canvas 624 237 1207 699 EnvWithNoise 0;
#X obj 692 27 inlet;
#X obj 462 511 *~;
#X obj 430 576 outlet~;
#X obj 148 50 inlet;
#X obj 230 50 inlet;
#X text 13 50 noise in;
#X text 127 17 Frequency;
#X text 247 73 Bandwidth;
#X obj 79 50 inlet~;
#X obj 139 295 bp~;
#X text 192 296 Bandpass Filter;
#X text 701 163 Total duration of the envelope;
#X text 616 286 Duration from beginning;
#X text 615 301 of the sound to amplitude;
#X text 614 318 peak;
#X text 688 222 Duration from amplitude peak;
#X text 688 239 to the end of the sound;
#X obj 604 406 vline~;
#X obj 604 231 bng 15 250 50 0 empty empty empty 17 7 0 10 -262144
-1 -1;
#X obj 604 164 metro 11491;
#X msg 604 262 0 \, 0.2 5745.5 \, 0 5745.5 5745.5;
#X connect 0 0 19 0;
#X connect 1 0 2 0;
#X connect 3 0 9 1;
#X connect 4 0 9 2;
#X connect 8 0 9 0;
#X connect 9 0 1 0;
#X connect 17 0 1 1;
#X connect 18 0 20 0;
#X connect 19 0 18 0;
#X connect 20 0 17 0;
#X restore 104 352 pd EnvWithNoise;
#X obj 28 125 noise~;
#X obj 172 153 vsl 15 128 0 500 0 0 empty empty empty 0 -9 0 10 -262144
-1 -1 12675 1;
#N canvas 972 262 781 633 EnvWithNoise 0;
#X obj 383 53 inlet;
#X obj 304 502 *~;
#X obj 272 567 outlet~;
#X obj 148 48 inlet;
#X obj 200 50 inlet;
#X text 19 44 noise in;
#X text 127 17 Frequency;
#X text 217 73 Bandwidth;
#X obj 79 50 inlet~;
#X obj 115 234 bp~;
#X text 445 163 Total duration of the envelope;
#X text 360 286 Duration from beginning;
#X text 359 301 of the sound to amplitude;
#X text 358 318 peak;
#X text 432 222 Duration from amplitude peak;
#X text 432 239 to the end of the sound;
#X obj 348 406 vline~;
#X obj 348 231 bng 15 250 50 0 empty empty empty 17 7 0 10 -262144
-1 -1;
#X msg 348 264 0 \, 0.2 2298.2 3447.3 \, 0 2298.2 5745.5;
#X obj 348 164 metro 11491;
#X connect 0 0 19 0;
#X connect 1 0 2 0;
#X connect 3 0 9 1;
#X connect 4 0 9 2;
#X connect 8 0 9 0;
#X connect 9 0 1 0;
#X connect 16 0 1 1;
#X connect 17 0 18 0;
#X connect 18 0 16 0;
#X connect 19 0 17 0;
#X restore 269 352 pd EnvWithNoise;
#X obj 337 173 vsl 15 128 0 500 0 0 empty empty empty 0 -9 0 10 -262144
-1 -1 11481 1;
#X obj 513 170 vsl 15 128 0 500 0 0 empty empty empty 0 -9 0 10 -262144
-1 -1 8204 1;
#X obj 665 160 vsl 15 128 0 500 0 0 empty empty empty 0 -9 0 10 -262144
-1 -1 9728 1;
#X obj 831 144 vsl 15 128 0 500 0 0 empty empty empty 0 -9 0 10 -262144
-1 -1 5029 1;
#X obj 1013 152 vsl 15 128 0 500 0 0 empty empty empty 0 -9 0 10 -262144
-1 -1 12700 1;
#X obj 1198 160 vsl 15 128 0 500 0 0 empty empty empty 0 -9 0 10 -262144
-1 -1 1270 1;
#X obj 1382 166 vsl 15 128 0 500 0 0 empty empty empty 0 -9 0 10 -262144
-1 -1 4166 1;
#X text 90 235 Center;
#X text 90 249 Frequency;
#X text 92 263 No. 1;
#X text 259 217 Center;
#X text 259 231 Frequency;
#X text 261 245 No. 2;
#X text 426 224 Center;
#X text 426 238 Frequency;
#X text 428 252 No. 3;
#X text 577 222 Center;
#X text 577 236 Frequency;
#X text 579 250 No. 4;
#X text 761 195 Center;
#X text 761 209 Frequency;
#X text 763 223 No. 5;
#X text 942 198 Center;
#X text 942 212 Frequency;
#X text 944 225 No. 6;
#X text 1128 200 Center;
#X text 1128 214 Frequency;
#X text 1130 228 No. 7;
#X text 1311 196 Center;
#X text 1311 210 Frequency;
#X text 1315 224 No. 8;
#X text 198 159 Filter;
#X text 198 172 Bandwidth;
#X text 199 187 Slider (*);
#X obj 29 158 s~ n;
#X obj 103 316 r~ n;
#X obj 268 317 r~ n;
#X obj 444 317 r~ n;
#X obj 596 314 r~ n;
#X obj 762 306 r~ n;
#X obj 943 309 r~ n;
#X obj 1130 310 r~ n;
#X obj 1314 309 r~ n;
#N canvas 972 262 781 633 EnvWithNoise 0;
#X obj 383 53 inlet;
#X obj 304 502 *~;
#X obj 272 567 outlet~;
#X obj 148 48 inlet;
#X obj 200 50 inlet;
#X text 19 44 noise in;
#X text 127 17 Frequency;
#X text 217 73 Bandwidth;
#X obj 79 50 inlet~;
#X obj 115 234 bp~;
#X text 445 163 Total duration of the envelope;
#X text 360 286 Duration from beginning;
#X text 359 301 of the sound to amplitude;
#X text 358 318 peak;
#X text 432 222 Duration from amplitude peak;
#X text 432 239 to the end of the sound;
#X obj 348 406 vline~;
#X obj 348 231 bng 15 250 50 0 empty empty empty 17 7 0 10 -262144
-1 -1;
#X msg 348 264 0 \, 0.2 2298.2 3447.3 \, 0 2298.2 5745.5;
#X obj 348 164 metro 11491;
#X connect 0 0 19 0;
#X connect 1 0 2 0;
#X connect 3 0 9 1;
#X connect 4 0 9 2;
#X connect 8 0 9 0;
#X connect 9 0 1 0;
#X connect 16 0 1 1;
#X connect 17 0 18 0;
#X connect 18 0 16 0;
#X connect 19 0 17 0;
#X restore 445 353 pd EnvWithNoise;
#N canvas 972 262 781 633 EnvWithNoise 0;
#X obj 383 53 inlet;
#X obj 304 502 *~;
#X obj 272 567 outlet~;
#X obj 148 48 inlet;
#X obj 200 50 inlet;
#X text 19 44 noise in;
#X text 127 17 Frequency;
#X text 217 73 Bandwidth;
#X obj 79 50 inlet~;
#X obj 115 234 bp~;
#X text 445 163 Total duration of the envelope;
#X text 360 286 Duration from beginning;
#X text 359 301 of the sound to amplitude;
#X text 358 318 peak;
#X text 432 222 Duration from amplitude peak;
#X text 432 239 to the end of the sound;
#X obj 348 406 vline~;
#X obj 348 231 bng 15 250 50 0 empty empty empty 17 7 0 10 -262144
-1 -1;
#X msg 348 264 0 \, 0.2 2298.2 3447.3 \, 0 2298.2 5745.5;
#X obj 348 164 metro 11491;
#X connect 0 0 19 0;
#X connect 1 0 2 0;
#X connect 3 0 9 1;
#X connect 4 0 9 2;
#X connect 8 0 9 0;
#X connect 9 0 1 0;
#X connect 16 0 1 1;
#X connect 17 0 18 0;
#X connect 18 0 16 0;
#X connect 19 0 17 0;
#X restore 597 351 pd EnvWithNoise;
#N canvas 972 262 781 633 EnvWithNoise 0;
#X obj 383 53 inlet;
#X obj 304 502 *~;
#X obj 272 567 outlet~;
#X obj 148 48 inlet;
#X obj 200 50 inlet;
#X text 19 44 noise in;
#X text 127 17 Frequency;
#X text 217 73 Bandwidth;
#X obj 79 50 inlet~;
#X obj 115 234 bp~;
#X text 445 163 Total duration of the envelope;
#X text 360 286 Duration from beginning;
#X text 359 301 of the sound to amplitude;
#X text 358 318 peak;
#X text 432 222 Duration from amplitude peak;
#X text 432 239 to the end of the sound;
#X obj 348 406 vline~;
#X obj 348 231 bng 15 250 50 0 empty empty empty 17 7 0 10 -262144
-1 -1;
#X msg 348 264 0 \, 0.2 2298.2 3447.3 \, 0 2298.2 5745.5;
#X obj 348 164 metro 11491;
#X connect 0 0 19 0;
#X connect 1 0 2 0;
#X connect 3 0 9 1;
#X connect 4 0 9 2;
#X connect 8 0 9 0;
#X connect 9 0 1 0;
#X connect 16 0 1 1;
#X connect 17 0 18 0;
#X connect 18 0 16 0;
#X connect 19 0 17 0;
#X restore 763 350 pd EnvWithNoise;
#N canvas 972 262 781 633 EnvWithNoise 0;
#X obj 383 53 inlet;
#X obj 304 502 *~;
#X obj 272 567 outlet~;
#X obj 148 48 inlet;
#X obj 200 50 inlet;
#X text 19 44 noise in;
#X text 127 17 Frequency;
#X text 217 73 Bandwidth;
#X obj 79 50 inlet~;
#X obj 115 234 bp~;
#X text 445 163 Total duration of the envelope;
#X text 360 286 Duration from beginning;
#X text 359 301 of the sound to amplitude;
#X text 358 318 peak;
#X text 432 222 Duration from amplitude peak;
#X text 432 239 to the end of the sound;
#X obj 348 406 vline~;
#X obj 348 231 bng 15 250 50 0 empty empty empty 17 7 0 10 -262144
-1 -1;
#X msg 348 264 0 \, 0.2 2298.2 3447.3 \, 0 2298.2 5745.5;
#X obj 348 164 metro 11491;
#X connect 0 0 19 0;
#X connect 1 0 2 0;
#X connect 3 0 9 1;
#X connect 4 0 9 2;
#X connect 8 0 9 0;
#X connect 9 0 1 0;
#X connect 16 0 1 1;
#X connect 17 0 18 0;
#X connect 18 0 16 0;
#X connect 19 0 17 0;
#X restore 944 350 pd EnvWithNoise;
#N canvas 972 262 781 633 EnvWithNoise 0;
#X obj 383 53 inlet;
#X obj 304 502 *~;
#X obj 272 567 outlet~;
#X obj 148 48 inlet;
#X obj 200 50 inlet;
#X text 19 44 noise in;
#X text 127 17 Frequency;
#X text 217 73 Bandwidth;
#X obj 79 50 inlet~;
#X obj 115 234 bp~;
#X text 445 163 Total duration of the envelope;
#X text 360 286 Duration from beginning;
#X text 359 301 of the sound to amplitude;
#X text 358 318 peak;
#X text 432 222 Duration from amplitude peak;
#X text 432 239 to the end of the sound;
#X obj 348 406 vline~;
#X obj 348 231 bng 15 250 50 0 empty empty empty 17 7 0 10 -262144
-1 -1;
#X msg 348 264 0 \, 0.2 2298.2 3447.3 \, 0 2298.2 5745.5;
#X obj 348 164 metro 11491;
#X connect 0 0 19 0;
#X connect 1 0 2 0;
#X connect 3 0 9 1;
#X connect 4 0 9 2;
#X connect 8 0 9 0;
#X connect 9 0 1 0;
#X connect 16 0 1 1;
#X connect 17 0 18 0;
#X connect 18 0 16 0;
#X connect 19 0 17 0;
#X restore 1130 350 pd EnvWithNoise;
#N canvas 972 262 781 633 EnvWithNoise 0;
#X obj 383 53 inlet;
#X obj 304 502 *~;
#X obj 272 567 outlet~;
#X obj 148 48 inlet;
#X obj 200 50 inlet;
#X text 19 44 noise in;
#X text 127 17 Frequency;
#X text 217 73 Bandwidth;
#X obj 79 50 inlet~;
#X obj 115 234 bp~;
#X text 445 163 Total duration of the envelope;
#X text 360 286 Duration from beginning;
#X text 359 301 of the sound to amplitude;
#X text 358 318 peak;
#X text 432 222 Duration from amplitude peak;
#X text 432 239 to the end of the sound;
#X obj 348 406 vline~;
#X obj 348 231 bng 15 250 50 0 empty empty empty 17 7 0 10 -262144
-1 -1;
#X msg 348 264 0 \, 0.2 2298.2 3447.3 \, 0 2298.2 5745.5;
#X obj 348 164 metro 11491;
#X connect 0 0 19 0;
#X connect 1 0 2 0;
#X connect 3 0 9 1;
#X connect 4 0 9 2;
#X connect 8 0 9 0;
#X connect 9 0 1 0;
#X connect 16 0 1 1;
#X connect 17 0 18 0;
#X connect 18 0 16 0;
#X connect 19 0 17 0;
#X restore 1314 350 pd EnvWithNoise;
#X obj 419 6 loadbang;
#X obj 344 74 s E;
#X obj 172 97 r E;
#X obj 337 117 r E;
#X obj 513 114 r E;
#X obj 665 103 r E;
#X obj 831 88 r E;
#X obj 1013 98 r E;
#X obj 1198 104 r E;
#X obj 1382 110 r E;
#X obj 138 288 r E;
#X obj 303 290 r E;
#X obj 479 286 r E;
#X obj 631 286 r E;
#X obj 797 280 r E;
#X obj 978 281 r E;
#X obj 1164 282 r E;
#X obj 1348 277 r E;
#X obj 419 32 s L;
#X obj 520 30 r L;
#X obj 344 46 r L;
#X obj 520 76 s tE;
#X obj 206 314 r tE;
#X obj 371 314 r tE;
#X obj 547 314 r tE;
#X obj 699 314 r tE;
#X obj 865 314 r tE;
#X obj 1046 314 r tE;
#X obj 1232 314 r tE;
#X obj 1416 314 r tE;
#X obj 1535 164 vsl 15 128 0 500 0 0 empty empty empty 0 -9 0 10 -262144
-1 -1 3404 1;
#X text 1464 194 Center;
#X text 1464 208 Frequency;
#X obj 1467 307 r~ n;
#N canvas 972 262 781 633 EnvWithNoise 0;
#X obj 383 53 inlet;
#X obj 304 502 *~;
#X obj 272 567 outlet~;
#X obj 148 48 inlet;
#X obj 200 50 inlet;
#X text 19 44 noise in;
#X text 127 17 Frequency;
#X text 217 73 Bandwidth;
#X obj 79 50 inlet~;
#X obj 115 234 bp~;
#X text 445 163 Total duration of the envelope;
#X text 360 286 Duration from beginning;
#X text 359 301 of the sound to amplitude;
#X text 358 318 peak;
#X text 432 222 Duration from amplitude peak;
#X text 432 239 to the end of the sound;
#X obj 348 406 vline~;
#X obj 348 231 bng 15 250 50 0 empty empty empty 17 7 0 10 -262144
-1 -1;
#X msg 348 264 0 \, 0.2 2298.2 3447.3 \, 0 2298.2 5745.5;
#X obj 348 164 metro 11491;
#X connect 0 0 19 0;
#X connect 1 0 2 0;
#X connect 3 0 9 1;
#X connect 4 0 9 2;
#X connect 8 0 9 0;
#X connect 9 0 1 0;
#X connect 16 0 1 1;
#X connect 17 0 18 0;
#X connect 18 0 16 0;
#X connect 19 0 17 0;
#X restore 1467 348 pd EnvWithNoise;
#X obj 1535 108 r E;
#X obj 1501 275 r E;
#X obj 1569 312 r tE;
#X msg 172 125 499;
#X msg 337 145 452;
#X msg 513 140 323;
#X msg 665 130 383;
#X msg 831 115 198;
#X msg 1013 124 500;
#X msg 1198 132 50;
#X msg 1382 136 164;
#X msg 1535 134 134;
#X msg 138 315 152;
#X msg 303 317 917;
#X msg 479 316 1081;
#X msg 629 312 1578;
#X msg 797 306 1628;
#X msg 978 309 2285;
#X msg 1164 310 2324;
#X msg 1348 308 2756;
#X msg 1501 306 3042;
#X text 1468 222 No. 9;
#X obj 670 576 outlet~;
#X connect 0 0 75 0;
#X connect 1 0 111 0;
#X connect 2 0 39 0;
#X connect 3 0 1 2;
#X connect 4 0 111 0;
#X connect 5 0 4 2;
#X connect 6 0 48 2;
#X connect 7 0 49 2;
#X connect 8 0 50 2;
#X connect 9 0 51 2;
#X connect 10 0 52 2;
#X connect 11 0 53 2;
#X connect 40 0 1 0;
#X connect 41 0 4 0;
#X connect 42 0 48 0;
#X connect 43 0 49 0;
#X connect 44 0 50 0;
#X connect 45 0 51 0;
#X connect 46 0 52 0;
#X connect 47 0 53 0;
#X connect 48 0 111 0;
#X connect 49 0 111 0;
#X connect 50 0 111 0;
#X connect 51 0 111 0;
#X connect 52 0 111 0;
#X connect 53 0 111 0;
#X connect 54 0 72 0;
#X connect 56 0 92 0;
#X connect 57 0 93 0;
#X connect 58 0 94 0;
#X connect 59 0 95 0;
#X connect 60 0 96 0;
#X connect 61 0 97 0;
#X connect 62 0 98 0;
#X connect 63 0 99 0;
#X connect 64 0 101 0;
#X connect 65 0 102 0;
#X connect 66 0 103 0;
#X connect 67 0 104 0;
#X connect 68 0 105 0;
#X connect 69 0 106 0;
#X connect 70 0 107 0;
#X connect 71 0 108 0;
#X connect 73 0 0 0;
#X connect 74 0 55 0;
#X connect 76 0 1 3;
#X connect 77 0 4 3;
#X connect 78 0 48 3;
#X connect 79 0 49 3;
#X connect 80 0 50 3;
#X connect 81 0 51 3;
#X connect 82 0 52 3;
#X connect 83 0 53 3;
#X connect 84 0 88 2;
#X connect 87 0 88 0;
#X connect 88 0 111 0;
#X connect 89 0 100 0;
#X connect 90 0 109 0;
#X connect 91 0 88 3;
#X connect 92 0 3 0;
#X connect 93 0 5 0;
#X connect 94 0 6 0;
#X connect 95 0 7 0;
#X connect 96 0 8 0;
#X connect 97 0 9 0;
#X connect 98 0 10 0;
#X connect 99 0 11 0;
#X connect 100 0 84 0;
#X connect 101 0 1 1;
#X connect 102 0 4 1;
#X connect 103 0 48 1;
#X connect 104 0 49 1;
#X connect 105 0 50 1;
#X connect 106 0 51 1;
#X connect 107 0 52 1;
#X connect 108 0 53 1;
#X connect 109 0 88 1;
#X restore 722 150 pd noiseSaturn;
#X connect 0 0 6 0;
#X connect 0 0 10 0;
#X connect 1 0 0 1;
#X connect 3 0 4 0;
#X connect 4 0 6 0;
#X connect 7 0 8 0;
#X connect 9 0 1 0;
#X connect 25 0 27 0;
#X connect 26 0 27 1;
#X connect 27 0 0 0;
#X connect 28 0 26 0;
#X connect 29 0 26 0;
#X connect 30 0 31 0;
#X connect 31 0 28 0;
#X connect 31 0 35 0;
#X connect 31 1 29 0;
#X connect 31 1 34 0;
#X connect 32 0 33 1;
#X connect 33 0 0 0;
#X connect 34 0 32 0;
#X connect 35 0 32 0;
#X connect 36 0 33 0;
