#N canvas 1502 72 1760 942 12;
#X obj 441 233 calculateOrbits;
#X obj 52 620 Sun;
#X obj 270 722 pan;
#X obj 351 614 hsl 128 15 -1 1 0 0 empty empty empty -2 -8 0 10 -262144
-1 -1 6251 1;
#X obj 292 474 hsl 80 15 0 1 0 0 empty empty empty -2 -8 0 10 -262144
-1 -1 6349 1;
#X msg 617 87 1;
#X obj 617 109 atan;
#X obj 617 134 * 4;
#X obj 616 59 loadbang;
#X text 655 133 calculate pi;
#X obj 617 158 s pi;
#X obj 270 752 dac~;
#X obj 233 691 *~;
#X obj 282 556 calcVolPan;
#X obj 283 613 vsl 15 100 0 1 0 0 empty empty empty 0 -9 0 10 -262144
-1 -1 1333 1;
#X obj 282 453 r mAngle;
#X obj 51 872 dac~;
#X floatatom 91 652 5 0 0 0 - - -;
#X obj 51 776 *~;
#X obj 90 758 r SunVolume;
#X msg 89 733 1;
#X obj 89 712 loadbang;
#X obj 51 828 *~;
#X obj 94 808 rampOnOff;
#X obj 111 787 r SunOnOff;
#X obj 315 494 loadbang;
#X msg 315 515 9;
#X floatatom 362 554 5 0 0 0 - - -;
#X floatatom 315 536 5 0 0 0 - - -;
#X obj 232 429 Mercury;
#X text 100 677 dfault loudest;
#X obj 230 23 cnv 15 150 150 empty empty empty 20 12 0 14 -187641 -66577
0;
#X obj 236 52 s userX;
#X obj 304 52 s userY;
#X floatatom 236 28 5 0 0 0 - - -;
#X floatatom 305 29 5 0 0 0 - - -;
#X obj 230 182 cnv 15 200 200 empty empty empty 20 12 0 14 -233017
-66577 0;
#X obj 237 186 r userAngle;
#X obj 240 208 hsl 80 15 0 1 0 0 empty empty empty -2 -8 0 10 -262144
-1 -1 0 1;
#X floatatom 237 228 5 0 0 0 - - -;
#X obj 237 254 r userX;
#X obj 325 255 r userY;
#X floatatom 248 330 5 0 0 0 - - -;
#X floatatom 337 329 5 0 0 0 - - -;
#X obj 237 278 * -1;
#X obj 325 279 * -1;
#X obj 237 353 s userUnitX;
#X obj 331 355 s userUnitY;
#X obj 235 306 calcUnitVector;
#X text 344 307 unit vector;
#X obj 533 727 pan;
#X obj 621 616 hsl 128 15 -1 1 0 0 empty empty empty -2 -8 0 10 -262144
-1 -1 6277 1;
#X obj 555 479 hsl 80 15 0 1 0 0 empty empty empty -2 -8 0 10 -262144
-1 -1 7334 1;
#X obj 533 757 dac~;
#X obj 496 696 *~;
#X obj 545 561 calcVolPan;
#X obj 549 613 vsl 15 100 0 1 0 0 empty empty empty 0 -9 0 10 -262144
-1 -1 1573 1;
#X obj 578 499 loadbang;
#X floatatom 578 541 5 0 0 0 - - -;
#X obj 495 434 Venus;
#X msg 578 520 14;
#X obj 362 524 r hearingRange;
#X floatatom 624 561 5 0 0 0 - - -;
#X obj 624 531 r hearingRange;
#X obj 545 458 r vAngle;
#X obj 805 732 pan;
#X obj 886 630 hsl 128 15 -1 1 0 0 empty empty empty -2 -8 0 10 -262144
-1 -1 6222 1;
#X obj 827 484 hsl 80 15 0 1 0 0 empty empty empty -2 -8 0 10 -262144
-1 -1 7109 1;
#X obj 805 762 dac~;
#X obj 768 701 *~;
#X obj 817 566 calcVolPan;
#X obj 823 622 vsl 15 100 0 1 0 0 empty empty empty 0 -9 0 10 -262144
-1 -1 1618 1;
#X obj 850 504 loadbang;
#X floatatom 850 546 5 0 0 0 - - -;
#X floatatom 896 566 5 0 0 0 - - -;
#X obj 896 536 r hearingRange;
#X obj 767 435 Earth;
#X obj 817 462 r eAngle;
#X msg 850 525 18;
#X obj 237 100 s hearingRange;
#X floatatom 236 78 5 0 0 0 - - -;
#X obj 239 125 hsl 100 15 1 10 0 0 empty empty empty -2 -8 0 10 -262144
-1 -1 0 1;
#X obj 236 145 s orbitSpeed;
#X floatatom 328 145 5 0 0 0 - - -;
#X obj 1096 741 pan;
#X obj 1177 639 hsl 128 15 -1 1 0 0 empty empty empty -2 -8 0 10 -262144
-1 -1 6098 1;
#X obj 1118 493 hsl 80 15 0 1 0 0 empty empty empty -2 -8 0 10 -262144
-1 -1 5271 1;
#X obj 1096 771 dac~;
#X obj 1059 710 *~;
#X obj 1108 575 calcVolPan;
#X obj 1108 629 vsl 15 100 0 1 0 0 empty empty empty 0 -9 0 10 -262144
-1 -1 925 1;
#X obj 1141 513 loadbang;
#X floatatom 1188 573 5 0 0 0 - - -;
#X floatatom 1141 555 5 0 0 0 - - -;
#X obj 309 1116 pan;
#X obj 390 1003 hsl 128 15 -1 1 0 0 empty empty empty -2 -8 0 10 -262144
-1 -1 5853 1;
#X obj 331 868 hsl 80 15 0 1 0 0 empty empty empty -2 -8 0 10 -262144
-1 -1 7334 1;
#X obj 309 1146 dac~;
#X obj 272 1085 *~;
#X obj 321 950 calcVolPan;
#X obj 335 1000 vsl 15 100 0 1 0 0 empty empty empty 0 -9 0 10 -262144
-1 -1 2964 1;
#X obj 354 888 loadbang;
#X floatatom 354 930 5 0 0 0 - - -;
#X obj 1188 543 r hearingRange;
#X floatatom 400 950 5 0 0 0 - - -;
#X obj 400 920 r hearingRange;
#X obj 321 847 r vAngle;
#X obj 568 1134 pan;
#X obj 654 1027 hsl 128 15 -1 1 0 0 empty empty empty -2 -8 0 10 -262144
-1 -1 4828 1;
#X obj 590 886 hsl 80 15 0 1 0 0 empty empty empty -2 -8 0 10 -262144
-1 -1 7109 1;
#X obj 568 1164 dac~;
#X obj 531 1103 *~;
#X obj 580 968 calcVolPan;
#X obj 603 1023 vsl 15 100 0 1 0 0 empty empty empty 0 -9 0 10 -262144
-1 -1 3861 1;
#X obj 613 906 loadbang;
#X floatatom 613 948 5 0 0 0 - - -;
#X floatatom 659 968 5 0 0 0 - - -;
#X obj 659 938 r hearingRange;
#X obj 580 864 r eAngle;
#X obj 1058 448 Mars;
#X obj 1109 472 r maAngle;
#X obj 259 817 Jupiter;
#X obj 534 826 Saturn;
#X msg 1141 534 26;
#X obj 874 1131 pan;
#X obj 896 883 hsl 80 15 0 1 0 0 empty empty empty -2 -8 0 10 -262144
-1 -1 6456 1;
#X obj 874 1161 dac~;
#X obj 837 1100 *~;
#X obj 886 965 calcVolPan;
#X obj 919 903 loadbang;
#X floatatom 966 963 5 0 0 0 - - -;
#X floatatom 919 945 5 0 0 0 - - -;
#X obj 1137 1136 pan;
#X obj 1159 888 hsl 80 15 0 1 0 0 empty empty empty -2 -8 0 10 -262144
-1 -1 4925 1;
#X obj 1137 1166 dac~;
#X obj 1100 1105 *~;
#X obj 1149 970 calcVolPan;
#X obj 1182 908 loadbang;
#X floatatom 1182 950 5 0 0 0 - - -;
#X obj 966 933 r hearingRange;
#X floatatom 1228 970 5 0 0 0 - - -;
#X obj 1228 940 r hearingRange;
#X obj 1409 1141 pan;
#X obj 1431 893 hsl 80 15 0 1 0 0 empty empty empty -2 -8 0 10 -262144
-1 -1 3256 1;
#X obj 1409 1171 dac~;
#X obj 1372 1110 *~;
#X obj 1421 975 calcVolPan;
#X obj 1454 913 loadbang;
#X floatatom 1454 955 5 0 0 0 - - -;
#X floatatom 1500 975 5 0 0 0 - - -;
#X obj 1500 945 r hearingRange;
#X obj 836 838 Uranus;
#X obj 1087 837 Neptune;
#X obj 1421 871 r pAngle;
#X obj 1149 867 r nAngle;
#X obj 887 862 r uAngle;
#X obj 1375 833 Pluto ?;
#X obj 318 78 loadbang;
#X obj 435 262 cnv 15 650 120 empty empty empty 20 12 0 14 -158823
-66577 0;
#X obj 443 298 tgl 15 0 empty empty empty 17 7 0 10 -262144 -1 -1 0
1;
#X obj 530 277 tgl 15 0 empty empty empty 17 7 0 10 -262144 -1 -1 1
1;
#X obj 530 297 s MercuryOnOff;
#X obj 635 276 tgl 15 0 empty empty empty 17 7 0 10 -262144 -1 -1 1
1;
#X obj 726 276 tgl 15 0 empty empty empty 17 7 0 10 -262144 -1 -1 1
1;
#X obj 818 274 tgl 15 0 empty empty empty 17 7 0 10 -262144 -1 -1 1
1;
#X obj 575 330 tgl 15 0 empty empty empty 17 7 0 10 -262144 -1 -1 1
1;
#X obj 681 330 tgl 15 0 empty empty empty 17 7 0 10 -262144 -1 -1 1
1;
#X obj 778 330 tgl 15 0 empty empty empty 17 7 0 10 -262144 -1 -1 1
1;
#X obj 878 330 tgl 15 0 empty empty empty 17 7 0 10 -262144 -1 -1 1
1;
#X obj 983 331 tgl 15 0 empty empty empty 17 7 0 10 -262144 -1 -1 1
1;
#X obj 443 318 s SunOnOff;
#X obj 635 296 s VenusOnOff;
#X obj 726 295 s EarthOnOff;
#X obj 575 350 s JupiterOnOff;
#X obj 818 294 s MarsOnOff;
#X obj 681 350 s SaturnOnOff;
#X obj 779 350 s UranusOnOff;
#X obj 878 350 s NeptuneOnOff;
#X obj 1008 326 loadbang;
#X obj 806 327 loadbang;
#X obj 900 327 loadbang;
#X obj 705 326 loadbang;
#X obj 600 325 loadbang;
#X obj 837 269 loadbang;
#X obj 744 273 loadbang;
#X obj 656 272 loadbang;
#X obj 555 271 loadbang;
#X obj 461 295 loadbang;
#X obj 1391 490 AsteroidBelt;
#X obj 1391 542 dac~;
#X obj 902 274 tgl 15 0 empty empty empty 17 7 0 10 -262144 -1 -1 1
1;
#X obj 927 269 loadbang;
#X obj 902 294 s AsteroidOnOff;
#X obj 983 351 PlutoOnOff;
#X obj 52 675 *~ 0.5;
#N canvas 0 25 450 300 sample 0;
#X obj 188 75 inlet~;
#X obj 320 77 loadbang;
#X obj 320 105 tgl 15 0 empty empty empty 17 7 0 10 -262144 -1 -1 1
1;
#X obj 320 125 metro 20;
#X obj 223 179 snapshot~;
#X obj 223 203 outlet;
#X connect 0 0 4 0;
#X connect 1 0 2 0;
#X connect 2 0 3 0;
#X connect 3 0 4 0;
#X connect 4 0 5 0;
#X restore 390 980 pd sample;
#N canvas 0 25 450 300 sample 0;
#X obj 188 75 inlet~;
#X obj 320 77 loadbang;
#X obj 320 105 tgl 15 0 empty empty empty 17 7 0 10 -262144 -1 -1 1
1;
#X obj 320 125 metro 20;
#X obj 223 179 snapshot~;
#X obj 223 203 outlet;
#X connect 0 0 4 0;
#X connect 1 0 2 0;
#X connect 2 0 3 0;
#X connect 3 0 4 0;
#X connect 4 0 5 0;
#X restore 321 974 pd sample;
#N canvas 0 25 450 300 sample 0;
#X obj 188 75 inlet~;
#X obj 320 77 loadbang;
#X obj 320 105 tgl 15 0 empty empty empty 17 7 0 10 -262144 -1 -1 1
1;
#X obj 320 125 metro 20;
#X obj 223 179 snapshot~;
#X obj 223 203 outlet;
#X connect 0 0 4 0;
#X connect 1 0 2 0;
#X connect 2 0 3 0;
#X connect 3 0 4 0;
#X connect 4 0 5 0;
#X restore 652 998 pd sample;
#N canvas 0 25 450 300 sample 0;
#X obj 188 75 inlet~;
#X obj 320 77 loadbang;
#X obj 320 105 tgl 15 0 empty empty empty 17 7 0 10 -262144 -1 -1 1
1;
#X obj 320 125 metro 20;
#X obj 223 179 snapshot~;
#X obj 223 203 outlet;
#X connect 0 0 4 0;
#X connect 1 0 2 0;
#X connect 2 0 3 0;
#X connect 3 0 4 0;
#X connect 4 0 5 0;
#X restore 589 995 pd sample;
#X msg 354 909 79;
#X msg 613 927 152;
#X msg 919 924 312;
#X msg 1182 929 456;
#X msg 1454 934 509;
#N canvas 0 25 450 300 sample 0;
#X obj 188 75 inlet~;
#X obj 320 77 loadbang;
#X obj 320 105 tgl 15 0 empty empty empty 17 7 0 10 -262144 -1 -1 1
1;
#X obj 320 125 metro 20;
#X obj 223 179 snapshot~;
#X obj 223 203 outlet;
#X connect 0 0 4 0;
#X connect 1 0 2 0;
#X connect 2 0 3 0;
#X connect 3 0 4 0;
#X connect 4 0 5 0;
#X restore 618 594 pd sample;
#N canvas 0 25 450 300 sample 0;
#X obj 188 75 inlet~;
#X obj 320 77 loadbang;
#X obj 320 105 tgl 15 0 empty empty empty 17 7 0 10 -262144 -1 -1 1
1;
#X obj 320 125 metro 20;
#X obj 223 179 snapshot~;
#X obj 223 203 outlet;
#X connect 0 0 4 0;
#X connect 1 0 2 0;
#X connect 2 0 3 0;
#X connect 3 0 4 0;
#X connect 4 0 5 0;
#X restore 549 588 pd sample;
#N canvas 0 25 450 300 sample 0;
#X obj 188 75 inlet~;
#X obj 320 77 loadbang;
#X obj 320 105 tgl 15 0 empty empty empty 17 7 0 10 -262144 -1 -1 1
1;
#X obj 320 125 metro 20;
#X obj 223 179 snapshot~;
#X obj 223 203 outlet;
#X connect 0 0 4 0;
#X connect 1 0 2 0;
#X connect 2 0 3 0;
#X connect 3 0 4 0;
#X connect 4 0 5 0;
#X restore 350 591 pd sample;
#N canvas 0 25 450 300 sample 0;
#X obj 188 75 inlet~;
#X obj 320 77 loadbang;
#X obj 320 105 tgl 15 0 empty empty empty 17 7 0 10 -262144 -1 -1 1
1;
#X obj 320 125 metro 20;
#X obj 223 179 snapshot~;
#X obj 223 203 outlet;
#X connect 0 0 4 0;
#X connect 1 0 2 0;
#X connect 2 0 3 0;
#X connect 3 0 4 0;
#X connect 4 0 5 0;
#X restore 281 585 pd sample;
#N canvas 0 25 450 300 sample 0;
#X obj 188 75 inlet~;
#X obj 320 77 loadbang;
#X obj 320 105 tgl 15 0 empty empty empty 17 7 0 10 -262144 -1 -1 1
1;
#X obj 320 125 metro 20;
#X obj 223 179 snapshot~;
#X obj 223 203 outlet;
#X connect 0 0 4 0;
#X connect 1 0 2 0;
#X connect 2 0 3 0;
#X connect 3 0 4 0;
#X connect 4 0 5 0;
#X restore 888 603 pd sample;
#N canvas 0 25 450 300 sample 0;
#X obj 188 75 inlet~;
#X obj 320 77 loadbang;
#X obj 320 105 tgl 15 0 empty empty empty 17 7 0 10 -262144 -1 -1 1
1;
#X obj 320 125 metro 20;
#X obj 223 179 snapshot~;
#X obj 223 203 outlet;
#X connect 0 0 4 0;
#X connect 1 0 2 0;
#X connect 2 0 3 0;
#X connect 3 0 4 0;
#X connect 4 0 5 0;
#X restore 819 593 pd sample;
#N canvas 0 25 450 300 sample 0;
#X obj 188 75 inlet~;
#X obj 320 77 loadbang;
#X obj 320 105 tgl 15 0 empty empty empty 17 7 0 10 -262144 -1 -1 1
1;
#X obj 320 125 metro 20;
#X obj 223 179 snapshot~;
#X obj 223 203 outlet;
#X connect 0 0 4 0;
#X connect 1 0 2 0;
#X connect 2 0 3 0;
#X connect 3 0 4 0;
#X connect 4 0 5 0;
#X restore 1180 606 pd sample;
#N canvas 0 25 450 300 sample 0;
#X obj 188 75 inlet~;
#X obj 320 77 loadbang;
#X obj 320 105 tgl 15 0 empty empty empty 17 7 0 10 -262144 -1 -1 1
1;
#X obj 320 125 metro 20;
#X obj 223 179 snapshot~;
#X obj 223 203 outlet;
#X connect 0 0 4 0;
#X connect 1 0 2 0;
#X connect 2 0 3 0;
#X connect 3 0 4 0;
#X connect 4 0 5 0;
#X restore 1111 600 pd sample;
#X obj 440 21 cnv 15 100 200 empty empty empty 20 12 0 14 -262130 -66577
0;
#X text 448 114 Asteroid 51;
#X text 448 182 Neptune 456;
#X text 441 24 Distance (m);
#X text 448 46 Mercury___9;
#X text 448 63 Venus____14;
#X text 448 80 Earth____18;
#X text 448 97 Mars_____26;
#X text 448 131 Jupiter__79;
#X text 448 148 Saturn __52;
#X text 448 165 Uranus__312;
#X text 448 199 Pluto___509;
#X msg 278 76 400;
#X obj 969 1021 hsl 128 15 -1 1 0 0 empty empty empty -2 -8 0 10 -262144
-1 -1 2670 1;
#X obj 915 1027 vsl 15 100 0 1 0 0 empty empty empty 0 -9 0 10 -262144
-1 -1 982 1;
#N canvas 0 25 450 300 sample 0;
#X obj 188 75 inlet~;
#X obj 320 77 loadbang;
#X obj 320 105 tgl 15 0 empty empty empty 17 7 0 10 -262144 -1 -1 1
1;
#X obj 320 125 metro 20;
#X obj 223 179 snapshot~;
#X obj 223 203 outlet;
#X connect 0 0 4 0;
#X connect 1 0 2 0;
#X connect 2 0 3 0;
#X connect 3 0 4 0;
#X connect 4 0 5 0;
#X restore 967 992 pd sample;
#N canvas 0 25 450 300 sample 0;
#X obj 188 75 inlet~;
#X obj 320 77 loadbang;
#X obj 320 105 tgl 15 0 empty empty empty 17 7 0 10 -262144 -1 -1 1
1;
#X obj 320 125 metro 20;
#X obj 223 179 snapshot~;
#X obj 223 203 outlet;
#X connect 0 0 4 0;
#X connect 1 0 2 0;
#X connect 2 0 3 0;
#X connect 3 0 4 0;
#X connect 4 0 5 0;
#X restore 898 986 pd sample;
#X obj 1242 1027 hsl 128 15 -1 1 0 0 empty empty empty -2 -8 0 10 -262144
-1 -1 6350 1;
#X obj 1170 1030 vsl 15 100 0 1 0 0 empty empty empty 0 -9 0 10 -262144
-1 -1 0 1;
#N canvas 0 25 450 300 sample 0;
#X obj 188 75 inlet~;
#X obj 320 77 loadbang;
#X obj 320 105 tgl 15 0 empty empty empty 17 7 0 10 -262144 -1 -1 1
1;
#X obj 320 125 metro 20;
#X obj 223 179 snapshot~;
#X obj 223 203 outlet;
#X connect 0 0 4 0;
#X connect 1 0 2 0;
#X connect 2 0 3 0;
#X connect 3 0 4 0;
#X connect 4 0 5 0;
#X restore 1240 998 pd sample;
#N canvas 0 25 450 300 sample 0;
#X obj 188 75 inlet~;
#X obj 320 77 loadbang;
#X obj 320 105 tgl 15 0 empty empty empty 17 7 0 10 -262144 -1 -1 1
1;
#X obj 320 125 metro 20;
#X obj 223 179 snapshot~;
#X obj 223 203 outlet;
#X connect 0 0 4 0;
#X connect 1 0 2 0;
#X connect 2 0 3 0;
#X connect 3 0 4 0;
#X connect 4 0 5 0;
#X restore 1171 992 pd sample;
#X obj 1520 1033 hsl 128 15 -1 1 0 0 empty empty empty -2 -8 0 10 -262144
-1 -1 6350 1;
#X obj 1448 1036 vsl 15 100 0 1 0 0 empty empty empty 0 -9 0 10 -262144
-1 -1 0 1;
#N canvas 0 25 450 300 sample 0;
#X obj 188 75 inlet~;
#X obj 320 77 loadbang;
#X obj 320 105 tgl 15 0 empty empty empty 17 7 0 10 -262144 -1 -1 1
1;
#X obj 320 125 metro 20;
#X obj 223 179 snapshot~;
#X obj 223 203 outlet;
#X connect 0 0 4 0;
#X connect 1 0 2 0;
#X connect 2 0 3 0;
#X connect 3 0 4 0;
#X connect 4 0 5 0;
#X restore 1518 1004 pd sample;
#N canvas 0 25 450 300 sample 0;
#X obj 188 75 inlet~;
#X obj 320 77 loadbang;
#X obj 320 105 tgl 15 0 empty empty empty 17 7 0 10 -262144 -1 -1 1
1;
#X obj 320 125 metro 20;
#X obj 223 179 snapshot~;
#X obj 223 203 outlet;
#X connect 0 0 4 0;
#X connect 1 0 2 0;
#X connect 2 0 3 0;
#X connect 3 0 4 0;
#X connect 4 0 5 0;
#X restore 1449 998 pd sample;
#X connect 1 0 194 0;
#X connect 2 0 11 0;
#X connect 2 1 11 1;
#X connect 5 0 6 0;
#X connect 6 0 7 0;
#X connect 7 0 10 0;
#X connect 8 0 5 0;
#X connect 12 0 2 0;
#X connect 13 0 12 1;
#X connect 13 0 207 0;
#X connect 13 1 2 1;
#X connect 13 1 206 0;
#X connect 15 0 4 0;
#X connect 15 0 13 0;
#X connect 17 0 194 1;
#X connect 18 0 22 0;
#X connect 19 0 18 1;
#X connect 20 0 18 1;
#X connect 21 0 20 0;
#X connect 22 0 16 0;
#X connect 22 0 16 1;
#X connect 23 0 22 1;
#X connect 24 0 23 0;
#X connect 25 0 26 0;
#X connect 26 0 28 0;
#X connect 28 0 13 1;
#X connect 29 0 12 0;
#X connect 34 0 32 0;
#X connect 35 0 33 0;
#X connect 37 0 38 0;
#X connect 38 0 39 0;
#X connect 40 0 44 0;
#X connect 41 0 45 0;
#X connect 44 0 48 0;
#X connect 45 0 48 1;
#X connect 48 0 42 0;
#X connect 48 0 46 0;
#X connect 48 1 43 0;
#X connect 48 1 47 0;
#X connect 50 0 53 0;
#X connect 50 1 53 1;
#X connect 54 0 50 0;
#X connect 55 0 54 1;
#X connect 55 0 205 0;
#X connect 55 1 50 1;
#X connect 55 1 204 0;
#X connect 57 0 60 0;
#X connect 58 0 55 1;
#X connect 59 0 54 0;
#X connect 60 0 58 0;
#X connect 61 0 27 0;
#X connect 61 0 13 2;
#X connect 63 0 62 0;
#X connect 63 0 55 2;
#X connect 64 0 52 0;
#X connect 64 0 55 0;
#X connect 65 0 68 0;
#X connect 65 1 68 1;
#X connect 69 0 65 0;
#X connect 70 0 69 1;
#X connect 70 0 209 0;
#X connect 70 1 65 1;
#X connect 70 1 208 0;
#X connect 72 0 78 0;
#X connect 73 0 70 1;
#X connect 75 0 74 0;
#X connect 75 0 70 2;
#X connect 76 0 69 0;
#X connect 77 0 67 0;
#X connect 77 0 70 0;
#X connect 78 0 73 0;
#X connect 80 0 79 0;
#X connect 81 0 82 0;
#X connect 81 0 83 0;
#X connect 84 0 87 0;
#X connect 84 1 87 1;
#X connect 88 0 84 0;
#X connect 89 0 88 1;
#X connect 89 0 211 0;
#X connect 89 1 84 1;
#X connect 89 1 210 0;
#X connect 91 0 123 0;
#X connect 93 0 89 1;
#X connect 94 0 97 0;
#X connect 94 1 97 1;
#X connect 98 0 94 0;
#X connect 99 0 98 1;
#X connect 99 0 196 0;
#X connect 99 1 94 1;
#X connect 99 1 195 0;
#X connect 101 0 199 0;
#X connect 102 0 99 1;
#X connect 103 0 92 0;
#X connect 103 0 89 2;
#X connect 105 0 104 0;
#X connect 105 0 99 2;
#X connect 106 0 96 0;
#X connect 106 0 99 0;
#X connect 107 0 110 0;
#X connect 107 1 110 1;
#X connect 111 0 107 0;
#X connect 112 0 198 0;
#X connect 112 0 111 1;
#X connect 112 1 107 1;
#X connect 112 1 197 0;
#X connect 114 0 200 0;
#X connect 115 0 112 1;
#X connect 117 0 116 0;
#X connect 117 0 112 2;
#X connect 118 0 109 0;
#X connect 118 0 112 0;
#X connect 119 0 88 0;
#X connect 120 0 86 0;
#X connect 120 0 89 0;
#X connect 121 0 98 0;
#X connect 122 0 111 0;
#X connect 123 0 93 0;
#X connect 124 0 126 0;
#X connect 124 1 126 1;
#X connect 127 0 124 0;
#X connect 128 0 127 1;
#X connect 128 0 228 0;
#X connect 128 1 124 1;
#X connect 128 1 227 0;
#X connect 129 0 201 0;
#X connect 131 0 128 1;
#X connect 132 0 134 0;
#X connect 132 1 134 1;
#X connect 135 0 132 0;
#X connect 136 0 135 1;
#X connect 136 0 232 0;
#X connect 136 1 132 1;
#X connect 137 0 202 0;
#X connect 138 0 136 1;
#X connect 139 0 130 0;
#X connect 139 0 128 2;
#X connect 140 0 231 0;
#X connect 141 0 140 0;
#X connect 141 0 136 2;
#X connect 142 0 144 0;
#X connect 142 1 144 1;
#X connect 145 0 142 0;
#X connect 146 0 145 1;
#X connect 146 0 236 0;
#X connect 146 1 142 1;
#X connect 147 0 203 0;
#X connect 148 0 146 1;
#X connect 149 0 235 0;
#X connect 150 0 149 0;
#X connect 150 0 146 2;
#X connect 151 0 127 0;
#X connect 152 0 135 0;
#X connect 153 0 143 0;
#X connect 153 0 146 0;
#X connect 154 0 133 0;
#X connect 154 0 136 0;
#X connect 155 0 125 0;
#X connect 155 0 128 0;
#X connect 156 0 145 0;
#X connect 157 0 224 0;
#X connect 159 0 170 0;
#X connect 160 0 161 0;
#X connect 162 0 171 0;
#X connect 163 0 172 0;
#X connect 164 0 174 0;
#X connect 165 0 173 0;
#X connect 166 0 175 0;
#X connect 167 0 176 0;
#X connect 168 0 177 0;
#X connect 169 0 193 0;
#X connect 178 0 169 0;
#X connect 179 0 167 0;
#X connect 180 0 168 0;
#X connect 181 0 166 0;
#X connect 182 0 165 0;
#X connect 183 0 164 0;
#X connect 184 0 163 0;
#X connect 185 0 162 0;
#X connect 186 0 160 0;
#X connect 187 0 159 0;
#X connect 188 0 189 0;
#X connect 188 0 189 1;
#X connect 190 0 192 0;
#X connect 191 0 190 0;
#X connect 194 0 18 0;
#X connect 195 0 95 0;
#X connect 196 0 100 0;
#X connect 197 0 108 0;
#X connect 198 0 113 0;
#X connect 199 0 102 0;
#X connect 200 0 115 0;
#X connect 201 0 131 0;
#X connect 202 0 138 0;
#X connect 203 0 148 0;
#X connect 204 0 51 0;
#X connect 205 0 56 0;
#X connect 206 0 3 0;
#X connect 207 0 14 0;
#X connect 208 0 66 0;
#X connect 209 0 71 0;
#X connect 210 0 85 0;
#X connect 211 0 90 0;
#X connect 224 0 80 0;
#X connect 227 0 225 0;
#X connect 228 0 226 0;
#X connect 231 0 229 0;
#X connect 232 0 230 0;
#X connect 235 0 233 0;
#X connect 236 0 234 0;
