#N canvas 0 25 573 718 12;
#X obj 428 405 calculateOrbits;
#X obj 34 811 Sun;
#X obj 257 894 pan;
#X obj 338 786 hsl 128 15 -1 1 0 0 empty empty empty -2 -8 0 10 -262144
-1 -1 6350 1;
#X obj 279 646 hsl 80 15 0 1 0 0 empty empty empty -2 -8 0 10 -262144
-1 -1 7900 1;
#X msg 812 285 1;
#X obj 812 307 atan;
#X obj 812 332 * 4;
#X obj 811 257 loadbang;
#X text 850 331 calculate pi;
#X obj 812 356 s pi;
#X obj 257 924 dac~;
#X obj 237 864 *~;
#X obj 269 728 calcVolPan;
#X obj 270 785 vsl 15 100 0 1 0 0 empty empty empty 0 -9 0 10 -262144
-1 -1 0 1;
#X obj 269 625 r mAngle;
#X obj 32 1102 dac~;
#X obj 32 988 *~;
#X obj 77 930 r SunVolume;
#X msg 76 905 1;
#X obj 76 884 loadbang;
#X obj 39 1034 *~;
#X obj 76 1008 rampOnOff;
#X obj 93 987 r SunOnOff;
#X obj 302 666 loadbang;
#X msg 302 687 9;
#X floatatom 349 726 5 0 0 0 - - -;
#X floatatom 302 708 5 0 0 0 - - -;
#X obj 232 578 Mercury;
#X text 10 864 dfault loudest;
#X obj 217 195 cnv 15 150 150 empty empty empty 20 12 0 14 -187641
-66577 0;
#X obj 223 224 s userX;
#X obj 291 224 s userY;
#X floatatom 223 200 5 0 0 0 - - -;
#X floatatom 292 201 5 0 0 0 - - -;
#X obj 217 354 cnv 15 200 200 empty empty empty 20 12 0 14 -233017
-66577 0;
#X obj 224 358 r userAngle;
#X obj 227 380 hsl 80 15 0 1 0 0 empty empty empty -2 -8 0 10 -262144
-1 -1 0 1;
#X floatatom 224 400 5 0 0 0 - - -;
#X floatatom 235 502 5 0 0 0 - - -;
#X floatatom 324 501 5 0 0 0 - - -;
#X obj 224 450 * -1;
#X obj 312 451 * -1;
#X obj 222 478 calcUnitVector;
#X text 331 479 unit vector;
#X obj 520 899 pan;
#X obj 608 788 hsl 128 15 -1 1 0 0 empty empty empty -2 -8 0 10 -262144
-1 -1 6350 1;
#X obj 542 651 hsl 80 15 0 1 0 0 empty empty empty -2 -8 0 10 -262144
-1 -1 7900 1;
#X obj 520 929 dac~;
#X obj 500 862 *~;
#X obj 532 733 calcVolPan;
#X obj 536 785 vsl 15 100 0 1 0 0 empty empty empty 0 -9 0 10 -262144
-1 -1 0 1;
#X obj 565 671 loadbang;
#X floatatom 565 713 5 0 0 0 - - -;
#X obj 491 582 Venus;
#X msg 565 692 14;
#X obj 349 696 r hearingRange;
#X floatatom 611 733 5 0 0 0 - - -;
#X obj 611 703 r hearingRange;
#X obj 532 630 r vAngle;
#X obj 792 904 pan;
#X obj 878 798 hsl 128 15 -1 1 0 0 empty empty empty -2 -8 0 10 -262144
-1 -1 6350 1;
#X obj 814 656 hsl 80 15 0 1 0 0 empty empty empty -2 -8 0 10 -262144
-1 -1 7900 1;
#X obj 792 934 dac~;
#X obj 755 873 *~;
#X obj 804 738 calcVolPan;
#X obj 810 794 vsl 15 100 0 1 0 0 empty empty empty 0 -9 0 10 -262144
-1 -1 0 1;
#X obj 837 676 loadbang;
#X floatatom 837 718 5 0 0 0 - - -;
#X floatatom 883 738 5 0 0 0 - - -;
#X obj 883 708 r hearingRange;
#X obj 752 576 Earth;
#X obj 804 634 r eAngle;
#X msg 837 697 18;
#X obj 224 272 s hearingRange;
#X floatatom 223 250 5 0 0 0 - - -;
#X obj 226 297 hsl 100 15 0.05 5 0 0 empty empty empty -2 -8 0 10 -262144
-1 -1 0 1;
#X obj 223 317 s orbitSpeed;
#X floatatom 315 317 5 0 0 0 - - -;
#X obj 1083 913 pan;
#X obj 1170 801 hsl 128 15 -1 1 0 0 empty empty empty -2 -8 0 10 -262144
-1 -1 6350 1;
#X obj 1105 665 hsl 80 15 0 1 0 0 empty empty empty -2 -8 0 10 -262144
-1 -1 7900 1;
#X obj 1083 943 dac~;
#X obj 1046 882 *~;
#X obj 1095 747 calcVolPan;
#X obj 1095 801 vsl 15 100 0 1 0 0 empty empty empty 0 -9 0 10 -262144
-1 -1 0 1;
#X obj 1128 685 loadbang;
#X floatatom 1175 745 5 0 0 0 - - -;
#X floatatom 1128 727 5 0 0 0 - - -;
#X obj 296 1288 pan;
#X obj 380 1175 hsl 128 15 -1 1 0 0 empty empty empty -2 -8 0 10 -262144
-1 -1 6350 1;
#X obj 318 1040 hsl 80 15 0 1 0 0 empty empty empty -2 -8 0 10 -262144
-1 -1 7900 1;
#X obj 296 1318 dac~;
#X obj 259 1257 *~;
#X obj 308 1122 calcVolPan;
#X obj 322 1172 vsl 15 100 0 1 0 0 empty empty empty 0 -9 0 10 -262144
-1 -1 0 1;
#X obj 341 1060 loadbang;
#X floatatom 341 1102 5 0 0 0 - - -;
#X obj 1175 715 r hearingRange;
#X floatatom 387 1122 5 0 0 0 - - -;
#X obj 387 1092 r hearingRange;
#X obj 555 1306 pan;
#X obj 642 1193 hsl 128 15 -1 1 0 0 empty empty empty -2 -8 0 10 -262144
-1 -1 6350 1;
#X obj 577 1058 hsl 80 15 0 1 0 0 empty empty empty -2 -8 0 10 -262144
-1 -1 7900 1;
#X obj 555 1336 dac~;
#X obj 518 1275 *~;
#X obj 567 1140 calcVolPan;
#X obj 590 1195 vsl 15 100 0 1 0 0 empty empty empty 0 -9 0 10 -262144
-1 -1 0 1;
#X obj 600 1078 loadbang;
#X floatatom 600 1120 5 0 0 0 - - -;
#X floatatom 646 1140 5 0 0 0 - - -;
#X obj 646 1110 r hearingRange;
#X obj 1043 593 Mars;
#X obj 1096 644 r maAngle;
#X obj 246 974 Jupiter;
#X obj 519 983 Saturn;
#X msg 1128 706 26;
#X obj 861 1303 pan;
#X obj 883 1055 hsl 80 15 0 1 0 0 empty empty empty -2 -8 0 10 -262144
-1 -1 7900 1;
#X obj 861 1333 dac~;
#X obj 824 1272 *~;
#X obj 873 1137 calcVolPan;
#X obj 906 1075 loadbang;
#X floatatom 953 1135 5 0 0 0 - - -;
#X floatatom 906 1117 5 0 0 0 - - -;
#X obj 1124 1308 pan;
#X obj 1146 1060 hsl 80 15 0 1 0 0 empty empty empty -2 -8 0 10 -262144
-1 -1 7900 1;
#X obj 1124 1338 dac~;
#X obj 1087 1277 *~;
#X obj 1136 1142 calcVolPan;
#X obj 1169 1080 loadbang;
#X floatatom 1169 1122 5 0 0 0 - - -;
#X obj 953 1105 r hearingRange;
#X floatatom 1215 1142 5 0 0 0 - - -;
#X obj 1215 1112 r hearingRange;
#X obj 1396 1313 pan;
#X obj 1418 1065 hsl 80 15 0 1 0 0 empty empty empty -2 -8 0 10 -262144
-1 -1 7900 1;
#X obj 1396 1343 dac~;
#X obj 1359 1282 *~;
#X obj 1408 1147 calcVolPan;
#X obj 1441 1085 loadbang;
#X floatatom 1441 1127 5 0 0 0 - - -;
#X floatatom 1487 1147 5 0 0 0 - - -;
#X obj 1487 1117 r hearingRange;
#X obj 818 978 Uranus;
#X obj 1073 983 Neptune;
#X obj 1408 1043 r pAngle;
#X obj 1136 1039 r nAngle;
#X obj 874 1034 r uAngle;
#X obj 305 250 loadbang;
#X obj 422 434 cnv 15 700 120 empty empty empty 20 12 0 14 -158823
-66577 0;
#X obj 430 470 tgl 15 0 empty empty empty 17 7 0 10 -262144 -1 -1 1
1;
#X obj 527 449 tgl 15 0 empty empty empty 17 7 0 10 -262144 -1 -1 1
1;
#X obj 527 469 s MercuryOnOff;
#X obj 645 448 tgl 15 0 empty empty empty 17 7 0 10 -262144 -1 -1 1
1;
#X obj 749 448 tgl 15 0 empty empty empty 17 7 0 10 -262144 -1 -1 1
1;
#X obj 854 446 tgl 15 0 empty empty empty 17 7 0 10 -262144 -1 -1 1
1;
#X obj 572 502 tgl 15 0 empty empty empty 17 7 0 10 -262144 -1 -1 1
1;
#X obj 688 502 tgl 15 0 empty empty empty 17 7 0 10 -262144 -1 -1 1
1;
#X obj 797 502 tgl 15 0 empty empty empty 17 7 0 10 -262144 -1 -1 1
1;
#X obj 909 502 tgl 15 0 empty empty empty 17 7 0 10 -262144 -1 -1 1
1;
#X obj 1025 503 tgl 15 0 empty empty empty 17 7 0 10 -262144 -1 -1
1 1;
#X obj 430 490 s SunOnOff;
#X obj 645 468 s VenusOnOff;
#X obj 749 467 s EarthOnOff;
#X obj 572 522 s JupiterOnOff;
#X obj 854 466 s MarsOnOff;
#X obj 688 522 s SaturnOnOff;
#X obj 798 522 s UranusOnOff;
#X obj 909 522 s NeptuneOnOff;
#X obj 1050 498 loadbang;
#X obj 825 499 loadbang;
#X obj 931 499 loadbang;
#X obj 712 498 loadbang;
#X obj 597 497 loadbang;
#X obj 877 441 loadbang;
#X obj 770 445 loadbang;
#X obj 668 444 loadbang;
#X obj 552 443 loadbang;
#X obj 450 467 loadbang;
#X obj 1363 617 AsteroidBelt;
#X obj 1410 757 dac~;
#X obj 954 446 tgl 15 0 empty empty empty 17 7 0 10 -262144 -1 -1 1
1;
#X obj 979 441 loadbang;
#X obj 954 466 s AsteroidOnOff;
#N canvas 0 25 450 300 sample 0;
#X obj 188 75 inlet~;
#X obj 320 77 loadbang;
#X obj 320 105 tgl 15 0 empty empty empty 17 7 0 10 -262144 -1 -1 1
1;
#X obj 320 125 metro 20;
#X obj 223 179 snapshot~;
#X obj 223 203 outlet;
#X connect 0 0 4 0;
#X connect 1 0 2 0;
#X connect 2 0 3 0;
#X connect 3 0 4 0;
#X connect 4 0 5 0;
#X restore 377 1152 pd sample;
#N canvas 0 25 450 300 sample 0;
#X obj 188 75 inlet~;
#X obj 320 77 loadbang;
#X obj 320 105 tgl 15 0 empty empty empty 17 7 0 10 -262144 -1 -1 1
1;
#X obj 320 125 metro 20;
#X obj 223 179 snapshot~;
#X obj 223 203 outlet;
#X connect 0 0 4 0;
#X connect 1 0 2 0;
#X connect 2 0 3 0;
#X connect 3 0 4 0;
#X connect 4 0 5 0;
#X restore 308 1146 pd sample;
#N canvas 0 25 450 300 sample 0;
#X obj 188 75 inlet~;
#X obj 320 77 loadbang;
#X obj 320 105 tgl 15 0 empty empty empty 17 7 0 10 -262144 -1 -1 1
1;
#X obj 320 125 metro 20;
#X obj 223 179 snapshot~;
#X obj 223 203 outlet;
#X connect 0 0 4 0;
#X connect 1 0 2 0;
#X connect 2 0 3 0;
#X connect 3 0 4 0;
#X connect 4 0 5 0;
#X restore 639 1170 pd sample;
#N canvas 0 25 450 300 sample 0;
#X obj 188 75 inlet~;
#X obj 320 77 loadbang;
#X obj 320 105 tgl 15 0 empty empty empty 17 7 0 10 -262144 -1 -1 1
1;
#X obj 320 125 metro 20;
#X obj 223 179 snapshot~;
#X obj 223 203 outlet;
#X connect 0 0 4 0;
#X connect 1 0 2 0;
#X connect 2 0 3 0;
#X connect 3 0 4 0;
#X connect 4 0 5 0;
#X restore 576 1167 pd sample;
#X msg 341 1081 79;
#X msg 600 1099 152;
#X msg 906 1096 312;
#X msg 1169 1101 456;
#X msg 1441 1106 509;
#N canvas 0 25 450 300 sample 0;
#X obj 188 75 inlet~;
#X obj 320 77 loadbang;
#X obj 320 105 tgl 15 0 empty empty empty 17 7 0 10 -262144 -1 -1 1
1;
#X obj 320 125 metro 20;
#X obj 223 179 snapshot~;
#X obj 223 203 outlet;
#X connect 0 0 4 0;
#X connect 1 0 2 0;
#X connect 2 0 3 0;
#X connect 3 0 4 0;
#X connect 4 0 5 0;
#X restore 605 766 pd sample;
#N canvas 0 25 450 300 sample 0;
#X obj 188 75 inlet~;
#X obj 320 77 loadbang;
#X obj 320 105 tgl 15 0 empty empty empty 17 7 0 10 -262144 -1 -1 1
1;
#X obj 320 125 metro 20;
#X obj 223 179 snapshot~;
#X obj 223 203 outlet;
#X connect 0 0 4 0;
#X connect 1 0 2 0;
#X connect 2 0 3 0;
#X connect 3 0 4 0;
#X connect 4 0 5 0;
#X restore 536 760 pd sample;
#N canvas 0 25 450 300 sample 0;
#X obj 188 75 inlet~;
#X obj 320 77 loadbang;
#X obj 320 105 tgl 15 0 empty empty empty 17 7 0 10 -262144 -1 -1 1
1;
#X obj 320 125 metro 20;
#X obj 223 179 snapshot~;
#X obj 223 203 outlet;
#X connect 0 0 4 0;
#X connect 1 0 2 0;
#X connect 2 0 3 0;
#X connect 3 0 4 0;
#X connect 4 0 5 0;
#X restore 337 763 pd sample;
#N canvas 0 25 450 300 sample 0;
#X obj 188 75 inlet~;
#X obj 320 77 loadbang;
#X obj 320 105 tgl 15 0 empty empty empty 17 7 0 10 -262144 -1 -1 1
1;
#X obj 320 125 metro 20;
#X obj 223 179 snapshot~;
#X obj 223 203 outlet;
#X connect 0 0 4 0;
#X connect 1 0 2 0;
#X connect 2 0 3 0;
#X connect 3 0 4 0;
#X connect 4 0 5 0;
#X restore 268 757 pd sample;
#N canvas 0 25 450 300 sample 0;
#X obj 188 75 inlet~;
#X obj 320 77 loadbang;
#X obj 320 105 tgl 15 0 empty empty empty 17 7 0 10 -262144 -1 -1 1
1;
#X obj 320 125 metro 20;
#X obj 223 179 snapshot~;
#X obj 223 203 outlet;
#X connect 0 0 4 0;
#X connect 1 0 2 0;
#X connect 2 0 3 0;
#X connect 3 0 4 0;
#X connect 4 0 5 0;
#X restore 875 775 pd sample;
#N canvas 0 25 450 300 sample 0;
#X obj 188 75 inlet~;
#X obj 320 77 loadbang;
#X obj 320 105 tgl 15 0 empty empty empty 17 7 0 10 -262144 -1 -1 1
1;
#X obj 320 125 metro 20;
#X obj 223 179 snapshot~;
#X obj 223 203 outlet;
#X connect 0 0 4 0;
#X connect 1 0 2 0;
#X connect 2 0 3 0;
#X connect 3 0 4 0;
#X connect 4 0 5 0;
#X restore 806 765 pd sample;
#N canvas 0 25 450 300 sample 0;
#X obj 188 75 inlet~;
#X obj 320 77 loadbang;
#X obj 320 105 tgl 15 0 empty empty empty 17 7 0 10 -262144 -1 -1 1
1;
#X obj 320 125 metro 20;
#X obj 223 179 snapshot~;
#X obj 223 203 outlet;
#X connect 0 0 4 0;
#X connect 1 0 2 0;
#X connect 2 0 3 0;
#X connect 3 0 4 0;
#X connect 4 0 5 0;
#X restore 1167 778 pd sample;
#N canvas 0 25 450 300 sample 0;
#X obj 188 75 inlet~;
#X obj 320 77 loadbang;
#X obj 320 105 tgl 15 0 empty empty empty 17 7 0 10 -262144 -1 -1 1
1;
#X obj 320 125 metro 20;
#X obj 223 179 snapshot~;
#X obj 223 203 outlet;
#X connect 0 0 4 0;
#X connect 1 0 2 0;
#X connect 2 0 3 0;
#X connect 3 0 4 0;
#X connect 4 0 5 0;
#X restore 1098 772 pd sample;
#X obj 427 193 cnv 15 100 200 empty empty empty 20 12 0 14 -262130
-66577 0;
#X text 435 286 Asteroid 51;
#X text 435 354 Neptune 456;
#X text 428 193 Distance (m);
#X text 435 218 Mercury___9;
#X text 435 235 Venus____14;
#X text 435 252 Earth____18;
#X text 435 269 Mars_____26;
#X text 435 303 Jupiter__79;
#X text 435 337 Uranus__312;
#X text 435 371 Pluto___509;
#X obj 957 1187 hsl 128 15 -1 1 0 0 empty empty empty -2 -8 0 10 -262144
-1 -1 6350 1;
#X obj 902 1199 vsl 15 100 0 1 0 0 empty empty empty 0 -9 0 10 -262144
-1 -1 0 1;
#N canvas 0 25 450 300 sample 0;
#X obj 188 75 inlet~;
#X obj 320 77 loadbang;
#X obj 320 105 tgl 15 0 empty empty empty 17 7 0 10 -262144 -1 -1 1
1;
#X obj 320 125 metro 20;
#X obj 223 179 snapshot~;
#X obj 223 203 outlet;
#X connect 0 0 4 0;
#X connect 1 0 2 0;
#X connect 2 0 3 0;
#X connect 3 0 4 0;
#X connect 4 0 5 0;
#X restore 954 1164 pd sample;
#N canvas 0 25 450 300 sample 0;
#X obj 188 75 inlet~;
#X obj 320 77 loadbang;
#X obj 320 105 tgl 15 0 empty empty empty 17 7 0 10 -262144 -1 -1 1
1;
#X obj 320 125 metro 20;
#X obj 223 179 snapshot~;
#X obj 223 203 outlet;
#X connect 0 0 4 0;
#X connect 1 0 2 0;
#X connect 2 0 3 0;
#X connect 3 0 4 0;
#X connect 4 0 5 0;
#X restore 885 1158 pd sample;
#X obj 1230 1193 hsl 128 15 -1 1 0 0 empty empty empty -2 -8 0 10 -262144
-1 -1 6350 1;
#X obj 1157 1202 vsl 15 100 0 1 0 0 empty empty empty 0 -9 0 10 -262144
-1 -1 0 1;
#N canvas 0 25 450 300 sample 0;
#X obj 188 75 inlet~;
#X obj 320 77 loadbang;
#X obj 320 105 tgl 15 0 empty empty empty 17 7 0 10 -262144 -1 -1 1
1;
#X obj 320 125 metro 20;
#X obj 223 179 snapshot~;
#X obj 223 203 outlet;
#X connect 0 0 4 0;
#X connect 1 0 2 0;
#X connect 2 0 3 0;
#X connect 3 0 4 0;
#X connect 4 0 5 0;
#X restore 1227 1170 pd sample;
#N canvas 0 25 450 300 sample 0;
#X obj 188 75 inlet~;
#X obj 320 77 loadbang;
#X obj 320 105 tgl 15 0 empty empty empty 17 7 0 10 -262144 -1 -1 1
1;
#X obj 320 125 metro 20;
#X obj 223 179 snapshot~;
#X obj 223 203 outlet;
#X connect 0 0 4 0;
#X connect 1 0 2 0;
#X connect 2 0 3 0;
#X connect 3 0 4 0;
#X connect 4 0 5 0;
#X restore 1158 1164 pd sample;
#X obj 1508 1199 hsl 128 15 -1 1 0 0 empty empty empty -2 -8 0 10 -262144
-1 -1 6350 1;
#X obj 1435 1208 vsl 15 100 0 1 0 0 empty empty empty 0 -9 0 10 -262144
-1 -1 0 1;
#N canvas 0 25 450 300 sample 0;
#X obj 188 75 inlet~;
#X obj 320 77 loadbang;
#X obj 320 105 tgl 15 0 empty empty empty 17 7 0 10 -262144 -1 -1 1
1;
#X obj 320 125 metro 20;
#X obj 223 179 snapshot~;
#X obj 223 203 outlet;
#X connect 0 0 4 0;
#X connect 1 0 2 0;
#X connect 2 0 3 0;
#X connect 3 0 4 0;
#X connect 4 0 5 0;
#X restore 1505 1176 pd sample;
#N canvas 0 25 450 300 sample 0;
#X obj 188 75 inlet~;
#X obj 320 77 loadbang;
#X obj 320 105 tgl 15 0 empty empty empty 17 7 0 10 -262144 -1 -1 1
1;
#X obj 320 125 metro 20;
#X obj 223 179 snapshot~;
#X obj 223 203 outlet;
#X connect 0 0 4 0;
#X connect 1 0 2 0;
#X connect 2 0 3 0;
#X connect 3 0 4 0;
#X connect 4 0 5 0;
#X restore 1436 1170 pd sample;
#X obj 308 1019 r jAngle;
#X obj 567 1036 r sAngle;
#X obj 224 426 r userY;
#X obj 312 427 r userX;
#X obj 224 525 s userUnitY;
#X obj 318 527 s userUnitX;
#X obj 1403 721 *~;
#N canvas 1563 205 1440 847 calcAsteroidVolume 0;
#X obj 262 335 -;
#X obj 262 365 abs;
#X obj 261 462 -;
#X obj 262 399 t b f;
#X msg 280 313 51;
#X obj 262 509 clip 0 1;
#X obj 280 290 loadbang;
#X text 307 429 distance you can hear;
#X obj 259 191 expr sqrt(pow($f1 \, 2) + pow($f2 \, 2));
#X obj 416 145 abs;
#X obj 260 137 abs;
#X obj 260 114 r userY;
#X obj 416 121 r userX;
#X obj 416 169 t b f;
#X obj 260 161 f;
#X obj 261 545 outlet;
#X floatatom 183 215 5 0 0 0 - - -;
#X text 274 213 dist from sun;
#X text 318 313 center of asteroidbelt;
#X text 310 476 to increase range where it is maxed out;
#X msg 261 429 15;
#X obj 262 485 / 5;
#X connect 0 0 1 0;
#X connect 1 0 3 0;
#X connect 2 0 21 0;
#X connect 3 0 20 0;
#X connect 3 1 2 1;
#X connect 4 0 0 1;
#X connect 5 0 15 0;
#X connect 6 0 4 0;
#X connect 8 0 0 0;
#X connect 8 0 16 0;
#X connect 9 0 13 0;
#X connect 10 0 14 0;
#X connect 11 0 10 0;
#X connect 12 0 9 0;
#X connect 13 0 14 0;
#X connect 13 1 8 1;
#X connect 14 0 8 0;
#X connect 20 0 2 0;
#X connect 21 0 5 0;
#X restore 1533 655 pd calcAsteroidVolume;
#N canvas 0 25 1356 657 indB 0;
#X obj 335 410 line~;
#X obj 335 356 dbtorms;
#X obj 353 319 spigot;
#X msg 353 294 0;
#X obj 323 291 ==;
#X msg 341 266 0;
#X obj 284 322 spigot;
#X obj 374 138 * 40;
#X obj 374 162 + 60;
#X obj 379 232 <= 60;
#X obj 375 194 t f f;
#X obj 355 76 inlet;
#X text 436 73 from 0:1;
#X text 434 137 scale value (goes to 60-100 dB);
#X obj 335 434 outlet~;
#X msg 335 385 \$1 1000;
#X connect 0 0 14 0;
#X connect 1 0 15 0;
#X connect 2 0 1 0;
#X connect 3 0 2 0;
#X connect 4 0 6 1;
#X connect 5 0 4 1;
#X connect 6 0 1 0;
#X connect 7 0 8 0;
#X connect 8 0 10 0;
#X connect 9 0 2 1;
#X connect 9 0 3 0;
#X connect 9 0 5 0;
#X connect 9 0 4 0;
#X connect 10 0 6 0;
#X connect 10 1 9 0;
#X connect 11 0 7 0;
#X connect 15 0 0 0;
#X restore 1533 683 pd indB;
#X text 435 320 Saturn _152;
#X obj 77 954 indB;
#X floatatom 1075 693 5 0 0 0 - - -;
#X floatatom 1167 821 5 0 0 0 - - -;
#X floatatom 1130 902 5 0 0 0 - - -;
#X floatatom 243 678 5 0 0 0 - - -;
#X obj 1437 722 *~;
#X text 1303 596 To hear \, make the user ~51 m from the sun (e.g.
userX=51 \, userY=0);
#X obj 1444 952 dac~;
#X obj 1437 916 *~;
#N canvas 0 25 1356 657 indB 0;
#X obj 335 410 line~;
#X obj 335 356 dbtorms;
#X obj 353 319 spigot;
#X msg 353 294 0;
#X obj 323 291 ==;
#X msg 341 266 0;
#X obj 284 322 spigot;
#X obj 374 138 * 40;
#X obj 374 162 + 60;
#X obj 379 232 <= 60;
#X obj 375 194 t f f;
#X obj 355 76 inlet;
#X text 436 73 from 0:1;
#X text 434 137 scale value (goes to 60-100 dB);
#X obj 335 434 outlet~;
#X msg 335 385 \$1 1000;
#X connect 0 0 14 0;
#X connect 1 0 15 0;
#X connect 2 0 1 0;
#X connect 3 0 2 0;
#X connect 4 0 6 1;
#X connect 5 0 4 1;
#X connect 6 0 1 0;
#X connect 7 0 8 0;
#X connect 8 0 10 0;
#X connect 9 0 2 1;
#X connect 9 0 3 0;
#X connect 9 0 5 0;
#X connect 9 0 4 0;
#X connect 10 0 6 0;
#X connect 10 1 9 0;
#X connect 11 0 7 0;
#X connect 15 0 0 0;
#X restore 1552 885 pd indB;
#X obj 1471 917 *~;
#X obj 1130 451 tgl 15 0 empty empty empty 17 7 0 10 -262144 -1 -1
1 1;
#X obj 1155 446 loadbang;
#X obj 1130 471 s KuiperOnOff;
#X obj 1416 799 KuiperBelt;
#X floatatom 1615 884 5 0 0 0 - - -;
#X text 1335 776 To hear \, make the user ~550 m from the sun (e.g.
userX=550 \, userY=0);
#X floatatom 1600 684 5 0 0 0 - - -;
#X obj 1286 360 Trojans;
#X obj 1134 501 tgl 15 0 empty empty empty 17 7 0 10 -262144 -1 -1
1 1;
#X obj 1159 496 loadbang;
#X obj 1134 521 s TrojansOnOff;
#X obj 1389 229 r jAngle;
#X obj 1392 288 hsl 80 15 0 1 0 0 empty empty empty -2 -8 0 10 -262144
-1 -1 6583 1;
#X obj 1663 284 hsl 80 15 0 1 0 0 empty empty empty -2 -8 0 10 -262144
-1 -1 1317 1;
#X obj 1392 212 hsl 80 15 0 1 0 0 empty empty empty -2 -8 0 10 -262144
-1 -1 7900 1;
#N canvas 0 25 1440 511 trojanAngles 0;
#X obj 418 113 + 0.166667;
#X obj 267 124 - 0.166667;
#X obj 378 133 > 1;
#X floatatom 451 134 5 0 0 0 - - -;
#X floatatom 297 152 5 0 0 0 - - -;
#X obj 408 178 spigot;
#X obj 408 202 - 1;
#X obj 460 178 spigot;
#X obj 378 157 == 0;
#X obj 267 154 < 0;
#X obj 228 177 spigot;
#X obj 280 179 == 0;
#X obj 281 206 spigot;
#X obj 228 201 + 1;
#X obj 262 236 outlet;
#X obj 410 229 outlet;
#X obj 381 30 inlet;
#X connect 0 0 2 0;
#X connect 0 0 3 0;
#X connect 0 0 5 0;
#X connect 0 0 7 0;
#X connect 1 0 4 0;
#X connect 1 0 9 0;
#X connect 1 0 10 0;
#X connect 1 0 12 0;
#X connect 2 0 5 1;
#X connect 2 0 8 0;
#X connect 5 0 6 0;
#X connect 6 0 15 0;
#X connect 7 0 15 0;
#X connect 8 0 7 1;
#X connect 9 0 10 1;
#X connect 9 0 11 0;
#X connect 10 0 13 0;
#X connect 11 0 12 1;
#X connect 12 0 14 0;
#X connect 13 0 14 0;
#X connect 16 0 0 0;
#X connect 16 0 1 0;
#X restore 1389 257 pd trojanAngles;
#X obj 1403 529 pan;
#X obj 1461 421 hsl 128 15 -1 1 0 0 empty empty empty -2 -8 0 10 -262144
-1 -1 6350 1;
#X obj 1403 559 dac~;
#X obj 1340 503 *~;
#X obj 1389 368 calcVolPan;
#X obj 1403 418 vsl 15 100 0 1 0 0 empty empty empty 0 -9 0 10 -262144
-1 -1 0 1;
#X obj 1424 315 loadbang;
#N canvas 0 25 450 300 sample 0;
#X obj 188 75 inlet~;
#X obj 320 77 loadbang;
#X obj 320 105 tgl 15 0 empty empty empty 17 7 0 10 -262144 -1 -1 1
1;
#X obj 320 125 metro 20;
#X obj 223 179 snapshot~;
#X obj 223 203 outlet;
#X connect 0 0 4 0;
#X connect 1 0 2 0;
#X connect 2 0 3 0;
#X connect 3 0 4 0;
#X connect 4 0 5 0;
#X restore 1458 398 pd sample;
#N canvas 0 25 450 300 sample 0;
#X obj 188 75 inlet~;
#X obj 320 77 loadbang;
#X obj 320 105 tgl 15 0 empty empty empty 17 7 0 10 -262144 -1 -1 1
1;
#X obj 320 125 metro 20;
#X obj 223 179 snapshot~;
#X obj 223 203 outlet;
#X connect 0 0 4 0;
#X connect 1 0 2 0;
#X connect 2 0 3 0;
#X connect 3 0 4 0;
#X connect 4 0 5 0;
#X restore 1389 392 pd sample;
#X msg 1422 339 79;
#X obj 1557 346 Trojans;
#X obj 1674 527 pan;
#X obj 1732 419 hsl 128 15 -1 1 0 0 empty empty empty -2 -8 0 10 -262144
-1 -1 6350 1;
#X obj 1674 557 dac~;
#X obj 1611 501 *~;
#X obj 1660 366 calcVolPan;
#X obj 1674 416 vsl 15 100 0 1 0 0 empty empty empty 0 -9 0 10 -262144
-1 -1 0 1;
#X obj 1695 313 loadbang;
#N canvas 0 25 450 300 sample 0;
#X obj 188 75 inlet~;
#X obj 320 77 loadbang;
#X obj 320 105 tgl 15 0 empty empty empty 17 7 0 10 -262144 -1 -1 1
1;
#X obj 320 125 metro 20;
#X obj 223 179 snapshot~;
#X obj 223 203 outlet;
#X connect 0 0 4 0;
#X connect 1 0 2 0;
#X connect 2 0 3 0;
#X connect 3 0 4 0;
#X connect 4 0 5 0;
#X restore 1729 396 pd sample;
#N canvas 0 25 450 300 sample 0;
#X obj 188 75 inlet~;
#X obj 320 77 loadbang;
#X obj 320 105 tgl 15 0 empty empty empty 17 7 0 10 -262144 -1 -1 1
1;
#X obj 320 125 metro 20;
#X obj 223 179 snapshot~;
#X obj 223 203 outlet;
#X connect 0 0 4 0;
#X connect 1 0 2 0;
#X connect 2 0 3 0;
#X connect 3 0 4 0;
#X connect 4 0 5 0;
#X restore 1660 390 pd sample;
#X msg 1693 337 79;
#X msg 1476 339 50;
#X msg 1745 335 50;
#N canvas 616 86 546 644 calcKuiperVolume 1;
#X obj 262 335 -;
#X obj 262 365 abs;
#X obj 261 462 -;
#X obj 262 399 t b f;
#X obj 262 509 clip 0 1;
#X obj 280 290 loadbang;
#X text 309 430 distance you can hear;
#X obj 259 191 expr sqrt(pow($f1 \, 2) + pow($f2 \, 2));
#X obj 416 145 abs;
#X obj 260 137 abs;
#X obj 260 114 r userY;
#X obj 416 121 r userX;
#X obj 416 169 t b f;
#X obj 260 161 f;
#X obj 261 545 outlet;
#X floatatom 183 215 5 0 0 0 - - -;
#X text 274 213 dist from sun;
#X text 318 313 center of asteroidbelt;
#X floatatom 204 500 5 0 0 0 - - -;
#X msg 281 313 700;
#X obj 261 485 / 100;
#X msg 262 429 200;
#X connect 0 0 1 0;
#X connect 1 0 3 0;
#X connect 2 0 20 0;
#X connect 3 0 21 0;
#X connect 3 1 2 1;
#X connect 4 0 14 0;
#X connect 4 0 18 0;
#X connect 5 0 19 0;
#X connect 7 0 0 0;
#X connect 7 0 15 0;
#X connect 8 0 12 0;
#X connect 9 0 13 0;
#X connect 10 0 9 0;
#X connect 11 0 8 0;
#X connect 12 0 13 0;
#X connect 12 1 7 1;
#X connect 13 0 7 0;
#X connect 19 0 0 1;
#X connect 20 0 4 0;
#X connect 21 0 2 0;
#X restore 1552 856 pd calcKuiperVolume;
#X text 1207 58 orbit Speed (Earth years per second);
#X obj 1270 301 s orbitScaler;
#X obj 1271 251 r orbitSpeed;
#N canvas 0 25 1440 798 calcScaler 0;
#X obj 167 183 max;
#X msg 167 161 0.05;
#X floatatom 200 183 5 0 0 0 - - -;
#X obj 166 136 loadbang;
#X obj 174 327 /;
#X msg 165 304 1;
#X obj 165 278 t b f;
#X floatatom 212 326 5 0 0 0 - - -;
#X floatatom 105 129 5 0 0 0 - - -;
#X obj 169 108 inlet;
#X obj 158 458 outlet;
#X floatatom 193 400 5 0 0 0 - - -;
#X obj 151 401 min;
#X obj 174 351 t b f;
#X obj 167 207 * 2;
#X msg 131 369 1;
#X connect 0 0 2 0;
#X connect 0 0 14 0;
#X connect 1 0 0 0;
#X connect 3 0 1 0;
#X connect 4 0 7 0;
#X connect 4 0 13 0;
#X connect 5 0 4 0;
#X connect 6 0 5 0;
#X connect 6 1 4 1;
#X connect 8 0 0 1;
#X connect 8 0 1 0;
#X connect 9 0 0 1;
#X connect 9 0 1 0;
#X connect 12 0 10 0;
#X connect 12 0 11 0;
#X connect 13 0 15 0;
#X connect 13 1 12 1;
#X connect 14 0 6 0;
#X connect 15 0 12 0;
#X restore 1270 277 pd calcScaler;
#X obj 1025 523 s PlutoOnOff;
#X floatatom 563 337 5 0 0 0 - - -;
#X floatatom 669 340 5 0 0 0 - - -;
#X obj 562 362 s userHeadingX;
#X obj 669 362 s userHeadingY;
#X obj 564 312 polarToCart;
#X obj 565 264 hsl 100 15 0 1 0 0 empty empty empty -2 -8 0 10 -262144
-1 -1 2475 1;
#X floatatom 563 284 5 0 0 0 - - -;
#X msg 680 263 1;
#X obj 680 213 loadbang;
#X obj 563 186 r heading;
#X obj 563 210 / 360;
#X obj 781 202 tgl 15 0 empty empty empty 17 7 0 10 -262144 -1 -1 1
1;
#X obj 781 222 s useHeading;
#X obj 781 177 loadbang;
#X msg 569 241 0.25;
#X obj 1361 991 Pluto;
#N canvas 2506 375 631 370 initSequence 0;
#X obj 193 41 tgl 15 0 empty empty empty 17 7 0 10 -262144 -1 -1 0
1;
#X obj 193 153 + 1;
#X obj 157 150 f;
#X msg 157 104 -1;
#X obj 157 208 clip 0 14;
#X obj 227 138 sel 1;
#X msg 227 162 0;
#X obj 227 114 == 15;
#X floatatom 157 259 5 0 0 0 - - -;
#X obj 121 -52 r initSequence;
#X obj 121 -28 sel 1;
#X obj 122 7 t f b;
#X obj 312 66 s initSequenceActive;
#X msg 123 30 1;
#X obj 157 282 s initSequenceIndex;
#X obj 194 71 metro 700;
#X text 241 208 counter goes from 0 - 14;
#X connect 0 0 12 0;
#X connect 0 0 15 0;
#X connect 1 0 2 1;
#X connect 2 0 1 0;
#X connect 2 0 4 0;
#X connect 2 0 7 0;
#X connect 3 0 2 0;
#X connect 4 0 8 0;
#X connect 5 0 6 0;
#X connect 6 0 0 0;
#X connect 7 0 5 0;
#X connect 8 0 14 0;
#X connect 9 0 10 0;
#X connect 10 0 11 0;
#X connect 11 0 13 0;
#X connect 11 1 3 0;
#X connect 13 0 0 0;
#X connect 15 0 2 0;
#X restore 229 52 pd initSequence;
#X msg 229 6 1;
#X obj 229 30 s initSequence;
#X obj 30 841 initControl 0;
#X obj 232 602 initControl 1;
#X obj 489 608 initControl 2;
#X obj 752 600 initControl 3;
#X obj 1043 617 initControl 4;
#X obj 1286 385 initControl 6;
#X obj 1557 368 initControl 6;
#X obj 246 998 initControl 6;
#X obj 1369 644 initControl 5;
#X obj 1429 671 initControl 5;
#X obj 519 1007 initControl 8;
#X obj 818 1002 initControl 9;
#X obj 1073 1007 initControl 10;
#X obj 1361 1015 initControl 11;
#X obj 1389 824 initControl 12;
#X obj 1451 849 initControl 12;
#X obj 228 140 s startSystem;
#X obj 228 113 tgl 15 0 empty empty empty 17 7 0 10 -262144 -1 -1 1
1;
#X text 231 -19 v-Click here to ply intro sequence;
#X text 253 110 <- click here to hear location based sounds;
#X msg 265 248 70;
#X obj 585 67 tgl 15 0 empty empty empty 17 7 0 10 -262144 -1 -1 0
1;
#X obj 585 87 s waveformSelect;
#X obj 584 111 noise~;
#X obj 584 135 s~ n;
#X obj 584 18 loadbang;
#X msg 584 42 0;
#X connect 1 0 310 0;
#X connect 2 0 11 0;
#X connect 2 1 11 1;
#X connect 4 0 239 0;
#X connect 5 0 6 0;
#X connect 6 0 7 0;
#X connect 7 0 10 0;
#X connect 8 0 5 0;
#X connect 12 0 2 0;
#X connect 13 0 12 1;
#X connect 13 0 197 0;
#X connect 13 1 2 1;
#X connect 13 1 196 0;
#X connect 15 0 4 0;
#X connect 15 0 13 0;
#X connect 17 0 21 0;
#X connect 18 0 235 0;
#X connect 19 0 235 0;
#X connect 20 0 19 0;
#X connect 21 0 16 0;
#X connect 21 0 16 1;
#X connect 22 0 21 1;
#X connect 23 0 22 0;
#X connect 24 0 25 0;
#X connect 25 0 27 0;
#X connect 27 0 13 1;
#X connect 28 0 311 0;
#X connect 33 0 31 0;
#X connect 34 0 32 0;
#X connect 36 0 37 0;
#X connect 37 0 38 0;
#X connect 41 0 43 0;
#X connect 42 0 43 1;
#X connect 43 0 39 0;
#X connect 43 0 229 0;
#X connect 43 1 40 0;
#X connect 43 1 230 0;
#X connect 45 0 48 0;
#X connect 45 1 48 1;
#X connect 49 0 45 0;
#X connect 50 0 49 1;
#X connect 50 0 195 0;
#X connect 50 1 45 1;
#X connect 50 1 194 0;
#X connect 52 0 55 0;
#X connect 53 0 50 1;
#X connect 54 0 312 0;
#X connect 55 0 53 0;
#X connect 56 0 26 0;
#X connect 56 0 13 2;
#X connect 58 0 57 0;
#X connect 58 0 50 2;
#X connect 59 0 47 0;
#X connect 59 0 50 0;
#X connect 60 0 63 0;
#X connect 60 1 63 1;
#X connect 64 0 60 0;
#X connect 65 0 64 1;
#X connect 65 0 199 0;
#X connect 65 1 60 1;
#X connect 65 1 198 0;
#X connect 67 0 73 0;
#X connect 68 0 65 1;
#X connect 70 0 69 0;
#X connect 70 0 65 2;
#X connect 71 0 313 0;
#X connect 72 0 62 0;
#X connect 72 0 65 0;
#X connect 73 0 68 0;
#X connect 75 0 74 0;
#X connect 76 0 77 0;
#X connect 76 0 78 0;
#X connect 79 0 82 0;
#X connect 79 1 82 1;
#X connect 80 0 237 0;
#X connect 81 0 236 0;
#X connect 83 0 79 0;
#X connect 84 0 83 1;
#X connect 84 0 201 0;
#X connect 84 1 79 1;
#X connect 84 1 200 0;
#X connect 85 0 238 0;
#X connect 86 0 116 0;
#X connect 88 0 84 1;
#X connect 89 0 92 0;
#X connect 89 1 92 1;
#X connect 93 0 89 0;
#X connect 94 0 93 1;
#X connect 94 0 186 0;
#X connect 94 1 89 1;
#X connect 94 1 185 0;
#X connect 96 0 189 0;
#X connect 97 0 94 1;
#X connect 98 0 87 0;
#X connect 98 0 84 2;
#X connect 100 0 99 0;
#X connect 100 0 94 2;
#X connect 101 0 104 0;
#X connect 101 1 104 1;
#X connect 105 0 101 0;
#X connect 106 0 188 0;
#X connect 106 0 105 1;
#X connect 106 1 101 1;
#X connect 106 1 187 0;
#X connect 108 0 190 0;
#X connect 109 0 106 1;
#X connect 111 0 110 0;
#X connect 111 0 106 2;
#X connect 112 0 314 0;
#X connect 113 0 81 0;
#X connect 113 0 84 0;
#X connect 114 0 317 0;
#X connect 115 0 320 0;
#X connect 116 0 88 0;
#X connect 117 0 119 0;
#X connect 117 1 119 1;
#X connect 120 0 117 0;
#X connect 121 0 120 1;
#X connect 121 0 216 0;
#X connect 121 1 117 1;
#X connect 121 1 215 0;
#X connect 122 0 191 0;
#X connect 124 0 121 1;
#X connect 125 0 127 0;
#X connect 125 1 127 1;
#X connect 128 0 125 0;
#X connect 129 0 128 1;
#X connect 129 0 220 0;
#X connect 129 1 125 1;
#X connect 130 0 192 0;
#X connect 131 0 129 1;
#X connect 132 0 123 0;
#X connect 132 0 121 2;
#X connect 133 0 219 0;
#X connect 134 0 133 0;
#X connect 134 0 129 2;
#X connect 135 0 137 0;
#X connect 135 1 137 1;
#X connect 138 0 135 0;
#X connect 139 0 138 1;
#X connect 139 0 224 0;
#X connect 139 1 135 1;
#X connect 140 0 193 0;
#X connect 141 0 139 1;
#X connect 142 0 223 0;
#X connect 143 0 142 0;
#X connect 143 0 139 2;
#X connect 144 0 321 0;
#X connect 145 0 322 0;
#X connect 146 0 136 0;
#X connect 146 0 139 0;
#X connect 147 0 126 0;
#X connect 147 0 129 0;
#X connect 148 0 118 0;
#X connect 148 0 121 0;
#X connect 149 0 330 0;
#X connect 151 0 162 0;
#X connect 152 0 153 0;
#X connect 154 0 163 0;
#X connect 155 0 164 0;
#X connect 156 0 166 0;
#X connect 157 0 165 0;
#X connect 158 0 167 0;
#X connect 159 0 168 0;
#X connect 160 0 169 0;
#X connect 161 0 290 0;
#X connect 170 0 161 0;
#X connect 171 0 159 0;
#X connect 172 0 160 0;
#X connect 173 0 158 0;
#X connect 174 0 157 0;
#X connect 175 0 156 0;
#X connect 176 0 155 0;
#X connect 177 0 154 0;
#X connect 178 0 152 0;
#X connect 179 0 151 0;
#X connect 180 0 318 0;
#X connect 180 1 319 0;
#X connect 182 0 184 0;
#X connect 183 0 182 0;
#X connect 185 0 90 0;
#X connect 186 0 95 0;
#X connect 187 0 102 0;
#X connect 188 0 107 0;
#X connect 189 0 97 0;
#X connect 190 0 109 0;
#X connect 191 0 124 0;
#X connect 192 0 131 0;
#X connect 193 0 141 0;
#X connect 194 0 46 0;
#X connect 195 0 51 0;
#X connect 196 0 3 0;
#X connect 197 0 14 0;
#X connect 198 0 61 0;
#X connect 199 0 66 0;
#X connect 200 0 80 0;
#X connect 201 0 85 0;
#X connect 215 0 213 0;
#X connect 216 0 214 0;
#X connect 219 0 217 0;
#X connect 220 0 218 0;
#X connect 223 0 221 0;
#X connect 224 0 222 0;
#X connect 225 0 91 0;
#X connect 225 0 94 0;
#X connect 226 0 103 0;
#X connect 226 0 106 0;
#X connect 227 0 41 0;
#X connect 228 0 42 0;
#X connect 231 0 181 0;
#X connect 232 0 233 0;
#X connect 232 0 252 0;
#X connect 233 0 231 1;
#X connect 233 0 240 1;
#X connect 235 0 17 1;
#X connect 240 0 181 1;
#X connect 243 0 242 0;
#X connect 244 0 243 1;
#X connect 244 0 245 1;
#X connect 245 0 242 1;
#X connect 246 0 248 0;
#X connect 247 0 246 0;
#X connect 249 0 324 0;
#X connect 249 1 325 0;
#X connect 253 0 315 0;
#X connect 254 0 256 0;
#X connect 255 0 254 0;
#X connect 257 0 260 0;
#X connect 257 0 261 0;
#X connect 258 0 266 0;
#X connect 259 0 277 0;
#X connect 261 0 258 0;
#X connect 261 1 259 0;
#X connect 262 0 264 0;
#X connect 262 1 264 1;
#X connect 265 0 262 0;
#X connect 266 0 265 1;
#X connect 266 0 270 0;
#X connect 266 1 262 1;
#X connect 266 1 269 0;
#X connect 268 0 271 0;
#X connect 268 0 283 0;
#X connect 269 0 263 0;
#X connect 270 0 267 0;
#X connect 271 0 266 1;
#X connect 272 0 316 0;
#X connect 273 0 275 0;
#X connect 273 1 275 1;
#X connect 276 0 273 0;
#X connect 277 0 276 1;
#X connect 277 0 281 0;
#X connect 277 1 273 1;
#X connect 277 1 280 0;
#X connect 279 0 282 0;
#X connect 279 0 284 0;
#X connect 280 0 274 0;
#X connect 281 0 278 0;
#X connect 282 0 277 1;
#X connect 283 0 266 2;
#X connect 284 0 277 2;
#X connect 285 0 244 0;
#X connect 285 0 250 0;
#X connect 288 0 289 0;
#X connect 289 0 287 0;
#X connect 291 0 293 0;
#X connect 292 0 294 0;
#X connect 295 0 291 0;
#X connect 295 1 292 0;
#X connect 296 0 297 0;
#X connect 296 0 295 0;
#X connect 298 0 295 1;
#X connect 299 0 298 0;
#X connect 299 0 305 0;
#X connect 300 0 301 0;
#X connect 301 0 296 0;
#X connect 302 0 303 0;
#X connect 304 0 302 0;
#X connect 305 0 296 0;
#X connect 306 0 323 0;
#X connect 308 0 309 0;
#X connect 310 0 17 0;
#X connect 311 0 12 0;
#X connect 312 0 49 0;
#X connect 313 0 64 0;
#X connect 314 0 83 0;
#X connect 315 0 265 0;
#X connect 316 0 276 0;
#X connect 317 0 93 0;
#X connect 318 0 231 0;
#X connect 319 0 240 0;
#X connect 320 0 105 0;
#X connect 321 0 120 0;
#X connect 322 0 128 0;
#X connect 323 0 138 0;
#X connect 324 0 243 0;
#X connect 325 0 245 0;
#X connect 327 0 326 0;
#X connect 330 0 75 0;
#X connect 331 0 332 0;
#X connect 333 0 334 0;
#X connect 335 0 336 0;
#X connect 336 0 331 0;
