#N canvas 365 25 1075 808 12;
#X obj 505 319 *~;
#N canvas 1947 192 450 576 cos-phase-control 0;
#X obj 78 49 inlet;
#X obj 78 88 phasor~;
#X obj 78 111 cos~;
#X obj 77 274 +~;
#X obj 77 300 outlet~;
#X text 73 17 frequency;
#X text 252 16 Phase;
#X obj 318 82 / 100;
#X obj 318 105 pack f 30;
#X obj 318 128 vline~;
#X obj 228 111 wrap~;
#X obj 158 144 +~;
#X obj 158 167 cos~;
#X obj 228 52 inlet~;
#X obj 228 75 /~ 100;
#X connect 0 0 1 0;
#X connect 1 0 2 0;
#X connect 2 0 3 0;
#X connect 2 0 11 0;
#X connect 3 0 4 0;
#X connect 7 0 8 0;
#X connect 8 0 9 0;
#X connect 10 0 11 1;
#X connect 11 0 12 0;
#X connect 12 0 3 1;
#X connect 13 0 14 0;
#X connect 14 0 10 0;
#X restore 303 349 pd cos-phase-control;
#X floatatom 304 307 5 0 0 0 - - -;
#N canvas 732 170 481 477 od 0;
#X obj 176 198 *~;
#X obj 197 227 *~;
#X obj 156 249 -~;
#X obj 181 137 clip~ -0.57735 0.57735;
#X obj 173 68 inlet~;
#X obj 149 285 outlet~;
#X text 154 360 thanks Miller!;
#X connect 0 0 1 0;
#X connect 1 0 2 1;
#X connect 2 0 5 0;
#X connect 3 0 0 0;
#X connect 3 0 0 1;
#X connect 3 0 1 1;
#X connect 3 0 2 0;
#X connect 4 0 3 0;
#X restore 304 429 pd od;
#N canvas 264 81 798 605 allPasses 0;
#X obj 209 82 inlet~;
#X obj 347 45 inlet;
#X obj 203 453 outlet~;
#X obj 213 133 AllPass;
#X obj 213 191 AllPass;
#X obj 211 244 AllPass;
#X obj 207 294 AllPass;
#X obj 204 347 AllPass;
#X obj 205 397 AllPass;
#X obj 301 113 + 25;
#X obj 301 91 random 25;
#X obj 300 165 + 25;
#X obj 300 143 random 25;
#X obj 297 219 + 25;
#X obj 299 198 random 25;
#X obj 300 265 + 25;
#X obj 300 243 random 25;
#X obj 298 318 + 25;
#X obj 298 296 random 25;
#X obj 296 373 + 25;
#X obj 296 351 random 25;
#X connect 0 0 3 0;
#X connect 1 0 10 0;
#X connect 3 0 4 0;
#X connect 4 0 5 0;
#X connect 5 0 6 0;
#X connect 6 0 7 0;
#X connect 7 0 8 0;
#X connect 8 0 2 0;
#X connect 9 0 3 1;
#X connect 10 0 9 0;
#X connect 11 0 4 1;
#X connect 12 0 11 0;
#X connect 13 0 5 1;
#X connect 14 0 13 0;
#X connect 15 0 6 1;
#X connect 16 0 15 0;
#X connect 17 0 7 1;
#X connect 18 0 17 0;
#X connect 19 0 8 1;
#X connect 20 0 19 0;
#X restore 307 508 pd allPasses;
#X obj 387 489 bng 15 250 50 0 empty empty empty 17 7 0 10 -262144
-1 -1;
#N canvas 732 170 481 477 od 0;
#X obj 176 198 *~;
#X obj 197 227 *~;
#X obj 156 249 -~;
#X obj 181 137 clip~ -0.57735 0.57735;
#X obj 173 68 inlet~;
#X obj 149 285 outlet~;
#X text 154 360 thanks Miller!;
#X connect 0 0 1 0;
#X connect 1 0 2 1;
#X connect 2 0 5 0;
#X connect 3 0 0 0;
#X connect 3 0 0 1;
#X connect 3 0 1 1;
#X connect 3 0 2 0;
#X connect 4 0 3 0;
#X restore 308 575 pd od;
#X obj 507 192 line~;
#X obj 387 465 loadbang;
#X text 416 489 initialize all pass filters;
#X msg 306 103 40;
#X obj 306 80 loadbang;
#X obj 508 73 loadbang;
#X obj 508 96 tgl 15 0 empty empty empty 17 7 0 10 -262144 -1 -1 1
1;
#X text 565 194 <- generate linear ramp to target phase (a la to LFNoise01)
;
#X obj 505 119 metro 10000;
#X obj 506 166 pack f 10000;
#X obj 506 143 random 300;
#X obj 191 335 f;
#X obj 190 437 osc~;
#X obj 308 544 *~ 3;
#X obj 453 115 bng 15 250 50 0 empty empty empty 17 7 0 10 -262144
-1 -1;
#X text 596 119 <- phase target changes every 10 seconds;
#X obj 191 462 *~ 0.25;
#X text 589 143 < random phase value (0-300) phase goes 0-100;
#X text 428 401 <= how much overdrive before all pass filters;
#X obj 304 404 *~ 0.125;
#X floatatom 387 541 5 0 0 0 - - -;
#X floatatom 372 402 5 0 0 0 - - -;
#X obj 375 600 s~ feedback;
#X obj 525 294 r~ feedback;
#X floatatom 426 642 5 0 0 0 - - -;
#X obj 309 627 lop~ 800;
#X obj 308 653 lop~ 800;
#X text 74 440 reinforcing the fundamental;
#X text 306 32 freq;
#X text 510 29 phase;
#X obj 311 680 lop~ 800;
#X text 473 641 <= additional low pass stage;
#X obj 311 704 outlet~;
#X connect 0 0 1 1;
#X connect 1 0 26 0;
#X connect 2 0 1 0;
#X connect 2 0 18 0;
#X connect 3 0 4 0;
#X connect 4 0 20 0;
#X connect 5 0 4 1;
#X connect 6 0 29 0;
#X connect 6 0 32 0;
#X connect 7 0 0 0;
#X connect 8 0 5 0;
#X connect 10 0 2 0;
#X connect 11 0 10 0;
#X connect 12 0 13 0;
#X connect 13 0 15 0;
#X connect 15 0 17 0;
#X connect 16 0 7 0;
#X connect 17 0 16 0;
#X connect 18 0 19 0;
#X connect 19 0 23 0;
#X connect 20 0 6 0;
#X connect 21 0 17 0;
#X connect 23 0 20 0;
#X connect 26 0 3 0;
#X connect 27 0 20 1;
#X connect 28 0 26 1;
#X connect 30 0 0 1;
#X connect 31 0 32 1;
#X connect 31 0 33 1;
#X connect 31 0 37 1;
#X connect 32 0 33 0;
#X connect 33 0 37 0;
#X connect 37 0 39 0;
