#N canvas 2357 406 868 563 12;
#N canvas 1515 411 752 468 calcPanning 1;
#N canvas 0 25 1320 754 userAngleUnitVector 0;
#X obj 438 207 r userX;
#X obj 524 204 r userY;
#X obj 428 256 -;
#X obj 516 256 -;
#X floatatom 543 280 5 0 0 0 - - -;
#X floatatom 442 281 5 0 0 0 - - -;
#X obj 438 231 t b f;
#X obj 524 228 t b f;
#X obj 409 143 inlet;
#X obj 512 155 inlet;
#X obj 430 364 outlet;
#X obj 511 362 outlet;
#X obj 428 313 calcUnitVector;
#X connect 0 0 6 0;
#X connect 1 0 7 0;
#X connect 2 0 5 0;
#X connect 2 0 12 0;
#X connect 3 0 4 0;
#X connect 3 0 12 1;
#X connect 6 0 2 0;
#X connect 6 1 2 1;
#X connect 7 0 3 0;
#X connect 7 1 3 1;
#X connect 8 0 2 0;
#X connect 9 0 3 0;
#X connect 12 0 10 0;
#X connect 12 1 11 0;
#X restore 205 167 pd userAngleUnitVector;
#X obj 313 219 angleBetweenVectors;
#X obj 313 244 panningQuadrants;
#X obj 196 59 inlet;
#X obj 338 52 inlet;
#X text 191 24 angle;
#X text 332 18 radius;
#X obj 440 42 inlet;
#X obj 521 49 inlet;
#X obj 314 304 outlet;
#X text 365 305 panning value between -1 \, 1;
#X text 439 23 user X;
#X text 520 23 user Y;
#X connect 0 0 1 0;
#X connect 0 1 1 1;
#X connect 1 0 2 0;
#X connect 2 0 9 0;
#X connect 3 0 0 0;
#X connect 4 0 0 1;
#X connect 7 0 1 2;
#X connect 8 0 1 3;
#X restore 441 281 pd calcPanning;
#X obj 110 40 phasor~ 0.1;
#X obj 110 64 snapshot~;
#X obj 214 29 tgl 15 0 empty empty empty 17 7 0 10 -262144 -1 -1 0
1;
#X obj 214 49 metro 20;
#X obj 113 102 hsl 128 15 0 1 0 0 empty empty empty -2 -8 0 10 -262144
-1 -1 6400 1;
#X floatatom 257 91 5 0 0 0 - - -;
#X obj 144 134 polarToCart;
#X floatatom 144 158 5 0 0 0 - - -;
#X floatatom 220 158 5 0 0 0 - - -;
#X msg 322 52 1;
#X obj 322 74 atan;
#X obj 322 99 * 4;
#X obj 321 24 loadbang;
#X obj 322 123 s pi;
#X text 354 105 calculate pi;
#X floatatom 292 168 5 0 0 0 - - -;
#X floatatom 349 168 5 0 0 0 - - -;
#N canvas 0 25 1320 754 userAngleUnitVector 1;
#X obj 428 256 -;
#X obj 516 256 -;
#X floatatom 543 280 5 0 0 0 - - -;
#X floatatom 442 281 5 0 0 0 - - -;
#X obj 438 231 t b f;
#X obj 524 228 t b f;
#X obj 409 143 inlet;
#X obj 512 155 inlet;
#X obj 430 364 outlet;
#X obj 511 362 outlet;
#X obj 428 313 calcUnitVector;
#X obj 631 204 calcUnitVector;
#X obj 826 156 r userVX;
#X obj 912 153 r userVY;
#X obj 809 208 calcUnitVector;
#X obj 438 203 r userX;
#X obj 524 200 r userY;
#X connect 0 0 3 0;
#X connect 0 0 10 0;
#X connect 1 0 2 0;
#X connect 1 0 10 1;
#X connect 4 0 0 0;
#X connect 4 1 0 1;
#X connect 5 0 1 0;
#X connect 5 1 1 1;
#X connect 6 0 0 0;
#X connect 6 0 11 0;
#X connect 7 0 1 0;
#X connect 7 0 11 1;
#X connect 10 0 8 0;
#X connect 10 1 9 0;
#X connect 12 0 14 0;
#X connect 13 0 14 1;
#X connect 15 0 4 0;
#X connect 16 0 5 0;
#X restore 94 216 pd userAngleUnitVector;
#X obj 292 191 s userX;
#X obj 349 191 s userY;
#X floatatom 94 240 5 0 0 0 - - -;
#X floatatom 246 239 5 0 0 0 - - -;
#X obj 203 308 angleBetweenVectors;
#X obj 201 370 panningQuadrants;
#X floatatom 203 332 5 0 0 0 - - -;
#X obj 205 407 hsl 128 15 -1 1 0 0 empty empty empty -2 -8 0 10 -262144
-1 -1 6306 1;
#X floatatom 555 164 5 0 0 0 - - -;
#X floatatom 617 164 5 0 0 0 - - -;
#X obj 555 187 s userVX;
#X obj 617 187 s userVY;
#X obj 289 277 r userVX;
#X obj 352 277 r userVY;
#X floatatom 71 87 5 0 0 0 - - -;
#X obj 525 87 hsl 128 15 0 1 0 0 empty empty empty -2 -8 0 10 -262144
-1 -1 0 1;
#X floatatom 669 76 5 0 0 0 - - -;
#X obj 556 119 polarToCart;
#X floatatom 522 107 5 0 0 0 - - -;
#X text 557 216 user Direction vector;
#X connect 1 0 2 0;
#X connect 2 0 33 0;
#X connect 3 0 4 0;
#X connect 4 0 2 0;
#X connect 5 0 7 0;
#X connect 6 0 7 1;
#X connect 7 0 8 0;
#X connect 7 1 9 0;
#X connect 8 0 18 0;
#X connect 9 0 18 1;
#X connect 10 0 11 0;
#X connect 11 0 12 0;
#X connect 12 0 14 0;
#X connect 13 0 10 0;
#X connect 16 0 19 0;
#X connect 17 0 20 0;
#X connect 18 0 21 0;
#X connect 18 1 22 0;
#X connect 21 0 23 0;
#X connect 22 0 23 1;
#X connect 23 0 25 0;
#X connect 24 0 26 0;
#X connect 25 0 24 0;
#X connect 27 0 29 0;
#X connect 28 0 30 0;
#X connect 31 0 23 2;
#X connect 32 0 23 3;
#X connect 33 0 5 0;
#X connect 34 0 36 0;
#X connect 34 0 37 0;
#X connect 35 0 36 1;
#X connect 36 0 27 0;
#X connect 36 1 28 0;
