#N canvas 953 60 910 892 12;
#X obj 681 23 loadbang;
#X obj 681 49 s rndmz;
#X obj 636 23 bng 15 250 50 0 empty empty empty 17 7 0 10 -262144 -1
-1;
#X obj 618 68 tgl 15 0 empty empty empty 17 7 0 10 -262144 -1 -1 1
1;
#X obj 618 94 s tgl;
#X obj 160 385 catch~ out;
#X obj 148 432 dac~;
#X obj 300 226 throw~ out;
#X msg 73 60 \; pd dsp \$1;
#X obj 73 32 tgl 15 0 empty empty empty 17 7 0 10 -262144 -1 -1 0 1
;
#N canvas 50 39 1104 885 durations1 0;
#X obj 431 124 metro 10000;
#X obj 431 158 bng 15 250 50 0 empty empty empty 17 7 0 10 -262144
-1 -1;
#X floatatom 168 346 5 0 0 0 - - -;
#X obj 168 444 lop~ 6000;
#X obj 169 520 *~;
#X obj 316 463 line 0 3;
#X floatatom 316 489 5 0 0 0 - - -;
#X floatatom 526 83 5 0 0 0 - - -;
#X obj 431 92 r tgl;
#X obj 526 14 r rndmz;
#X obj 168 418 osc~;
#X obj 168 308 r note1;
#X msg 316 413 0.1 700;
#X msg 463 411 0 700;
#X floatatom 539 356 5 0 0 0 - - -;
#X floatatom 540 232 5 0 0 0 - - -;
#N canvas 34 159 450 452 div 0;
#X obj 189 236 outlet;
#X obj 189 17 inlet length;
#X obj 189 181 / 2;
#X connect 1 0 2 0;
#X connect 2 0 0 0;
#X restore 526 203 pd div;
#X obj 463 374 delay;
#X obj 316 376 delay;
#X text 577 82 Duration of the loop;
#X obj 526 328 + 200;
#X obj 170 554 outlet~;
#X obj 431 182 s bng1;
#X obj 83 53 r bng1;
#X obj 316 339 r bng1;
#X obj 463 337 r bng1;
#X text 593 331 This determines the duration of the sound (although
in this version all sounds are 200 ms long);
#X obj 83 144 s note1;
#X obj 527 59 + 3000;
#X obj 83 82 random 90;
#X obj 83 118 + 91;
#X obj 526 36 random 2000;
#X connect 0 0 1 0;
#X connect 1 0 22 0;
#X connect 2 0 10 0;
#X connect 3 0 4 0;
#X connect 4 0 21 0;
#X connect 5 0 6 0;
#X connect 6 0 4 1;
#X connect 7 0 0 1;
#X connect 7 0 16 0;
#X connect 8 0 0 0;
#X connect 9 0 31 0;
#X connect 10 0 3 0;
#X connect 11 0 2 0;
#X connect 12 0 5 0;
#X connect 13 0 5 0;
#X connect 16 0 15 0;
#X connect 16 0 18 1;
#X connect 16 0 20 0;
#X connect 17 0 13 0;
#X connect 18 0 12 0;
#X connect 20 0 17 1;
#X connect 20 0 14 0;
#X connect 23 0 29 0;
#X connect 24 0 18 0;
#X connect 25 0 17 0;
#X connect 28 0 7 0;
#X connect 29 0 30 0;
#X connect 30 0 27 0;
#X connect 31 0 28 0;
#X restore 300 200 pd durations1;
#X text 305 142 The Main Belt has a duration range of between 16000
and 28000 miliseconds;
#X obj 411 226 throw~ out;
#N canvas 447 179 1104 885 durations2 0;
#X obj 431 124 metro 10000;
#X obj 431 158 bng 15 250 50 0 empty empty empty 17 7 0 10 -262144
-1 -1;
#X floatatom 168 346 5 0 0 0 - - -;
#X obj 168 444 lop~ 6000;
#X obj 169 520 *~;
#X obj 316 463 line 0 3;
#X floatatom 316 489 5 0 0 0 - - -;
#X floatatom 526 83 5 0 0 0 - - -;
#X obj 431 92 r tgl;
#X obj 526 14 r rndmz;
#X obj 168 418 osc~;
#X msg 316 413 0.1 700;
#X msg 463 411 0 700;
#X floatatom 539 356 5 0 0 0 - - -;
#X floatatom 540 232 5 0 0 0 - - -;
#N canvas 34 159 450 452 div 0;
#X obj 189 236 outlet;
#X obj 189 17 inlet length;
#X obj 189 181 / 2;
#X connect 1 0 2 0;
#X connect 2 0 0 0;
#X restore 526 203 pd div;
#X obj 463 374 delay;
#X obj 316 376 delay;
#X text 577 82 Duration of the loop;
#X obj 526 328 + 200;
#X obj 170 554 outlet~;
#X text 593 331 This determines the duration of the sound (although
in this version all sounds are 200 ms long);
#X obj 168 308 r note2;
#X obj 431 182 s bng2;
#X obj 316 339 r bng2;
#X obj 463 337 r bng2;
#X obj 83 53 r bng2;
#X obj 83 144 s note2;
#X obj 83 118 + 180;
#X obj 83 82 random 320;
#X obj 526 58 + 6000;
#X obj 526 36 random 2000;
#X connect 0 0 1 0;
#X connect 1 0 23 0;
#X connect 2 0 10 0;
#X connect 3 0 4 0;
#X connect 4 0 20 0;
#X connect 5 0 6 0;
#X connect 6 0 4 1;
#X connect 7 0 0 1;
#X connect 7 0 15 0;
#X connect 8 0 0 0;
#X connect 9 0 31 0;
#X connect 10 0 3 0;
#X connect 11 0 5 0;
#X connect 12 0 5 0;
#X connect 15 0 14 0;
#X connect 15 0 17 1;
#X connect 15 0 19 0;
#X connect 16 0 12 0;
#X connect 17 0 11 0;
#X connect 19 0 16 1;
#X connect 19 0 13 0;
#X connect 22 0 2 0;
#X connect 24 0 17 0;
#X connect 25 0 16 0;
#X connect 26 0 29 0;
#X connect 28 0 27 0;
#X connect 29 0 28 0;
#X connect 30 0 7 0;
#X connect 31 0 30 0;
#X restore 411 200 pd durations2;
#X obj 524 226 throw~ out;
#X obj 635 226 throw~ out;
#N canvas 50 39 1104 885 durations3 0;
#X obj 431 124 metro 10000;
#X obj 431 158 bng 15 250 50 0 empty empty empty 17 7 0 10 -262144
-1 -1;
#X floatatom 168 346 5 0 0 0 - - -;
#X obj 168 444 lop~ 6000;
#X obj 169 520 *~;
#X obj 316 463 line 0 3;
#X floatatom 316 489 5 0 0 0 - - -;
#X floatatom 526 83 5 0 0 0 - - -;
#X obj 431 92 r tgl;
#X obj 526 14 r rndmz;
#X obj 168 418 osc~;
#X msg 316 413 0.1 700;
#X msg 463 411 0 700;
#X floatatom 539 356 5 0 0 0 - - -;
#X floatatom 540 232 5 0 0 0 - - -;
#N canvas 34 159 450 452 div 0;
#X obj 189 236 outlet;
#X obj 189 17 inlet length;
#X obj 189 181 / 2;
#X connect 1 0 2 0;
#X connect 2 0 0 0;
#X restore 526 203 pd div;
#X obj 463 374 delay;
#X obj 316 376 delay;
#X text 577 82 Duration of the loop;
#X obj 526 328 + 200;
#X obj 170 554 outlet~;
#X text 593 331 This determines the duration of the sound (although
in this version all sounds are 200 ms long);
#X obj 431 182 s bng3;
#X obj 83 53 r bng3;
#X obj 83 144 s note3;
#X obj 168 308 r note3;
#X obj 316 339 r bng3;
#X obj 464 337 r bng3;
#X obj 83 118 + 500;
#X obj 83 82 random 700;
#X obj 527 59 + 9000;
#X obj 526 36 random 1000;
#X connect 0 0 1 0;
#X connect 1 0 22 0;
#X connect 2 0 10 0;
#X connect 3 0 4 0;
#X connect 4 0 20 0;
#X connect 5 0 6 0;
#X connect 6 0 4 1;
#X connect 7 0 0 1;
#X connect 7 0 15 0;
#X connect 8 0 0 0;
#X connect 9 0 31 0;
#X connect 10 0 3 0;
#X connect 11 0 5 0;
#X connect 12 0 5 0;
#X connect 15 0 14 0;
#X connect 15 0 17 1;
#X connect 15 0 19 0;
#X connect 16 0 12 0;
#X connect 17 0 11 0;
#X connect 19 0 16 1;
#X connect 19 0 13 0;
#X connect 23 0 29 0;
#X connect 25 0 2 0;
#X connect 26 0 17 0;
#X connect 27 0 16 0;
#X connect 28 0 24 0;
#X connect 29 0 28 0;
#X connect 30 0 7 0;
#X connect 31 0 30 0;
#X restore 524 200 pd durations3;
#N canvas 447 179 1104 885 durations4 0;
#X obj 431 124 metro 10000;
#X obj 431 158 bng 15 250 50 0 empty empty empty 17 7 0 10 -262144
-1 -1;
#X floatatom 168 346 5 0 0 0 - - -;
#X obj 168 444 lop~ 6000;
#X obj 169 520 *~;
#X obj 316 463 line 0 3;
#X floatatom 316 489 5 0 0 0 - - -;
#X floatatom 526 83 5 0 0 0 - - -;
#X obj 431 92 r tgl;
#X obj 526 14 r rndmz;
#X obj 168 418 osc~;
#X msg 316 413 0.1 700;
#X msg 463 411 0 700;
#X floatatom 539 356 5 0 0 0 - - -;
#X floatatom 540 232 5 0 0 0 - - -;
#N canvas 34 159 450 452 div 0;
#X obj 189 236 outlet;
#X obj 189 17 inlet length;
#X obj 189 181 / 2;
#X connect 1 0 2 0;
#X connect 2 0 0 0;
#X restore 526 203 pd div;
#X obj 463 374 delay;
#X obj 316 376 delay;
#X text 577 82 Duration of the loop;
#X obj 526 328 + 200;
#X obj 170 554 outlet~;
#X text 593 331 This determines the duration of the sound (although
in this version all sounds are 200 ms long);
#X obj 431 182 s bng4;
#X obj 83 53 r bng4;
#X obj 83 144 s note4;
#X obj 168 308 r note4;
#X obj 316 339 r bng4;
#X obj 463 337 r bng4;
#X obj 83 118 + 1200;
#X obj 83 82 random 1400;
#X obj 526 58 + 11000;
#X obj 526 36 random 1000;
#X connect 0 0 1 0;
#X connect 1 0 22 0;
#X connect 2 0 10 0;
#X connect 3 0 4 0;
#X connect 4 0 20 0;
#X connect 5 0 6 0;
#X connect 6 0 4 1;
#X connect 7 0 0 1;
#X connect 7 0 15 0;
#X connect 8 0 0 0;
#X connect 9 0 31 0;
#X connect 10 0 3 0;
#X connect 11 0 5 0;
#X connect 12 0 5 0;
#X connect 15 0 14 0;
#X connect 15 0 17 1;
#X connect 15 0 19 0;
#X connect 16 0 12 0;
#X connect 17 0 11 0;
#X connect 19 0 16 1;
#X connect 19 0 13 0;
#X connect 23 0 29 0;
#X connect 25 0 2 0;
#X connect 26 0 17 0;
#X connect 27 0 16 0;
#X connect 28 0 24 0;
#X connect 29 0 28 0;
#X connect 30 0 7 0;
#X connect 31 0 30 0;
#X restore 635 200 pd durations4;
#X obj 46 225 throw~ out;
#N canvas 0 50 450 498 LowDrone 0;
#X floatatom 133 157 5 0 0 0 - - -;
#N canvas 0 50 450 355 triangle 0;
#X obj 143 24 inlet;
#X obj 330 249 outlet~;
#X obj 143 125 phasor~;
#X obj 143 177 -~ 1;
#X obj 143 203 clip~ 0 1;
#X obj 143 151 *~ 2;
#X obj 235 125 phasor~;
#X obj 235 177 -~ 1;
#X obj 235 203 clip~ 0 1;
#X obj 235 151 *~ 2;
#X obj 177 74 * -1;
#X obj 182 276 +~;
#X msg 281 80 2;
#X connect 0 0 2 0;
#X connect 0 0 10 0;
#X connect 2 0 5 0;
#X connect 3 0 4 0;
#X connect 4 0 11 0;
#X connect 5 0 3 0;
#X connect 6 0 9 0;
#X connect 7 0 8 0;
#X connect 8 0 11 1;
#X connect 9 0 7 0;
#X connect 10 0 6 0;
#X connect 11 0 1 0;
#X connect 12 0 6 1;
#X connect 12 0 2 1;
#X restore 133 193 pd triangle;
#X floatatom 39 157 5 0 0 0 - - -;
#N canvas 0 50 450 355 triangle 0;
#X obj 143 24 inlet;
#X obj 330 249 outlet~;
#X obj 143 125 phasor~;
#X obj 143 177 -~ 1;
#X obj 143 203 clip~ 0 1;
#X obj 143 151 *~ 2;
#X obj 235 125 phasor~;
#X obj 235 177 -~ 1;
#X obj 235 203 clip~ 0 1;
#X obj 235 151 *~ 2;
#X obj 177 74 * -1;
#X obj 182 276 +~;
#X msg 281 80 2;
#X connect 0 0 2 0;
#X connect 0 0 10 0;
#X connect 2 0 5 0;
#X connect 3 0 4 0;
#X connect 4 0 11 0;
#X connect 5 0 3 0;
#X connect 6 0 9 0;
#X connect 7 0 8 0;
#X connect 8 0 11 1;
#X connect 9 0 7 0;
#X connect 10 0 6 0;
#X connect 11 0 1 0;
#X connect 12 0 6 1;
#X connect 12 0 2 1;
#X restore 39 193 pd triangle;
#X floatatom 227 157 5 0 0 0 - - -;
#N canvas 0 50 450 355 triangle 0;
#X obj 143 24 inlet;
#X obj 330 249 outlet~;
#X obj 143 125 phasor~;
#X obj 143 177 -~ 1;
#X obj 143 203 clip~ 0 1;
#X obj 143 151 *~ 2;
#X obj 235 125 phasor~;
#X obj 235 177 -~ 1;
#X obj 235 203 clip~ 0 1;
#X obj 235 151 *~ 2;
#X obj 177 74 * -1;
#X obj 182 276 +~;
#X msg 281 80 2;
#X connect 0 0 2 0;
#X connect 0 0 10 0;
#X connect 2 0 5 0;
#X connect 3 0 4 0;
#X connect 4 0 11 0;
#X connect 5 0 3 0;
#X connect 6 0 9 0;
#X connect 7 0 8 0;
#X connect 8 0 11 1;
#X connect 9 0 7 0;
#X connect 10 0 6 0;
#X connect 11 0 1 0;
#X connect 12 0 6 1;
#X connect 12 0 2 1;
#X restore 227 193 pd triangle;
#X floatatom 324 156 5 0 0 0 - - -;
#N canvas 0 50 450 355 triangle 0;
#X obj 143 24 inlet;
#X obj 330 249 outlet~;
#X obj 143 125 phasor~;
#X obj 143 177 -~ 1;
#X obj 143 203 clip~ 0 1;
#X obj 143 151 *~ 2;
#X obj 235 125 phasor~;
#X obj 235 177 -~ 1;
#X obj 235 203 clip~ 0 1;
#X obj 235 151 *~ 2;
#X obj 177 74 * -1;
#X obj 182 276 +~;
#X msg 281 80 2;
#X connect 0 0 2 0;
#X connect 0 0 10 0;
#X connect 2 0 5 0;
#X connect 3 0 4 0;
#X connect 4 0 11 0;
#X connect 5 0 3 0;
#X connect 6 0 9 0;
#X connect 7 0 8 0;
#X connect 8 0 11 1;
#X connect 9 0 7 0;
#X connect 10 0 6 0;
#X connect 11 0 1 0;
#X connect 12 0 6 1;
#X connect 12 0 2 1;
#X restore 324 192 pd triangle;
#X obj 182 356 outlet~;
#X obj 274 45 loadbang;
#X obj 181 309 *~ 0.2;
#X text 20 34 Frequencies: 70 \, 70.5 \, 105 \, 105.5;
#X msg 39 118 70;
#X msg 133 116 70.5;
#X msg 227 113 105;
#X msg 324 111 105.5;
#X connect 0 0 1 0;
#X connect 1 0 10 0;
#X connect 2 0 3 0;
#X connect 3 0 10 0;
#X connect 4 0 5 0;
#X connect 5 0 10 0;
#X connect 6 0 7 0;
#X connect 7 0 10 0;
#X connect 9 0 15 0;
#X connect 9 0 14 0;
#X connect 9 0 13 0;
#X connect 9 0 12 0;
#X connect 10 0 8 0;
#X connect 12 0 2 0;
#X connect 13 0 0 0;
#X connect 14 0 4 0;
#X connect 15 0 6 0;
#X restore 45 196 pd LowDrone;
#X text 303 267 There are four patches for frequency selection (each
with their own probability distribution: in the Kuiper belt \, 91 to
180 are the most likely \, 180 to 500 are next \, then 500 to 1200
and finally the least likely are 1200 to 2600;
#X connect 0 0 1 0;
#X connect 0 0 3 0;
#X connect 2 0 1 0;
#X connect 3 0 4 0;
#X connect 5 0 6 0;
#X connect 5 0 6 1;
#X connect 9 0 8 0;
#X connect 10 0 7 0;
#X connect 13 0 12 0;
#X connect 16 0 14 0;
#X connect 17 0 15 0;
#X connect 19 0 18 0;
