#N canvas 298 25 1024 847 12;
#X text 582 75 There are four patches for frequency selection (each
with their own probability distribution: lower frequencies are more
likely than higher).;
#X text 575 37 The Main Belt has a duration range of between 16000
and 28000 miliseconds;
#X obj 371 913 *~;
#X obj 598 878 rampOnOff;
#X obj 371 937 outlet~;
#X obj 598 854 r TrojansOnOff;
#X obj 393 801 durations 181 319 340 200;
#X obj 306 660 durations 2600 1400 310 200;
#X obj 454 127 loadbang;
#X obj 131 400 durations 500 700 200 500;
#X obj 223 525 durations 1200 1400 260 300;
#X obj 370 190 s \$0-attack;
#X text 488 166 <- Attack/ Decay/ Decay range times;
#X obj 217 331 r \$0-attack;
#X obj 260 353 r \$0-release;
#X obj 413 213 s \$0-release;
#X obj 463 237 s \$0-release-range;
#X obj 303 376 r \$0-release-range;
#X obj 315 460 r \$0-attack;
#X obj 362 481 r \$0-release;
#X obj 409 502 r \$0-release-range;
#X obj 399 594 r \$0-attack;
#X obj 445 617 r \$0-release;
#X obj 492 639 r \$0-release-range;
#X obj 479 736 r \$0-attack;
#X obj 522 757 r \$0-release;
#X obj 565 779 r \$0-release-range;
#X obj 61 285 loadbang;
#X obj 60 345 *;
#X obj 140 346 *;
#X obj 172 310 t b f;
#X floatatom 92 344 5 0 0 0 - - -;
#X floatatom 171 345 5 0 0 0 - - -;
#X obj 153 432 loadbang;
#X obj 152 492 *;
#X obj 232 493 *;
#X obj 264 457 t b f;
#X floatatom 184 491 5 0 0 0 - - -;
#X floatatom 263 492 5 0 0 0 - - -;
#X obj 240 567 loadbang;
#X msg 239 590 10000;
#X obj 239 627 *;
#X obj 319 628 *;
#X obj 351 592 t b f;
#X floatatom 271 626 5 0 0 0 - - -;
#X floatatom 350 627 5 0 0 0 - - -;
#X obj 323 711 loadbang;
#X obj 322 771 *;
#X obj 402 772 *;
#X obj 434 736 t b f;
#X floatatom 354 770 5 0 0 0 - - -;
#X floatatom 433 771 5 0 0 0 - - -;
#X msg 60 308 20000;
#X msg 124 310 5000;
#X msg 152 454 26000;
#X msg 216 457 30000;
#X msg 303 592 2000;
#X msg 321 736 34000;
#X msg 387 736 2000;
#X text 70 736 These are min time and range >>>;
#X obj 172 283 r orbitScaler;
#X obj 264 430 r orbitScaler;
#X obj 351 565 r orbitScaler;
#X obj 434 709 r orbitScaler;
#X obj 352 400 loadbang;
#X obj 442 525 loadbang;
#X obj 528 660 loadbang;
#X obj 598 800 loadbang;
#X text 418 399 make output mono so it can pan like Jupiter;
#X msg 370 164 700;
#X msg 414 163 700;
#X msg 456 163 200;
#X connect 2 0 4 0;
#X connect 3 0 2 1;
#X connect 5 0 3 0;
#X connect 6 0 2 0;
#X connect 6 1 2 0;
#X connect 7 0 2 0;
#X connect 7 1 2 0;
#X connect 8 0 69 0;
#X connect 8 0 70 0;
#X connect 8 0 71 0;
#X connect 9 0 2 0;
#X connect 9 1 2 0;
#X connect 10 0 2 0;
#X connect 10 1 2 0;
#X connect 13 0 9 2;
#X connect 14 0 9 3;
#X connect 17 0 9 4;
#X connect 18 0 10 2;
#X connect 19 0 10 3;
#X connect 20 0 10 4;
#X connect 21 0 7 2;
#X connect 22 0 7 3;
#X connect 23 0 7 4;
#X connect 24 0 6 2;
#X connect 25 0 6 3;
#X connect 26 0 6 4;
#X connect 27 0 52 0;
#X connect 27 0 53 0;
#X connect 28 0 31 0;
#X connect 28 0 9 0;
#X connect 29 0 32 0;
#X connect 29 0 9 1;
#X connect 30 0 29 0;
#X connect 30 0 28 0;
#X connect 30 1 29 1;
#X connect 30 1 28 1;
#X connect 33 0 54 0;
#X connect 33 0 55 0;
#X connect 34 0 37 0;
#X connect 34 0 10 0;
#X connect 35 0 38 0;
#X connect 35 0 10 1;
#X connect 36 0 35 0;
#X connect 36 0 34 0;
#X connect 36 1 35 1;
#X connect 36 1 34 1;
#X connect 39 0 40 0;
#X connect 39 0 56 0;
#X connect 40 0 41 0;
#X connect 41 0 44 0;
#X connect 41 0 7 0;
#X connect 42 0 45 0;
#X connect 42 0 7 1;
#X connect 43 0 42 0;
#X connect 43 0 41 0;
#X connect 43 1 42 1;
#X connect 43 1 41 1;
#X connect 46 0 57 0;
#X connect 46 0 58 0;
#X connect 47 0 50 0;
#X connect 47 0 6 0;
#X connect 48 0 51 0;
#X connect 48 0 6 1;
#X connect 49 0 48 0;
#X connect 49 0 47 0;
#X connect 49 1 48 1;
#X connect 49 1 47 1;
#X connect 52 0 28 0;
#X connect 53 0 29 0;
#X connect 54 0 34 0;
#X connect 55 0 35 0;
#X connect 56 0 42 0;
#X connect 57 0 47 0;
#X connect 58 0 48 0;
#X connect 60 0 30 0;
#X connect 61 0 36 0;
#X connect 62 0 43 0;
#X connect 63 0 49 0;
#X connect 64 0 9 5;
#X connect 65 0 10 5;
#X connect 66 0 7 5;
#X connect 67 0 6 5;
#X connect 69 0 11 0;
#X connect 70 0 15 0;
#X connect 71 0 16 0;
