#N canvas 1737 139 768 690 12;
#X text 190 70 There are four patches for frequency selection (each
with their own probability distribution: lower frequencies are more
likely than higher).;
#X msg 73 60 \; pd dsp \$1;
#X obj 73 32 tgl 15 0 empty empty empty 17 7 0 10 -262144 -1 -1 0 1
;
#X text 193 30 The Main Belt has a duration range of between 16000
and 28000 miliseconds;
#X obj 256 401 *~;
#X obj 483 366 rampOnOff;
#X obj 256 425 outlet~;
#X obj 483 342 r TrojansOnOff;
#X obj 278 289 durations 181 319 340 200;
#X obj 236 249 durations 2600 1400 310 200;
#X obj 83 110 loadbang;
#X obj 429 157 loadbang;
#X msg 108 139 50;
#X msg 187 138 50;
#X obj 107 179 durations 500 700 200 500;
#X obj 167 219 durations 1200 1400 260 300;
#X text 236 138 <- Attack/ Decay times;
#X msg 429 182 10;
#X text 468 184 minimum sustain time;
#X connect 2 0 1 0;
#X connect 4 0 6 0;
#X connect 5 0 4 1;
#X connect 7 0 5 0;
#X connect 8 0 4 0;
#X connect 8 1 4 0;
#X connect 9 0 4 0;
#X connect 9 1 4 0;
#X connect 10 0 12 0;
#X connect 10 0 13 0;
#X connect 11 0 17 0;
#X connect 12 0 8 0;
#X connect 12 0 9 0;
#X connect 12 0 14 0;
#X connect 12 0 15 0;
#X connect 13 0 8 1;
#X connect 13 0 9 1;
#X connect 13 0 14 1;
#X connect 13 0 15 1;
#X connect 14 0 4 0;
#X connect 14 1 4 0;
#X connect 15 0 4 0;
#X connect 15 1 4 0;
#X connect 17 0 8 2;
#X connect 17 0 9 2;
#X connect 17 0 14 2;
#X connect 17 0 15 2;
